<?xml version="1.0" standalone="no"?><!DOCTYPE svg PUBLIC "-//W3C//DTD SVG 1.1//EN" "http://www.w3.org/Graphics/SVG/1.1/DTD/svg11.dtd"><svg t="1681819621396" class="icon" viewBox="0 0 1024 1024" version="1.1" xmlns="http://www.w3.org/2000/svg" p-id="13265" xmlns:xlink="http://www.w3.org/1999/xlink" width="150" height="150"><path d="M652.107294 39.152941c-18.371765 6.656-44.062118 21.142588-76.348235 43.369412l-7.710118 5.330823H446.945882l-8.432941-7.168c-29.123765-24.696471-52.344471-40.207059-68.608-46.441411-8.794353-3.373176-8.975059-3.343059-8.131765-4.427294-9.999059 13.131294-9.999059 65.024 5.571765 148.48l0.512 5.541647V580.668235a120.470588 120.470588 0 0 0 120.470588 120.470589h47.344942a120.470588 120.470588 0 0 0 120.470588-120.470589V183.416471l0.421647-5.029647c13.432471-79.329882 14.546824-130.439529 9.938823-142.908236-3.373176 0.301176-8.222118 1.475765-14.396235 3.674353zM337.739294 11.595294c17.197176-22.648471 57.283765-7.288471 120.259765 46.140235h100.683294C627.049412 10.601412 669.605647-4.818824 686.260706 11.595294c16.624941 16.384 16.624941 73.667765 0 171.851294V580.668235a150.588235 150.588235 0 0 1-150.588235 150.588236H488.327529a150.588235 150.588235 0 0 1-150.588235-150.588236V183.838118c-17.167059-92.16-17.167059-149.564235 0-172.242824z" fill="#ABEBEB" p-id="13266"></path><path d="M506.608941 990.960941v-187.030588H444.235294C331.956706 803.960471 240.941176 715.595294 240.941176 606.659765v-33.611294h28.461177v33.611294c19.395765 93.575529 64.662588 147.877647 135.830588 162.93647 53.669647 8.432941 106.767059 10.631529 174.531765 8.432941 95.262118-5.601882 154.895059-62.735059 178.898823-171.369411v-30.238118H783.058824v30.238118c0 108.965647-91.015529 197.330824-203.294118 197.330823H536.726588v187.000471h109.266824v30.117647H416.737882v-30.117647H506.578824zM395.866353 94.72l14.848 4.005647a11.143529 11.143529 0 0 1 4.126118 19.395765 11.143529 11.143529 0 0 1-18.130824-8.041412l-0.843294-15.36zM628.133647 94.72l-14.848 4.005647a11.143529 11.143529 0 0 0-4.126118 19.395765 11.143529 11.143529 0 0 0 18.130824-8.041412l0.843294-15.36z" fill="#ABEBEB" p-id="13267"></path><path d="M544.466824 368.941176c15.269647 0 25.901176-7.529412 33.129411-19.335529 5.632-9.216 0.602353-17.950118-10.812235-24.786823a7.529412 7.529412 0 0 0-7.740235 12.950588c5.210353 3.102118 5.722353 3.945412 5.722353 3.945412-4.758588 7.740235-10.992941 12.167529-20.299294 12.167529-7.529412 0-16.534588-4.427294-26.804706-13.793882l-5.481412-4.99953-5.089882 5.421177c-8.493176 9.095529-16.504471 13.372235-24.124236 13.372235-10.812235 0-19.215059-4.879059-23.612235-12.137412 0 0 0.542118-0.662588 7.890823-3.373176a7.529412 7.529412 0 1 0-5.210352-14.155294c-14.938353 5.541647-22.196706 14.426353-15.570824 25.359058 7.137882 11.685647 20.359529 19.365647 36.502588 19.365647 10.390588 0 20.419765-4.487529 29.997177-13.071058 10.842353 8.613647 21.323294 13.071059 31.503059 13.071058z" fill="#ABEBEB" p-id="13268"></path><path d="M479.382588 359.393882c-12.348235 44.333176-1.445647 69.812706 33.129412 69.782589 34.695529 0 44.875294-25.720471 31.021176-69.993412l-14.336 4.457412c11.203765 35.990588 5.481412 50.447059-16.715294 50.477176-22.347294 0-28.641882-14.667294-18.582588-50.688l-14.516706-4.035765z" fill="#ABEBEB" p-id="13269"></path></svg>