<svg transform="scale(1)" version="1.1" id="Layer_1" xmlns="http://www.w3.org/2000/svg" xmlns:xlink="http://www.w3.org/1999/xlink" x="0px" y="0px" viewBox="0 0 500 500" xml:space="preserve" class="show_show__wrapper__graphic__5Waiy "><title>React</title><style type="text/css">
	.st0{fill:#000005;}
	.st1{fill:#59BE4C;}
	.st2{fill:#FFFFFF;}
	.st3{fill:none;}
</style><g id="tree"><path class="st0" d="M405.7,379.1c0.2-4.1,0.4-8.2,0.6-12.3c0.4-10.2,0.5-20.4,0.5-30.6c0-13.4-0.4-26.9-1.3-40.2
		c-0.8-13.6-2.4-27.2-4.9-40.6c-1.1-6-2.5-11.8-4.3-17.6c-0.8-2.6-1.7-5.1-2.7-7.6c-0.5-1.3-1.1-2.6-1.7-3.9
		c-0.3-0.5-0.5-1.1-0.8-1.6s-0.1-0.4,0,0c0-0.2,0-0.5,0,0.3c0-0.9-0.2-1.7-0.2-2.5c0-0.3,0-0.6,0-0.8s0-0.3,0-0.4c0,0.4,0-0.1,0-0.2
		c0.1-0.7,0.2-1.3,0.4-2c0.3-1,1-1.9,1.9-2.4c0,0,0.9-0.4,0.9-0.4s-0.7-0.1-0.1,0c-0.9-0.1-0.4-0.1-0.2,0c-0.5-0.2-0.5-0.2-0.1,0
		s0.3,0.5,0,0c0.2,0.2,0.3,0.3,0.5,0.5c0.4,0.4,0.7,0.8,1.1,1.2s-0.4-0.6-0.1-0.1l0.3,0.4c0.2,0.3,0.4,0.6,0.6,0.9
		c2,3.1,3.8,6.3,5.3,9.7c0.2,0.5,0.5,1,0.7,1.5s-0.1-0.3,0.1,0.4c0.1,0.3,0.3,0.6,0.4,1c0.5,1.1,1,2.3,1.5,3.4
		c1.1,2.6,2.1,5.2,3.1,7.8c4.8,12.6,8.9,25.4,12.3,38.4c4,14.9,7.2,30,9.6,45.2c2.2,14.6,3.5,29.4,3,44.2c-0.1,3.2-0.3,6.3-0.7,9.5
		c-0.2,1.3,0.6,2.6,1.9,3c1.1,0.4,2.3-0.2,2.7-1.2c0-0.1,0.1-0.2,0.1-0.2c1.6-14.6,0.9-29.4-0.7-43.9c-1.9-15.8-4.7-31.5-8.6-46.9
		c-3.4-14.1-7.5-27.9-12.3-41.6c-3.5-9.8-7.2-19.6-12.3-28.7c-1.3-2.6-3-5-5.1-7.1c-0.9-0.9-2.1-1.6-3.4-1.8c-2.4-0.3-4.8,1.6-6,3.5
		c-1.5,2.4-1.8,5.5-1.5,8.2c0,0.8,0.2,1.6,0.4,2.3c0.2,0.5,0.5,1.1,0.8,1.6l0.4,0.8l0.3,0.6c2.2,5.1,4.1,10.4,5.4,15.7
		c3.4,12.8,5.1,25.8,6.4,39c1.4,13.9,2,27.9,2.2,41.9c0.2,11.6,0.1,23.2-0.2,34.8c-0.2,6.1-0.4,12.1-0.7,18.2c0,0.3,0,0.5,0,0.8
		c0.1,1.3,1.2,2.4,2.5,2.5c1.1,0.1,2.1-0.8,2.2-1.9C405.8,379.3,405.8,379.2,405.7,379.1L405.7,379.1z"></path><path class="st0" d="M363.2,299c0.1-6.4,0.6-12.8,1.7-19.1c2-13.1,5.4-26.2,11.6-37.9c3.7-7.2,8.7-13.7,14.8-19
		c0.4-0.3-1.6-0.4-1.8-0.4c-0.7,0-2.5-0.2-3.1,0.3c-10.9,9.2-17.6,22.4-21.8,35.9c-3.3,10.9-5.4,22.2-6.1,33.5
		c-0.2,2.3-0.3,4.5-0.3,6.8C358.2,299.5,363.2,299.5,363.2,299L363.2,299z"></path><path class="st0" d="M399.1,253.6c2.7,0.9,5.7,0.8,8.3-0.3c2.5-1,4.6-2.9,5.9-5.2c0.1-0.4,0-0.9-0.3-1.2c-0.4-0.4-1-0.6-1.5-0.7
		c-1.2-0.2-2.3,0.3-3,1.2c0.2-0.3,0,0-0.1,0.1l-0.2,0.3c-0.1,0.2-0.3,0.4-0.5,0.6s-0.3,0.4-0.5,0.5c-0.1,0.1-0.2,0.2-0.3,0.3
		c0,0-0.4,0.3-0.1,0.1s-0.1,0.1-0.2,0.1l-0.2,0.2c-0.2,0.1-0.4,0.3-0.6,0.4l-0.3,0.2c-0.3,0.2,0,0.1,0,0c-0.2,0.1-0.4,0.2-0.6,0.3
		l-0.6,0.2c-0.3,0.1,0.5-0.1,0.1,0l-0.3,0.1l-0.7,0.1c-0.3,0.1,0.7-0.1,0.2,0h-0.3c-0.2,0-0.5,0-0.7,0c0.2,0,0.6,0,0.2,0h-0.3h-0.3
		c-0.5-0.1,0.4,0.1,0.1,0s-0.5-0.1-0.8-0.2c-1.2-0.4-2.5-0.2-3.4,0.7c-0.7,0.9,0,1.8,1,2.1L399.1,253.6z"></path><path class="st0" d="M406,292.9c5.9-0.3,11.2-3.6,14.8-8.1c1.3-1.6-1.7-5.6-3.3-3.6c-3.2,4.2-8.1,6.8-13.3,7.2
		c-1.2,0.1-1.1,1.8-0.8,2.6C403.8,292,404.8,292.8,406,292.9L406,292.9z"></path><path class="st0" d="M407.1,322.9c8.8,1.4,17.7-1.5,24-7.8c2.3-2.2-1.6-4.9-3.5-3c-5.1,4.9-12.1,7.9-19.2,6.7
		c-1.3-0.3-2.6,0.3-3.1,1.5c-0.3,1.2,0.4,2.3,1.6,2.6C406.9,322.9,407,322.9,407.1,322.9L407.1,322.9z"></path><path class="st0" d="M407.4,362.2c4.2-0.5,8.4,0.5,12.6-0.1c2.2-0.3,4.3-1,6.2-2.2c1.9-1.3,3.6-2.8,5.2-4.5
		c2.2-2.2-1.9-4.5-3.7-2.7c-2.6,2.7-5.1,5.2-9,5.5s-7.7-0.5-11.5,0c-1.1,0.1-2.5,0.8-2.4,2.1C405,361.6,406.2,362.4,407.4,362.2
		L407.4,362.2z"></path><path class="st0" d="M374,295.2c-1.3-0.8-2.6-1.6-3.9-2.5c-0.6-0.4-1.1-0.8-1.6-1.2c-0.3-0.2-0.6-0.5-0.9-0.8l-0.5-0.5
		c0.2,0.2,0,0-0.1-0.1s-0.5-0.5-0.7-0.8l-0.3-0.4c-0.4-0.6,0.1,0.2-0.1-0.1s-0.4-0.6-0.6-0.9s-0.2-0.3-0.3-0.5s-0.2-0.5-0.1-0.2
		c-0.6-1.3-1-2.7-1.1-4.1c-0.2-1.2-1.1-2.3-2.2-2.7c-1-0.4-1.6,0.2-1.5,1.2c0.5,3.7,2.1,7.2,4.6,10c2.6,2.8,5.6,5.1,8.9,7
		c0.7,0.5,1.9,0.6,2-0.5C375.7,297,375,295.8,374,295.2L374,295.2z"></path><path class="st0" d="M376.7,280c-1.4-0.4-2.7-1.1-3.8-2c-0.3-0.2,0,0-0.1-0.1l-0.4-0.4c-0.3-0.3-0.6-0.6-0.9-0.9
		c-0.1-0.1-0.4-0.4-0.1-0.1l-0.4-0.5c-0.3-0.3-0.5-0.7-0.8-1c-0.1-0.2-0.2-0.3-0.4-0.5s0.1,0.2-0.1-0.2s-0.4-0.7-0.6-1.1
		s-0.4-0.8-0.6-1.2c-0.1-0.1-0.1-0.1,0,0l-0.1-0.2c-0.1-0.2-0.2-0.4-0.2-0.6c-0.6-1.6-1-3.4-1.2-5.1c-0.2-1.2-1-2.3-2.1-2.8
		c-0.5-0.3-1.2-0.1-1.5,0.4c-0.1,0.3-0.2,0.6-0.1,0.8c0.9,8.1,6,16.9,14.2,19.5c1,0.3,1.8-0.2,1.6-1.3
		C378.6,281.6,377.8,280.6,376.7,280L376.7,280z"></path><path class="st0" d="M381.9,263.9c-4-4.8-5.9-11-5.2-17.2c0-0.5-2.4,0.2-2.5,0.3c-0.6,0.2-2,0.7-2.1,1.5
		c-0.6,6.2,1.2,12.4,5.2,17.2c0.5,0.6,2-0.1,2.5-0.3C379.9,265.3,382.2,264.3,381.9,263.9z"></path><path class="st0" d="M388.1,246.3c-0.5-6-0.8-12.1-1-18.2c0-0.4-2.3,0.7-2.4,0.8c-0.5,0.3-1.9,1-1.9,1.8c0.2,6.1,0.5,12.1,1,18.2
		c0,0.4,2.3-0.7,2.4-0.8C386.7,247.7,388.1,247,388.1,246.3z"></path><path class="st0" d="M320.7,275.3c9.6-22.8,28.1-40.7,50.7-50.4c6.6-2.8,13.4-5,20.4-6.6c1.2-0.3,1.3-1.8,0.8-2.7
		c-0.7-1.1-2-1.7-3.2-1.4c-12.9,2.9-25.2,7.9-36.4,15c-16.5,10.6-29.3,26-36.9,44.1C315.1,275.6,319.6,277.8,320.7,275.3
		L320.7,275.3z"></path><path class="st0" d="M336.1,278c-4.8-5.4-5.8-13.7-3.2-20.3c1-2.6-3.4-4.9-4.5-2.1c-3.2,8-1.9,18.4,4,24.9c0.8,1,2.2,1.3,3.4,0.7
		c1-0.7,1.2-2.1,0.4-3.1C336.2,278.1,336.2,278,336.1,278L336.1,278z"></path><path class="st0" d="M347,263.4c-3.9-5.6-4.5-13.4-2.5-19.8c0.6-1.8-3.4-4.8-4-2.8c-2.5,8-1.1,16.8,3.6,23.7
		c0.5,0.8,1.9,1.8,2.9,1.4S347.5,264,347,263.4L347,263.4z"></path><path class="st0" d="M354.9,249.7c-0.9-5.4-0.5-10.9,1-16.1c0.4-1.2-0.1-2.6-1.3-3.2c-1-0.5-2.7-0.4-3.1,0.9
		c-1.9,6-2.3,12.3-1.4,18.4c0.2,1.3,1.3,2.3,2.7,2.3c1.2,0,2.1-0.9,2.1-2.1C354.9,249.8,354.9,249.7,354.9,249.7L354.9,249.7z"></path><path class="st0" d="M366,237.8c-0.1-0.4-0.1-0.9-0.1-1.3c0-0.5,0-1,0.1-1.6c0.1-1,0.3-2,0.6-2.9c0.3-1,0.8-1.9,1.3-2.7
		c0.3-0.4,0.5-0.8,0.9-1.2c0.1-0.1,0.1-0.2,0.2-0.3l0.1-0.1c0.2-0.2,0.4-0.4,0.6-0.6c0.9-0.8,0.1-1.9-0.6-2.5s-2.4-1.4-3.2-0.6
		c-3.6,3.2-4.9,8.2-4.3,12.9C361.7,238.9,366.4,240.4,366,237.8L366,237.8z"></path><path class="st0" d="M329.3,197.3c8.5-5,18.4-7,28.1-5.7c8.7,1.4,16.8,5.2,23.4,11.2c3.9,3.5,7.2,7.4,10,11.8
		c0.6,0.9,2,1.6,2.9,0.9s0.4-2.2-0.1-3.1c-5.4-8.4-12.8-15.4-21.6-20.1c-8.8-4.7-19-6.5-28.9-5c-6,0.9-11.7,3-16.9,6.1
		C324.2,194.5,327.2,198.5,329.3,197.3L329.3,197.3z"></path><path class="st0" d="M337,209.4c0.1-7,3.3-14.7,9.6-18.4c0.9-0.6-0.5-0.9-1-1c-1.2-0.2-2.3,0-3.4,0.4c-6.6,3.9-10.1,11.7-10.2,19.1
		C332,210.6,337,210.5,337,209.4L337,209.4z"></path><path class="st0" d="M349.5,209.3c1.5-3.6,3.6-6.9,6.1-9.9c0.3-0.4,1.1-1.2,1.7-1.8s1.3-1.3,2-1.9s1.6-1.3,2.1-1.6s1.5-1,2.2-1.4
		c1.1-0.5,1.7-1.8,1.1-3s-1.8-1.7-3-1.1c-0.1,0.1-0.2,0.1-0.3,0.2c-7.5,4.4-13.1,11.5-16.5,19.5c-0.4,1.1,0.2,2.3,1.3,2.7
		c0.1,0,0.2,0.1,0.2,0.1C347.7,211.3,349,210.6,349.5,209.3L349.5,209.3z"></path><path class="st0" d="M364.8,211.7c1.6-2.7,3.6-5.1,6.1-7.1c1.2-0.9,2.5-1.6,3.9-2.1c0.7-0.2,1.4-0.4,2.2-0.4c0.1,0,0.6-0.1,0.3,0
		s-0.3-0.1,0.1,0.1c1.1,0.5,2.3,0.8,3.5,0.8c0.8,0,1.1-0.5,0.2-0.9c-4.2-1.9-9.1-2.2-13.2,0.1c-3.4,1.9-5.9,5.2-7.9,8.5
		c-0.3,0.5,2.1,1.1,2.3,1.2C362.8,211.9,364.4,212.3,364.8,211.7L364.8,211.7z"></path><path class="st0" d="M396.1,217c-0.2-17.5,4.6-35.3,14.3-50c2.6-3.9,5.5-7.6,8.8-10.9c0.2-0.2-2.2-0.9-2.4-1c-0.6-0.1-2-0.6-2.5,0
		c-12.1,12.2-19.4,28.8-22,45.6c-0.8,5-1.2,10.2-1.1,15.3C391.2,217,396.1,217.4,396.1,217z"></path><path class="st0" d="M401.5,186.1c0.9-0.2,1.8-0.4,2.7-0.6c0.4-0.1,0.9-0.2,1.3-0.2l0.7-0.1h0.3c1.8-0.2,3.6-0.2,5.4-0.1
		c1.1,0,1.9-0.9,1.9-1.9c0-0.1,0-0.2,0-0.4c-0.2-1.3-1.2-2.3-2.5-2.5c-3.9-0.2-7.8,0.1-11.5,1.1C397.1,182.2,399,186.8,401.5,186.1
		L401.5,186.1z"></path><path class="st0" d="M398.6,198.9l7.5-0.6c1.1-0.1,1.9-1.1,1.8-2.2c0-0.1,0-0.3-0.1-0.4c-0.4-1.3-1.6-2.1-2.9-2l-7.5,0.6
		c-1.1,0.1-1.9,1.1-1.8,2.2c0,0.1,0,0.3,0.1,0.4C396.1,198.2,397.3,199.1,398.6,198.9L398.6,198.9z"></path><path class="st0" d="M398.8,220.6c4.7-7.4,10.9-13.6,18.3-18.3c8-4.9,16.9-8,26.2-9c5.7-0.6,11.4-0.7,17.2-0.2
		c1.1,0.1,0.6-1,0.3-1.6c-0.5-0.8-1.7-2-2.7-2.1c-10.2-0.9-20.7-0.3-30.5,2.9c-8.3,2.7-16,7.1-22.5,13c-3.8,3.5-7.1,7.5-9.9,11.9
		C394.3,218.5,398.2,221.7,398.8,220.6L398.8,220.6z"></path><path class="st0" d="M413.8,206.1c0.8-0.6,1.9-0.8,2.9-0.6c-0.2,0,0,0,0.1,0.1l0.4,0.1c-0.3-0.1-0.1,0,0.1,0s-0.5-0.3,0,0
		c0.1,0,0.5,0.3,0.2,0.1s0.1,0.1,0.1,0.1c-0.2-0.1-0.3-0.3,0,0l0.1,0.1l-0.1-0.1c0.1,0,0.5,0.6,0.6,0.7c-0.1-0.2-0.1-0.1,0,0
		l0.3,0.4c0.3,0.4,0.7,1,0.9,1.4c0.6,1,1.1,2.3,1.6,3.4c0.6,1,1.5,1.8,2.6,2.3c0.5,0.2,1.9,0.6,1.5-0.5c-1.4-3.1-3-6.3-5.6-8.6
		s-6.5-4.2-9.7-2C409.1,203.6,412.5,207,413.8,206.1L413.8,206.1z"></path><path class="st0" d="M427.1,198.1c1.1,0.4,2.1,0.8,3.2,1.3c1,0.4,2,1,3,1.6l0.3,0.2c-0.4-0.3,0,0,0.1,0.1l0.3,0.2
		c0.2,0.1-0.4-0.3,0,0c0.2,0.2-0.4-0.4-0.1-0.1l0.2,0.2c0.1,0.1,0.1,0.1-0.2-0.2c0,0.2,0.5,0.4,0,0c0.1,0.1,0.2,0.2,0.3,0.3
		c0.2,0.2-0.2-0.3,0,0c0.1,0.1,0.2,0.3,0.3,0.4s0-0.1,0.1,0.2l0.2,0.4c0.3,0.5,0.5,1.1,0.7,1.7c0.5,0.9,1.1,1.7,2,2.3
		c0.4,0.3,0.8,0.6,1.2,0.9c0.1,0,0.5,0.2,0.4-0.1c-1.2-3.6-4-6.5-7-8.7c-2.5-1.7-5.2-3.1-8-4.1c-1-0.4,0,0.9,0.2,1.1
		c0.4,0.5,0.9,0.9,1.4,1.4c0.4,0.4,0.8,0.6,1.2,0.9L427.1,198.1z"></path><path class="st0" d="M443.9,195.2c0.6,0,1.2,0.1,1.8,0.2c0.5,0.1-0.5-0.1,0,0l0.5,0.1c0.3,0.1,0.5,0.2,0.8,0.3s0.6,0.3,0.9,0.4
		s-0.3-0.2,0,0s0.2,0.1,0.4,0.2c0.6,0.3,1.1,0.7,1.6,1.1l0.3,0.3c0.5,0.4-0.4-0.4,0,0c0.2,0.2,0.5,0.4,0.7,0.7
		c0.5,0.5,0.9,1,1.3,1.5c0.2,0.3,0,0.2,0,0c0.1,0.2,0.2,0.3,0.3,0.5c0.2,0.3,0.4,0.6,0.5,0.9s0.3,0.6,0.5,0.9s0.2,0.4,0.2,0.5
		s0.3,0.7,0.1,0.1c0.5,1.1,1.5,2.3,2.9,2c1.1-0.2,1.8-1.2,1.7-2.3c0-0.1,0-0.2-0.1-0.4c-1.3-3.3-3.4-6.2-6.1-8.4
		c-2.4-2-5.3-3.2-8.4-3.4c-1.1-0.1-2.1,0.6-2.2,1.7c0,0.1,0,0.2,0,0.3C441.6,193.8,442.6,194.9,443.9,195.2L443.9,195.2z"></path><path class="st0" d="M396.8,219.2c9.1-0.4,17.7,4.9,24.4,10.7c3.6,3.2,7,6.6,10.1,10.3c3,3.5,6,7.1,8.8,10.8
		c3,4.1,5.5,8.5,6.5,13.5c0.3,1.6,5.2,1,5-0.5c-1.8-9.5-8.9-17.2-15-24.3c-6.6-7.7-14-15.1-23.4-19.4c-5.2-2.4-10.8-3.5-16.5-3.3
		c-0.6,0-2.5,0.4-2.4,1.3S396.2,219.2,396.8,219.2L396.8,219.2z"></path><path class="st0" d="M416.8,228.1c1.7,5.5,2.6,11.2,2.7,17c0,1.3,0.7,2.4,1.8,3c0.8,0.4,1.7,0.1,2.1-0.7c0.1-0.2,0.2-0.4,0.2-0.6
		c-0.1-6.6-1.1-13.1-3-19.4c-0.3-1-1.5-2.2-2.7-2S416.5,227.1,416.8,228.1L416.8,228.1z"></path><path class="st0" d="M429.5,241.9c1.2,6.7,1.6,13.6,1.3,20.4c-0.1,1.9,4.9,1.7,5-0.4c0.3-6.8-0.1-13.7-1.3-20.4
		c-0.2-1.1-1.7-1.3-2.6-1.2C431.2,240.3,429.3,240.8,429.5,241.9L429.5,241.9z"></path><path class="st0" d="M441.5,255.7V268c0.1,1.3,1.1,2.3,2.3,2.6c1.1,0.2,2.3-0.3,2.3-1.6v-12.3c-0.1-1.3-1.1-2.3-2.3-2.6
		C442.7,253.9,441.5,254.4,441.5,255.7L441.5,255.7z"></path><path class="st0" d="M396.7,218.7c18.7-5.3,38.9-2.8,56.2,5.8c5.1,2.6,9.9,5.6,14.4,9.1c1.8,1.4,5.6-1.8,3.6-3.4
		c-16.4-12.8-37-19.6-57.8-18.3c-5.8,0.4-11.6,1.4-17.2,3c-1.2,0.3-2,1.5-1.9,2.7C394.3,219,395.8,218.9,396.7,218.7L396.7,218.7z"></path><path class="st0" d="M447.6,220.7c1.1,4.6,1.7,9.3,1.8,14c0.2,1.1,0.8,2.2,1.6,3c0.3,0.4,1.4,1.3,1.3,0.2c-0.2-5-0.8-10-2-14.9
		c-0.3-1.2-1-2.2-1.9-3c-0.2-0.2-0.6-0.5-0.8-0.3S447.5,220.4,447.6,220.7L447.6,220.7z"></path><path class="st0" d="M433.2,217.8C433.5,217.7,433.3,217.8,433.2,217.8C433.4,217.9,433.4,217.8,433.2,217.8
		c-0.3-0.1-0.2-0.2-0.2-0.1c0-0.1-0.3-0.2,0,0C433.1,217.8,433.3,218,433.2,217.8c0,0.1,0.1,0.2,0.2,0.3c0.2,0.3,0.4,0.5,0.6,0.8
		c0.7,1.2,1.2,2.5,1.6,3.9c1,3,1.7,6,2,9.2c0.1,1.2,1.5,2,2.7,2s2.4-0.6,2.2-1.9c-0.4-3.9-1.4-7.8-2.8-11.5c-1.3-3.3-4-7.6-8.3-6.6
		c-1.1,0.3-2,1.1-1.5,2.3C430.6,217.4,431.9,218,433.2,217.8L433.2,217.8z"></path><path class="st0" d="M421.7,216.2c1.5,3,2.7,6.1,3.6,9.3c0.1,0.3,0.8,0.6,1,0.7c0.6,0.2,1.2,0.4,1.9,0.4c0.5,0,2.2,0.2,1.9-0.7
		c-1-3.2-2.2-6.3-3.6-9.3c-0.2-0.3-0.7-0.6-1-0.7c-0.6-0.2-1.2-0.4-1.9-0.4C423.3,215.5,421.3,215.4,421.7,216.2z"></path></g><g id="car"><path class="st1" d="M138.6,248.9c0,0,0.6-26.8,4.6-27s103.9-5.7,107-1.7s1.4,26.5,1.4,26.5L138.6,248.9z"></path><path class="st1" d="M140.8,249.9c0.1-4.9,0.4-9.9,0.9-14.8c0.2-3.2,0.8-6.3,1.7-9.3c0.4-1.2,0.8-2.7,2.2-2.8
		c8.3-0.6,16.7-0.9,25-1.2c14.4-0.7,28.9-1.2,43.4-1.6c6.6-0.2,13.1-0.3,19.7-0.3c4.6,0,9.2,0,13.8,0.4l1.2,0.1l0.5,0.1
		c0.1,0,0.8,0.1,0.2,0l0.8,0.1c0.8,0.1-0.3-0.1,0.3,0.1c-0.8-0.2-1.5-0.6-2.1-1.1c-0.1-0.1-0.2-0.2-0.2-0.1s-0.1-0.2,0,0.1
		c0.1,0.1,0.1,0.2,0.2,0.3c0.5,1.2,0.9,2.5,1,3.8c1,6.7,0.6,13.7,0.2,20.5c0,0.5-0.1,1-0.1,1.4l0.4-0.1l-11.2,0.2l-27,0.5l-32.7,0.6
		l-28.2,0.6c-4.6,0.1-9.2,0-13.8,0.3h-0.2c-1,0,0.2,0.9,0.5,1.1c0.9,0.7,2,1.1,3.2,1.2l11.2-0.2l27-0.5l32.7-0.6l28.2-0.6l9.4-0.2
		c1.4,0,2.9,0,4.4-0.1h0.2c0.1,0,0.3,0,0.4-0.1c0.5-5.8,0.6-11.6,0.3-17.4c-0.1-2.8-0.1-6.4-1.5-8.9c-1-1.7-3.4-2.5-5.3-2.9
		c-3.6-0.8-7.5-0.8-11.1-0.9c-6.1-0.1-12.3-0.1-18.4,0c-14.9,0.3-29.8,0.8-44.7,1.5c-10.1,0.4-20.3,0.9-30.4,1.5
		c-0.8-0.1-1.6,0-2.4,0.4c-1.7,1.2-2,4.5-2.4,6.4c-1,6.3-1.6,12.7-1.7,19.1c0,0.4,0,0.9,0,1.3c0,0.7,1.6,1.3,2.1,1.5
		C138.5,249.4,140.8,250.3,140.8,249.9z"></path><path class="st2" d="M187,228.2c2-0.1,27.8-3.1,27.1-1.5s-0.8,9.1-4.5,9.3s-21.5,2.1-22.2,0.1S187,228.2,187,228.2z"></path><path class="st1" d="M185.8,228.7c4-0.2,7.9-0.8,11.9-1.1c2.7-0.2,5.1-0.4,7.9-0.6l1.7-0.1h0.8h0.6c0.4,0,0.9,0,1.4,0h0.6
		c0.1,0,0.2,0,0.3,0c0.2,0,0.7,0.1,0.6,0.1l0.3,0.1c-0.1,0.7-0.2,1.5-0.5,2.2c-0.2,1.4-0.5,2.7-0.9,4c-0.2,0.6-0.5,1.2-0.9,1.8
		c-0.1,0.2-0.3,0.4-0.5,0.6c-0.1,0.1-0.2,0.2-0.3,0.3l-0.2,0.1l2.3-0.4c-0.9,0-1.8,0.1-2.7,0.2l-3.9,0.3c-2.9,0.2-5.8,0.4-8.7,0.5
		c-1.2,0-2.5,0-3.7-0.1c-0.6-0.1-1.4-0.1-1.7-0.6c-0.3-0.6-0.4-1.3-0.4-2c-0.1-0.9-0.1-1.7-0.1-2.6c0-1.1,0-2.3,0-3.4
		c0-0.3-4.9-0.1-4.9,0.8c0,1-0.1,2.1,0,3.1c0,1.4-0.1,3.4,0.4,4.7s3.9,1.2,5.1,1.2c5.9,0.1,11.9-0.6,17.8-1c1.8,0,3.6-0.3,5.2-1.1
		c1.1-0.8,1.9-1.9,2.2-3.2c0.4-1.4,0.8-2.8,1-4.3c0.1-0.5,0.6-1.5,0.2-1.9s-1.1-0.3-1.5-0.3c-1-0.1-2-0.1-3,0
		c-2.8,0.1-5.6,0.3-8.4,0.5c-3.4,0.3-6.8,0.6-10.1,0.9l-3.8,0.4l-1.2,0.1c-0.8,0.1,0.4,0-0.2,0c-0.9,0.1-2.6,0.1-3.4,0.6
		S185.4,228.8,185.8,228.7z"></path><path class="st2" d="M166.5,220.6c0,0,0-25,3.6-25.7s66.6-3.4,67.1-2.3s-2.4,26.1-2.4,26.1L166.5,220.6z"></path><path class="st1" d="M168.8,221.7c0-3.3,0.1-6.7,0.3-10c0.1-2.7,0.4-5.4,0.7-8.1c0.2-2.1,0.6-4.1,1.3-6.1c0.2-0.5,0.5-1,0.9-1.3
		c0.1,0,0.3-0.1,0.4-0.1c0.4-0.1-0.1,0,0.2,0c1-0.1,2.1-0.2,3.2-0.2c4-0.3,7.9-0.5,11.9-0.7c10.8-0.5,21.7-1,32.5-1.3
		c4.4-0.1,8.7-0.3,13-0.3c1.3,0,2.7,0,4,0l1.2,0.1c0.1,0-0.4-0.1,0,0c0,0-0.7-0.2-0.9-0.3l-2.3-1.4l-0.1-0.2c0,0,0,0.1,0,0.1
		c-0.2,1.2-0.1,2.8-0.2,4.1c-0.2,2.5-0.4,5-0.7,7.5c-0.5,4.5-0.9,8.9-1.5,13.4l-0.1,0.8l0.4-0.2l-23.1,0.6l-36.8,1l-8.4,0.2
		c-1,0,0.1,1,0.4,1.2c0.9,0.7,2,1.2,3.2,1.3l23.1-0.6l36.8-1l8.4-0.2c0.2,0,0.3,0,0.4-0.2c0.4-3.5,0.8-7.1,1.2-10.6
		c0.5-4.8,1.2-9.6,1.3-14.3c0.1-0.4,0-0.9-0.1-1.3c-0.4-1.1-2.4-1.8-3.5-2.1c-0.9-0.2-1.8-0.3-2.7-0.3c-3.6-0.1-7.3,0-10.9,0.1
		c-11.1,0.3-22.2,0.7-33.3,1.2c-4.7,0.2-9.3,0.4-14,0.7c-1.5,0.1-3,0.2-4.6,0.3c-0.8,0-1.7,0.1-2.5,0.3c-1.3,0.5-1.7,2.4-2,3.6
		c-0.5,2.4-0.9,4.9-1.1,7.4c-0.4,4.6-0.6,9.2-0.6,13.8v0.9c0,0.8,1.4,1.4,2,1.7C166.4,221.3,168.8,222.2,168.8,221.7z"></path><path class="st2" d="M139.6,237.6h3.4c0.2,0.1,0.4,0,0.6-0.1c0.2-0.1,0.4-0.2,0.4-0.4c0.2-0.5,0.2-1,0-1.5c-0.2-0.6-0.5-1.2-1-1.6
		l-0.5-0.4c-0.3-0.2-0.6-0.3-1-0.4h-3.4c-0.2,0-0.4,0-0.6,0.1c-0.2,0.1-0.4,0.2-0.5,0.4c-0.2,0.5-0.2,1,0,1.5c0.2,0.6,0.5,1.2,1,1.6
		l0.5,0.4C138.9,237.4,139.2,237.5,139.6,237.6L139.6,237.6z"></path><path class="st2" d="M152.1,236.4h4.4c0.6,0,1.2-0.1,1.8-0.4c0.4-0.2,0.7-0.6,0.8-1c0-1.1-1.5-1.7-2.4-1.7h-4.4
		c-0.6,0-1.2,0.1-1.8,0.4c-0.3,0.2-0.8,0.6-0.8,1.1C149.7,235.9,151.2,236.4,152.1,236.4L152.1,236.4z"></path><path class="st2" d="M165.8,237h4.8c0.5,0,0.9-0.3,1.1-0.7c0.2-0.5,0.1-1-0.1-1.5c-0.5-1.2-1.5-2-2.8-2.1H164
		c-0.5,0-0.9,0.3-1.1,0.7c-0.2,0.5-0.1,1,0.1,1.5C163.5,236.1,164.6,236.9,165.8,237L165.8,237z"></path><path class="st2" d="M179.4,236.9h4.8c0.4,0,0.8-0.2,0.9-0.6c0.1-0.5,0-1-0.2-1.4c-0.3-0.6-0.7-1.1-1.3-1.5c-0.4-0.3-1-0.6-1.5-0.6
		h-4.8c-0.4,0-0.8,0.2-0.9,0.6c-0.1,0.5,0,1,0.2,1.4c0.3,0.6,0.7,1.1,1.3,1.5C178.3,236.6,178.8,236.8,179.4,236.9L179.4,236.9z"></path><path class="st2" d="M213.8,235.9h7c0.5,0,1-0.2,1.5-0.4c0.6-0.3,1.1-0.6,1.6-1.1c0.3-0.3,0.7-0.7,0.7-1.1s-0.3-0.5-0.6-0.5h-7
		c-0.5,0-1,0.2-1.5,0.4c-0.6,0.3-1.1,0.6-1.6,1.1c-0.3,0.3-0.7,0.7-0.7,1.1S213.5,235.9,213.8,235.9L213.8,235.9z"></path><path class="st2" d="M231.4,235.4h4.8c0.1,0,0.8,0,0.8-0.2s-0.4-0.6-0.6-0.6c-0.5-0.3-1.1-0.5-1.6-0.7c-0.6-0.2-1.2-0.3-1.8-0.3
		h-4.8c-0.1,0-0.8,0-0.8,0.2s0.4,0.6,0.6,0.6c0.5,0.3,1.1,0.5,1.6,0.7C230.2,235.2,230.8,235.3,231.4,235.4z"></path><path class="st2" d="M243.5,235.9h5.2c0.6,0,1.3-0.1,1.9-0.2c0.3-0.1,0.9-0.2,1.1-0.4c0.4-0.6-1.7-0.6-1.8-0.6h-5.2
		c-0.6,0-1.3,0.1-1.9,0.2c-0.2,0.1-0.9,0.2-1.1,0.4C241.3,235.9,243.4,235.9,243.5,235.9z"></path><path class="st2" d="M216.6,218.4v-23.5"></path><path class="st1" d="M219.1,218.8v-23.5c0-1.7-4.8-2.8-4.8-0.7v23.5C214.2,219.8,219.1,220.8,219.1,218.8z"></path><path class="st0" d="M63.3,338.9h6.9c5.2,0,9.5,4.2,9.5,9.5v35.5c0,5.2-4.2,9.5-9.5,9.5h-6.9c-5.2,0-9.5-4.2-9.5-9.5v-35.5
		C53.8,343.1,58,338.9,63.3,338.9z"></path><path class="st0" d="M72.2,391.9c-4.8,0-10.2,0.9-13.8-3.1c-2.7-3-2.4-6.6-2.4-10.3v-28.5c0-1,0-2,0-3c0-1.2,0.2-2.4,0.7-3.6
		c0.3-0.8,0.7-1.5,1.2-2.1c0.3-0.3,0.5-0.5,0.8-0.8c-0.2,0.4-1,0.5,0,0.2c2.2-0.8,4.8-0.4,7-0.4c2.7,0,5.2-0.1,7.5,1.4
		c2.7,1.8,4.4,4.8,4.4,8c0,0.9,0,1.8,0,2.7v28.4c0,3.5,0.4,7.2-2,10.1c-0.1,0.1-0.6,0.8-0.7,0.7s1.3-0.6,0.1-0.2
		C74,391.8,73.1,391.9,72.2,391.9c-1,0.2-1.9,0.7-2.7,1.4c-0.2,0.1-1.6,1.4-1.2,1.4c4.2-0.1,8.8-2.8,11.3-6c1.5-1.9,2.2-4.2,2.2-6.6
		c0-3.9,0-7.8,0-11.7v-22.1c0.1-1.5-0.1-3-0.5-4.5c-1.3-3.6-4.7-6.1-8.5-6.4c-2.2-0.1-4.5,0-6.7,0c-3.7,0.1-7.2,1.5-9.9,3.9
		c-2.7,2-4.3,5.1-4.3,8.4c-0.1,8.9,0,17.9,0,26.8c0,3-0.1,6,0,9c0.2,3.9,2.7,7.4,6.5,8.6c2.4,0.8,5.1,0.5,7.6,0.5h2.5
		c0.9,0,2-0.9,2.7-1.4C71.1,393.2,72.6,391.9,72.2,391.9z"></path><rect class="st0" x="96.1" y="398.7" width="282.6" height="15"></rect><path class="st0" d="M378.8,414.2H96.1c-0.3,0-0.5-0.2-0.5-0.5v-15c0-0.3,0.2-0.5,0.5-0.5h282.6c0.3,0,0.5,0.2,0.5,0.5v15
		C379.3,414,379,414.2,378.8,414.2z M96.6,413.2h281.6v-14H96.6L96.6,413.2z"></path><ellipse class="st0" cx="197.9" cy="417.8" rx="24.7" ry="24.1"></ellipse><path class="st0" d="M220.1,417.7c-0.1,9.4-5.9,17.8-14.7,21.3c-8.7,3.2-18.5,0.5-24.4-6.6c-6.1-7.4-6.9-17.9-2-26.2
		c4.7-8,13.9-12.2,23-10.6C212.5,397.6,220,407.2,220.1,417.7c0,2,5,2.1,5,0.1c-0.2-11-7.4-20.6-17.8-24.1
		c-10.6-3.6-23.1-0.9-30.5,7.7c-7.1,8.2-8.1,20.2-2.3,29.4c6.1,9.5,17.9,14.1,28.9,12c12.1-2.4,21.6-12.4,21.7-25
		C225.1,415.9,220.1,415.7,220.1,417.7z"></path><ellipse class="st0" cx="358.6" cy="415.3" rx="24.7" ry="24.1"></ellipse><path class="st0" d="M380.8,415.4c-0.1,9.7-6,18.4-15,22.1c-4.1,1.7-8.7,1.9-12.9,0.4c-4.5-1.5-8.4-4.2-11.4-7.9
		c-6-7.6-6.8-18.1-2-26.5c4.4-7.7,13.8-13.4,22.8-11.3C373.1,394.7,380.7,404.3,380.8,415.4c0,0.5,5,0.5,5-0.2
		c-0.2-10.7-7.3-20.1-17.6-23.2c-5.8-1.7-11.8-1.8-17.6-0.3c-5.1,1.2-9.6,3.9-13.1,7.8c-7.1,8-8,19.9-2.2,28.9
		c6.4,9.7,18.2,12.7,29.2,10.9c11.8-2,21.1-11.8,21.2-24.1C385.8,414.7,380.8,414.7,380.8,415.4z"></path><path class="st2" d="M74.9,404.1c0,0-4.3-45.6,2.5-62.9s36.4-87.6,43.8-91.3c7.4-3.7,157.9-6.2,173.9,1.9c16,8,39.5,77.1,39.5,77.1
		s103,15.4,108.6,31.5s-3.7,41.9-3.7,41.9L74.9,404.1z"></path><path class="st0" d="M77.1,405.1c-1.5-14.7-1.8-29.6-0.9-44.3c0.3-4.5,0.9-9,1.8-13.4c0.7-2.9,1.7-5.7,2.9-8.5
		c2.8-6.8,5.6-13.7,8.5-20.5c7.3-17.1,14.8-34.3,23.3-50.9c2.6-5,5.2-10.6,8.9-14.9c1.6-1.9,3.6-2,6-2.3c11.2-1.4,22.7-1.6,34-1.9
		c17.1-0.5,34.3-0.8,51.5-0.7c16.9,0,33.8,0.2,50.7,1.1c6.4,0.3,12.8,0.7,19.2,1.4c4,0.3,8,1,11.9,2.1c0.7,0.2-0.2-0.1,0.5,0.2
		c0.5,0.2-0.4-0.2-0.1-0.1s-0.4-0.3,0.2,0.1c-0.6-0.4,0.4,0.3-0.1,0c0.2,0.2,0.5,0.3,0.7,0.5s0.9,0.8,1.3,1.2
		c2.2,2.3,4.2,4.9,5.9,7.6c4.6,7.2,8.6,14.8,12,22.6c6.1,13.4,11.5,27.1,16.3,40.9c0.3,0.8,0.5,1.6,0.8,2.4c0.4,1.1,2.8,2.2,3.9,2.4
		c15.5,2.3,31,5.2,46.4,8.5c11.9,2.5,23.7,5.3,35.4,8.9c4.8,1.4,9.4,3.1,14,5.1c1.6,0.7,3.2,1.5,4.7,2.4c0.6,0.4-0.4-0.3,0.2,0.1
		l0.5,0.3l0.5,0.3c-0.4-0.3,0,0,0.1,0c0.5,0.3,1,0.7,1.4,1.2c0.8,0.9,1.4,2,1.8,3.1c1.1,3.8,1.6,7.7,1.5,11.7
		c-0.2,7.5-1.3,14.9-3.3,22.2c-0.6,2.1-1.2,4.2-1.9,6.2c-0.1,0.2-0.4,0.9-0.1,0.7c0,0-0.1,0-0.1,0c-0.6,0.1-1.2,0.1-1.8,0l-27.5,0.1
		l-52.3,0.3l-67.4,0.3l-71.7,0.4l-66.6,0.3l-50.8,0.3L74,402.8h-1.1c-0.7,0,1.1,1.4,1.2,1.5c0.8,0.7,1.8,1.1,2.9,1.2h9.7l26.5-0.1
		l39.2-0.2l47.9-0.2l52.4-0.3l52.9-0.3L355,404l41.7-0.2l30-0.1c4.7,0,9.5,0.2,14.2-0.1c0.2,0,0.4,0,0.6,0l0.2-0.1
		c1.5-4.5,2.8-9,3.7-13.6c1.7-8.2,2.7-17.1,0.9-25.4c-0.3-2-1.1-3.8-2.3-5.4c-1.3-1.4-2.7-2.6-4.3-3.6c-4-2.6-8.4-4.7-12.9-6.4
		c-11.7-4.6-24-7.7-36.3-10.5c-12.4-2.9-24.9-5.4-37.5-7.6c-6.5-1.2-13.2-2.6-19.8-3.3h-0.3l3.9,2.4c-3.6-10.8-7.8-21.4-12.2-31.9
		c-3.6-8.5-7.3-16.9-11.7-25c-3.4-6.4-7.1-13-12.4-18c-7.1-6.9-17.8-7.1-27.1-7.9c-15.7-1.3-31.5-1.6-47.3-1.9
		c-18-0.2-36.1-0.2-54.1,0.2c-13.9,0.3-27.8,0.6-41.6,1.6c-3.4,0.1-6.8,0.5-10.2,1.2c-3,0.7-4.8,4.3-6.3,6.8
		c-3.9,6.6-7.5,13.5-10.7,20.5c-4.2,8.7-8.2,17.6-12.2,26.6c-3.6,8.3-7.2,16.6-10.7,24.9c-2.4,5.8-5.3,11.7-6.7,17.8
		c-2.2,9.6-2.4,19.7-2.3,29.5c0,8.2,0.4,16.4,1,24.6c0.1,1.4,0.2,2.7,0.3,4c0.1,0.8,1.9,1.6,2.5,1.9C75.5,405,77.1,405.8,77.1,405.1
		z"></path><path class="st0" d="M184.5,265.7l-0.4,59.5c0,2.5,2,4.6,4.5,4.6c0,0,0.1,0,0.1,0c12.1-0.2,24.7-0.4,37-0.7
		c2.5-0.1,4.5-2.1,4.5-4.7c0-0.5-0.1-0.9-0.2-1.3l-19.5-58.6c-0.6-1.8-2.3-3.1-4.3-3.1c-5.8-0.1-11.5-0.1-17-0.2
		C186.7,261.1,184.6,263.1,184.5,265.7C184.5,265.6,184.5,265.7,184.5,265.7z"></path><path class="st0" d="M182.9,264.2l-0.2,31.6l-0.1,20.5c0,4.2-0.9,9.4,1.9,12.8c0.9,1.1,2,2,3.3,2.5c1.6,0.6,3.3,0.3,4.9,0.3
		l11.4-0.2l11.5-0.2c3.7-0.1,7.5,0,11.2-0.2c4.2-0.3,5.9-4.3,4.7-8c-0.4-1.4-0.9-2.7-1.3-4l-13-39.1l-4.7-14.1
		c-0.8-2.4-1.9-4.8-4.2-6.1c-1.2-0.7-2.6-1-4-0.9l-5.9-0.1h-5.4c-1.8-0.1-3.7-0.1-5.5,0C184.8,259.4,182.9,261.6,182.9,264.2
		c0,1.2,0.6,2.4,1.5,3.2c0.5,0.4,1.8,1.1,1.8-0.1c0-1.2,0.6-2.3,1.5-3c1.2-0.9,2.5-0.8,3.9-0.8c3.6,0,7.1,0.1,10.7,0.1
		c1.8-0.1,3.5-0.1,5.3,0.1c0.5,0.1,0.9,0.3,1.4,0.5c0.1,0,0.3,0.3,0-0.1c0.1,0.2,0.2,0.5,0.2,0.7l4,12.1l12.8,38.3l1.9,5.7
		c0.5,1,0.7,2.1,0.6,3.1c-0.3,1.1-1.1,2.1-2.1,2.6c-1.4,0.7-3.1,0.4-4.6,0.5l-10.7,0.2l-21.4,0.4c-0.9,0-3,0.4-3.8-0.5
		c0,0-0.1-0.5-0.1-0.4c0-0.3,0-0.6,0-0.9v-5.1l0.1-18.8l0.2-34v-0.6c0-1.2-0.6-2.3-1.5-3.1C184.2,263.7,182.9,263,182.9,264.2z"></path><path class="st0" d="M128.4,262.2c-8.2,2.6-33.9,69.4-27.5,68.7c0,0,30.1-0.3,68.1-0.9c2.5,0,4.5-2,4.5-4.5l1.1-59.9
		c0-2.5-2-4.6-4.5-4.7c0,0-0.1,0-0.1,0C147.9,261.1,130.9,261.4,128.4,262.2z"></path><path class="st0" d="M127.8,260.3c-2.5,0.8-4.2,3-5.6,5.1c-2.1,3.1-4,6.4-5.6,9.8c-4.4,8.7-8.2,17.6-11.6,26.7
		c-2.9,7.7-5.8,15.6-7.3,23.7c-0.3,1.8-0.9,4.5,0.2,6.2s3.1,1.3,4.8,1.2c10.7-0.1,21.5-0.2,32.2-0.4c8.8-0.1,17.7-0.2,26.6-0.4
		c2.5,0,4.9,0,7.4-0.1c2-0.1,3.9-0.9,5.3-2.4c1.2-1.3,1.8-3,1.8-4.7c0.1-6.3,0.2-12.6,0.4-18.9l0.5-28.3l0.2-9.7
		c0-2.7,0.2-5.2-1.9-7.4c-1.5-1.3-3.5-2-5.5-1.9c-2.4,0-4.8,0-7.2,0c-4.2,0-8.5,0-12.8,0.1c-5.9,0.1-11.8,0.1-17.7,0.6
		C130.5,259.8,129.1,259.9,127.8,260.3c-1.1,0.3-2.3,1.3-1.9,2.6s1.9,1.6,2.9,1.3c0.2-0.1,0.4-0.1,0.5-0.1c0.5-0.1-0.4,0-0.2,0
		c0.2,0,0.3,0,0.5-0.1c0.8-0.1,1.5-0.2,2.3-0.2c2.4-0.2,4.7-0.3,7.1-0.3c7.4-0.2,14.8-0.3,22.2-0.3c2.3,0,4.6,0,6.9,0
		c1.5,0,3-0.1,3.7,1.5c0.2,0.6,0.3,1.3,0.2,2l-0.1,6.9l-0.5,25.9l-0.4,23.1c0,1.3,0.3,3.6-0.5,4.8s-2.6,0.8-4,0.9l-7.1,0.1
		l-13.2,0.2c-12.8,0.2-25.6,0.3-38.3,0.5c-2.3,0-4.6-0.1-6.9,0.1c-0.5,0,0.4,0.1,0.5,0.1c0.2,0.1,0.5,0.2,0.7,0.4
		c0.3,0.3,0.2,0.2,0.1,0.1c-0.2-0.3,0.1,0.2,0.1,0.3c0-0.1-0.1-0.3-0.1-0.4c0-0.1,0-0.1,0-0.2c-0.1-0.4,0,0.4,0,0.2
		c0-0.4,0-0.8,0-1.3c0.1-1.2,0.3-2.3,0.5-3.5c0-0.2,0.1-0.3,0.1-0.5c0.1-0.5-0.1,0.2,0-0.1s0.2-0.8,0.3-1.2c0.2-0.8,0.4-1.6,0.6-2.4
		c1.1-3.9,2.3-7.8,3.7-11.6c3.1-9,6.7-17.8,10.7-26.4c0.9-2,1.9-3.9,2.8-5.9c0.5-0.9,0.9-1.8,1.4-2.7l0.3-0.5l0.2-0.3
		c0.2-0.4,0.5-0.8,0.7-1.2c0.8-1.4,1.6-2.8,2.5-4.1c0.4-0.6,0.8-1.1,1.2-1.6l0.5-0.6l0.3-0.3c0.4-0.4-0.2,0.2,0,0
		c0.2-0.2,0.7-0.6,1-0.9s-0.6,0.4,0,0s0.1,0-0.1,0c1.1-0.4,2.2-1.3,1.9-2.6C130.2,260.4,129,259.8,127.8,260.3z"></path><path class="st0" d="M321.6,324.6c-1.4-4.3-20.5-56.7-26.1-59.8c-2.1-1.1-24.3-2.1-51.8-2.8c-2.5-0.1-4.6,1.9-4.7,4.5
		c0,0.3,0,0.5,0,0.8l8.6,57.3c0.3,2.3,2.3,4,4.6,3.9C291.1,327.5,322.1,326.2,321.6,324.6z"></path><path class="st0" d="M323.1,324.5c-1.9-5.7-4.1-11.3-6.2-16.9c-3.5-9.3-7.2-18.6-11.3-27.7c-1.6-3.6-3.3-7.2-5.2-10.7
		c-1.2-2.2-2.6-5-4.8-6.4c-1-0.5-2-0.8-3.1-0.8c-1.8-0.2-3.5-0.4-5.3-0.5c-6.1-0.5-12.2-0.7-18.3-1c-8.4-0.3-16.9-0.6-25.3-0.8
		c-1.7-0.2-3.4,0.4-4.6,1.5c-1.2,1.2-1.8,2.7-1.7,4.4c0,0.7,0.1,1.3,0.2,2l2.8,19l3.9,26.4l1.3,8.7c0.4,2.9,1,5.7,3.5,7.7
		c1.4,1,3.2,1.5,4.9,1.3l6.9-0.2l13.1-0.4c7.6-0.2,15.2-0.5,22.8-0.9c5.6-0.2,11.1-0.5,16.7-1c2.8-0.2,5.9-0.3,8.7-1.1
		C323.4,326.8,323.4,325.7,323.1,324.5c-0.2-1-1.2-2.4-2.3-2.4s-0.9,1.6-0.7,2.4c-0.1-0.4-0.2-2.1,0.2-2c-0.1,0-0.2,0.1-0.3,0.1
		l-0.4,0.1c0.5-0.1-0.2,0-0.3,0.1c-1.3,0.2-2.5,0.4-3.8,0.5c-4.5,0.5-8.9,0.7-13.4,1c-14.8,0.8-29.6,1.2-44.5,1.6
		c-2.2,0.2-4.3,0.2-6.5,0.2c-0.7-0.1-1.7-0.4-1.9-1c-0.1-0.3-0.1-0.7-0.1-1l-1.1-7l-3.6-24.4l-3.2-21.6c-0.4-1.3-0.5-2.6-0.5-3.9
		c0.3-1.4,1.5-2.5,2.9-2.8c0.9-0.1,1.9-0.1,2.9,0l3.4,0.1c4.2,0.1,8.3,0.2,12.5,0.4c6.8,0.2,13.6,0.5,20.5,0.9
		c3.9,0.1,7.9,0.5,11.8,1c-0.3,0,0.2,0,0.4,0.1s0.4,0.1,0.5,0.1c0.5,0.1-0.2-0.1,0,0c0.5,0.3-0.1-0.2,0,0c0.1,0.1,0.2,0.3,0.4,0.4
		c0.2,0.2-0.4-0.5-0.1-0.1c0.1,0.1,0.2,0.2,0.2,0.3c0.3,0.4,0.6,0.9,1,1.4c0.1,0.1,0.2,0.3,0.3,0.4c-0.2-0.3-0.2-0.4,0-0.1
		s0.4,0.6,0.6,1c0.4,0.7,0.8,1.4,1.1,2.1c0.9,1.7,1.7,3.4,2.5,5c1.9,4.1,3.6,8.1,5.2,11.9c1.8,4.5,3.6,8.9,5.4,13.5
		c2.6,6.7,5.1,13.4,7.5,20.1c0.2,0.6,0.4,1.2,0.6,1.9c0.3,0.9,1.2,2.4,2.3,2.3S323.4,325.3,323.1,324.5z"></path><rect class="st2" x="66.5" y="399.7" width="29.6" height="14.6"></rect><path class="st0" d="M97.6,412.7H68l0.7,0.5v-14.6l-3.7,2.7h29.6l-0.7-0.5v14.6c0,1.4,4.3-0.7,4.3-2.2v-14.6c0-0.3-0.3-0.6-0.6-0.5
		c0,0,0,0,0,0H68c-1.2,0-3.7,1.3-3.7,2.7v14.6c0,0.3,0.3,0.6,0.6,0.5c0,0,0,0,0,0h29.6c1.2-0.1,2.3-0.7,3.1-1.6
		C98.1,413.9,98.8,412.7,97.6,412.7z"></path><rect class="st2" x="320.5" y="400.2" width="127.1" height="14.6"></rect><path class="st0" d="M448.3,412.7H326.4c-1.7-0.1-3.3-0.1-5,0h-0.2l1.7,1.8v-14.6l-3,2.5h121.9c1.7,0.1,3.3,0.1,5,0
		c0.1,0,0.1,0,0.2,0l-1.7-1.9v14.6c0,3,4.7,1.9,4.7-0.7v-14.6c0-1-0.7-1.8-1.7-1.9H336.8c-5.1,0-10.3,0-15.4,0h-0.2
		c-1.4,0-3,0.9-3,2.5v14.6c0,1,0.7,1.8,1.7,1.8h111.5c5.1,0,10.3,0,15.4,0h0.2c1.3,0,2.5-0.8,2.9-2c0.3-1-0.2-2-1.2-2.3
		C448.6,412.7,448.4,412.7,448.3,412.7z"></path><path class="st0" d="M105,394.8c2.4-5.3,8.2-9.4,13.6-11.1c10-3.1,22.5-0.8,29.8,7.2c1.5,1.6,2.8,3.4,3.7,5.4
		c0.1,0.2,0.7,0.2,0.8,0.2l18.4-0.1l39.6-0.3l37.3-0.3l10.5-0.1c0.6,0,1.3,0,1.9,0c1.5,0,2.9-0.5,4.1-1.4c0.5-0.5,0.9-0.9,1.4-1.4
		c2.8-2.6,6-4.8,9.3-6.7c4-2.4,8.6-3.9,13.2-4.3c9-0.5,18.1,3.5,22.7,11.4c1.2,2.1,2.1,4.3,2.6,6.6c0.2,0.8,5-0.5,4.8-1.3
		c-2.5-10-10.7-16.9-20.8-18.2c-11.1-1.5-22.8,3-31.7,9.4c-2.3,1.6-4.4,3.4-6.4,5.5l4-1.3l-10.8,0.1l-25.7,0.2l-31.2,0.3l-26.9,0.2
		l-8.9,0.1c-1.4-0.1-2.8-0.1-4.2,0c-0.1,0-0.1,0-0.2,0l0.8,0.2c-0.8-1.9-2-3.6-3.4-5.1c-3.2-3.6-7.3-6.3-11.8-7.7
		c-7-2.2-14.8-1.9-21.9-0.1c-5.5,1.2-10.7,3.9-14.9,7.6c-1.9,1.7-3.5,3.7-4.7,6c-0.3,0.7,1.7,0.3,1.9,0.2
		C102.8,395.9,104.7,395.5,105,394.8L105,394.8z"></path><ellipse class="st0" cx="128.5" cy="417.9" rx="24.7" ry="25.2"></ellipse><path class="st0" d="M151.3,416.6c-0.1,10-6.1,18.9-15.3,22.8c-8.7,3.4-19.4,1.6-25.4-5.8c-6.1-7.5-6.4-18.8-1.5-27
		c5-8.6,14.7-13.2,24.5-11.8c5,0.8,9.6,3.3,12.9,7.1C149.7,406.2,151.4,411.3,151.3,416.6c0,1,1.3,2.2,2.1,2.7
		c0.6,0.4,1.6,0.8,1.6-0.3c-0.3-11.6-7.3-21.9-18-26.4c-10.2-4.2-22-1.4-29.2,7.1c-7.2,8.7-7.8,21.1-2.1,30.8s16.8,16.1,28.2,14.1
		c12.4-2.1,20.9-13.2,21-25.6C155,417.8,151.4,414.7,151.3,416.6z"></path><ellipse class="st0" cx="289.2" cy="415.2" rx="24.7" ry="25.2"></ellipse><path class="st0" d="M311.4,414.9c-0.1,9.6-5.7,18.9-14.9,22.3c-8.7,3.2-18.6,0.5-24.4-6.8c-6.1-7.8-6.9-18.5-2-27.1
		c4.6-8.3,14-12.7,23.4-11.1C304.1,394.2,311.4,404.4,311.4,414.9c0.1,1.2,1,2.1,2.2,2.1c0.9,0.1,2.7-0.2,2.7-1.4
		c0.3-15-11.7-27.4-26.7-27.6s-27.4,11.7-27.6,26.7c-0.1,5,1.2,9.9,3.7,14.2c6,9.9,17.5,15,28.9,12.9c12.5-2.5,21.6-13.4,21.7-26.2
		c-0.1-1.2-1.1-2.1-2.2-2.1C313.3,413.3,311.4,413.6,311.4,414.9z"></path><path class="st2" d="M397.8,358.6H357c-4.5,0-8.1,3.6-8.1,8.1c0,0,0,0,0,0v28.8H406v-28.8C406,362.2,402.4,358.6,397.8,358.6
		C397.9,358.6,397.8,358.6,397.8,358.6z"></path><path class="st0" d="M397.6,356.5h-40.1c-3.5-0.2-6.8,1.3-9,4c-1.9,2.4-2.1,5.1-2.1,8v27c0,1.3,1.6,2.1,2.7,2.1h57.1
		c1.2,0.1,2.2-0.8,2.3-2c0,0,0-0.1,0-0.1c0-9.6,0.2-19.2,0-28.7C408.3,360.9,403.3,356.6,397.6,356.5c-1.2-0.1-2.2,0.8-2.3,1.9
		c0,0.1,0,0.1,0,0.2c0.3,1.3,1.4,2.2,2.7,2.1c3.4,0.1,5.4,3,5.5,6.2c0,1.7,0,3.5,0,5.2v23.5l2.3-2.1h-57.1l2.7,2.1v-24.7
		c-0.1-1.7-0.1-3.4,0.1-5.1c0.6-2.9,3.2-5,6.2-4.9H398c1.2,0.1,2.2-0.8,2.3-2c0-0.1,0-0.1,0-0.2C400,357.3,398.9,356.4,397.6,356.5z
		"></path><line class="st3" x1="364.3" y1="359.8" x2="364.7" y2="395.5"></line><path class="st0" d="M362,358.9l0.4,31.3l0,4.4c0,1.5,4.5,3.4,4.5,1.8l-0.4-31.3l0-4.4C366.5,359.2,362,357.3,362,358.9z"></path><line class="st3" x1="377.4" y1="358.2" x2="378.2" y2="394.7"></line><path class="st0" d="M375,358.8l0.7,32l0.1,4.5c0,1.6,4.7,0.1,4.7-1.3l-0.7-32l-0.1-4.5C379.7,356,375,357.5,375,358.8L375,358.8z"></path><line class="st3" x1="392" y1="358.9" x2="391.8" y2="395.2"></line><path class="st0" d="M389.5,358.5l-0.2,31.7v4.5c0,1.9,4.9,2.5,4.9,0.8l0.2-31.7v-4.5C394.5,357.4,389.5,356.8,389.5,358.5z"></path><path class="st2" d="M283.6,330.7l-3.2-10.5c-0.3-0.8-1.1-1.3-2-1.2l-18.4,0.6l-2.6,0.1c-1,0-2.6,0.3-2.9,1.5s1.1,1.6,2,1.6
		l18.4-0.6l2.6-0.1l-2-1.2l3.2,10.5c0.3,1.1,1.7,1.3,2.7,1.1C282.2,332.5,284,331.8,283.6,330.7L283.6,330.7z"></path><path class="st2" d="M313.3,329.6l-3.5-10.5c-0.5-1.2-1.7-1.9-3-1.9l-20,1.4c-1.1,0.1-2.1,0.8-1.7,2c0.5,1.2,1.7,1.9,3,1.9l20-1.4
		l-2.9-1.9l3.5,10.5c0.5,1.2,1.7,1.9,3,1.9C312.6,331.6,313.8,330.8,313.3,329.6L313.3,329.6z"></path><circle class="st2" cx="326.9" cy="367.8" r="8"></circle><path class="st0" d="M332.5,367.3c0,2.8-1.7,5.3-4.3,6.4c-0.6,0.3-1.2,0.4-1.8,0.4c-0.5,0-1.1,0-1.6-0.2c0.6,0.1-0.1,0-0.2-0.1
		l-0.4-0.2c0.7,0.3-0.7-0.5-0.2-0.1c-0.6-0.3-1.1-0.8-1.4-1.3c-0.8-1-1.2-2.3-1.3-3.6c-0.1-1.4,0.3-2.8,1-4.1
		c0.7-1.2,1.6-2.1,2.8-2.7c0.5-0.3,1.1-0.5,1.6-0.6l0.5-0.1c0.7-0.1-0.2,0,0.2,0h0.6c0.5,0-0.2-0.1,0.3,0l0.6,0.1
		c-0.6-0.1,0.1,0,0.2,0.1s0.6,0.3,0.3,0.1s0.4,0.2,0.4,0.2c-0.4-0.2-0.1,0,0,0s0.4,0.3,0.6,0.5c-0.1-0.1-0.2-0.3,0,0l0.4,0.5
		C332,364.2,332.5,365.7,332.5,367.3c-0.1,1.7,4.8,3,4.7,0.9c-0.1-8.8-12.8-13.6-18.6-6.8c-2.5,3-2.8,7.2-0.8,10.5
		c2.5,3.8,7,5.9,11.5,5.2c4.5-0.6,7.8-4.4,7.8-8.9C337.3,366.5,332.5,365.2,332.5,367.3z"></path><circle class="st2" cx="424.9" cy="368" r="8"></circle><path class="st0" d="M430.5,368.8c0,2.2-1,4.4-2.7,5.9c-0.2,0.2-0.5,0.4-0.8,0.6s0.2,0,0.4-0.1c0.4-0.1,0.3-0.1,0,0
		c-0.3,0-0.7,0-1,0c-0.8-0.1-1.5-0.2-2.2-0.5c-1.4-0.6-2.6-1.5-3.4-2.7c-1.7-2.5-1.9-5.7-0.5-8.4c0.3-0.6,0.8-1.2,1.2-1.7
		c0.2-0.2,0.5-0.4,0.7-0.6c0.1-0.1,0.2-0.2,0.3-0.2c0.1,0,0.5-0.2,0.3-0.2c-0.3,0.1-0.6,0.2-0.9,0.3l0.8-0.1c0.7,0,1.5,0.1,2.2,0.3
		C428.3,362.4,430.5,365.4,430.5,368.8c0,0.4,2.3-0.3,2.5-0.4c0.4-0.1,2.2-0.6,2.2-1.2c0-3.6-2.5-6.8-6-7.8
		c-2.3-0.5-4.6-0.3-6.8,0.5c-2.2,0.6-4.2,1.7-5.8,3.4c-2.4,2.8-2.8,6.8-0.8,9.9c2.3,3.4,6.4,4.1,10.2,3.2c2.6-0.5,5.1-1.8,7-3.6
		c1.4-1.5,2.2-3.5,2.2-5.5c0-0.4-2.3,0.3-2.5,0.4C432.4,367.8,430.5,368.2,430.5,368.8z"></path><path class="st0" d="M179,339.6c0,12.1-0.4,24.2-0.5,36.3c0,2.1-0.1,4.2-0.1,6.3s4.4,4.2,4.4,1.5c0-12.1,0.3-24.2,0.5-36.2
		c0-2.1,0.1-4.2,0.1-6.3S179,336.8,179,339.6z"></path><path class="st0" d="M193.5,351.9h3.9c0.1,0-0.3-0.9-0.2-0.7c-0.3-0.5-0.6-1-0.9-1.5c-0.3-0.5-0.7-1-1.1-1.4
		c-0.1-0.2-0.4-0.5-0.6-0.5h-3.9c-0.1,0,0.3,0.9,0.2,0.7c0.3,0.5,0.6,1,0.9,1.5c0.3,0.5,0.7,1,1.1,1.4
		C193,351.6,193.2,351.9,193.5,351.9z"></path><path class="st0" d="M105.6,350.4h5c0.6,0,1.2-0.2,1.6-0.6c0.4-0.4,0.6-1,0.5-1.5c-0.2-1.3-1.4-2.3-2.7-2.3h-5
		c-0.6,0-1.2,0.2-1.6,0.6c-0.4,0.4-0.6,1-0.5,1.5C103.1,349.4,104.2,350.4,105.6,350.4L105.6,350.4z"></path><path class="st0" d="M91,341.6c-2.4,13.4-2.2,27.2,0.5,40.6c0.3,1.2,1.2,2.2,2.3,2.6c1,0.3,1.8-0.3,1.6-1.4
		c-2.6-13-2.8-26.5-0.5-39.6C95.3,342,91.4,339,91,341.6z"></path><path class="st2" d="M261.5,307.9l30.9-28.7c0.8-0.8-0.5-2.3-1.1-2.7c-0.8-0.6-2.1-1.1-2.9-0.3l-30.9,28.7
		c-0.8,0.8,0.5,2.3,1.1,2.7C259.4,308.2,260.6,308.7,261.5,307.9z"></path><path class="st2" d="M287.1,306l7.5-6.9c0.4-0.4,0.5-1,0.1-1.4c-0.2-0.2-0.4-0.3-0.7-0.3c-1.2-0.1-2.4,0.3-3.3,1.2l-7.5,6.9
		c-0.3,0.3-0.5,0.7-0.4,1.1c0.2,0.4,0.6,0.6,1,0.6C285,307.3,286.2,306.9,287.1,306L287.1,306z"></path><path class="st2" d="M198.1,312.2l7.4-8c0.7-0.8,0-2.1-0.6-2.8c-0.4-0.5-0.9-0.8-1.5-1c-0.4-0.1-0.9-0.2-1.2,0.1l-7.4,8
		c-0.7,0.8,0,2.1,0.6,2.8c0.4,0.5,0.9,0.8,1.5,1C197.2,312.4,197.8,312.5,198.1,312.2L198.1,312.2z"></path><path class="st2" d="M128.3,318.2c12.3-10.2,23.8-21.2,34.6-33c0.7-0.8-0.4-1.1-1-1.2c-0.9-0.1-2.7,0-3.4,0.8
		c-10.8,11.8-22.3,22.8-34.6,33c-0.8,0.7,0.5,1.1,1,1.2C126.1,319.1,127.3,318.9,128.3,318.2L128.3,318.2z"></path><path class="st2" d="M129.7,302.6c2.9-2.5,5.4-5.4,7.5-8.6c0.2-0.3-0.1-0.7-0.2-0.9c-0.3-0.5-0.8-0.9-1.3-1.2
		c-0.5-0.4-1-0.7-1.6-0.9c-0.2-0.1-0.8-0.2-0.9,0c-2,3.2-4.6,6.1-7.4,8.6c-0.2,0.2,0.2,0.8,0.2,0.9c0.4,0.5,0.8,0.9,1.3,1.2
		c0.5,0.4,1,0.7,1.6,0.9C129,302.8,129.4,302.8,129.7,302.6L129.7,302.6z"></path><path class="st2" d="M124.6,410.7c-3.4-0.8-6.9,1-8.1,4.3c-1.4,3.6,0.4,7.6,3,10.3c2.7,2.8,7.2,4.9,10.8,2.5c2.6-1.7,4-5,4.2-8
		c0.2-1.7-0.1-3.4-0.7-5c-0.8-1.9-2.4-3.5-4.3-4.4c-0.8-0.4-2.3-0.4-2.5,0.7s1,2.2,1.9,2.6c-0.6-0.3,0.1,0,0.2,0.1l-0.2-0.2
		c0.1,0.1,0.1,0.1,0.2,0.2c0.1,0.1,0.3,0.4,0.1,0.1s0.2,0.3,0.3,0.4c0.2,0.2-0.1-0.3,0,0c0.1,0.1,0.1,0.3,0.2,0.4
		c0.1,0.1,0.1,0.3,0.2,0.4c0.1,0.3-0.1-0.3,0,0s0.1,0.5,0.1,0.7s0.1,0.5,0.1,0.8s0,0.6,0,0.7c0,2.3-0.9,4.5-2.4,6.2
		c-0.6,0.7-1.5,1.2-2.4,1.3c-0.2,0-0.3,0-0.5,0c0.1,0,0.3,0.1-0.2,0c-0.2,0-0.3-0.1-0.5-0.1c0.1,0,0.3,0.1-0.1,0
		c-0.2-0.1-0.3-0.1-0.4-0.2c0.4,0.2,0,0-0.1,0l-0.4-0.3c-0.6-0.4,0.3,0.3-0.2-0.2c-0.8-0.7-1.5-1.6-1.9-2.6c-0.5-1-0.6-2.2-0.4-3.3
		c0.2-1.1,0.8-2.2,1.8-2.9c0.4-0.4,1-0.7,1.5-0.8l0.4-0.1c0.3-0.1-0.1,0,0.3,0h0.4c-0.4,0,0.1,0,0.2,0.1c0.9,0.2,2.1-0.2,2-1.3
		C126.9,411.9,125.9,411,124.6,410.7L124.6,410.7z"></path><path class="st2" d="M283.5,405.1c-1.5,0.5-3.2,1.1-4.2,2.4c-0.9,1.4-1.4,2.9-1.5,4.6c-0.5,4.1,0.9,8.1,3.9,11
		c2.3,2.1,5.7,2.5,8.4,0.8c1.4-0.9,2.7-2,3.6-3.5c1-1.3,1.7-2.9,2-4.5c0-1.1-0.3-2.3-0.8-3.3c-0.6-1.2-1.2-2.4-2-3.5
		c-1.1-1.7-2.7-3.6-4.9-4c-0.6-0.1,0.3,1.6,0.4,1.8c0.3,0.6,0.6,1.1,1,1.6c0.2,0.2,0.5,0.8,0.8,0.8c0.6,0.1,1.2,0.3,1.7,0.6
		c0.2,0.1,0.4,0.3,0.6,0.5c0.1,0.1,0.4,0.3,0.1,0.1c0.3,0.2,0.1,0.2,0,0c-0.2-0.4,0-0.1,0,0c-0.1-0.3,0.1,0.2,0.1,0.3
		c0.1,0.7,0,1.4-0.2,2c-0.9,2.5-2.6,4.7-4.8,6.2c-2,1.4-4.7,1.6-6.9,0.6c-0.3-0.1-0.5-0.3-0.7-0.5c-0.3-0.2-0.3-0.3,0,0.1
		c0.1,0.2,0.6,1.3,0.4,0.7c-0.1-0.3-0.2-0.7-0.2-1c-0.1-1.2-0.1-2.5,0.1-3.7c0.1-1.5,0.7-3,1.6-4.1c1.1-1,2.5-1.6,3.9-2
		c0.4-0.1-0.7-2.2-0.9-2.4c-0.3-0.5-0.6-1-1-1.5C284,405.4,283.7,405,283.5,405.1L283.5,405.1z"></path><path class="st0" d="M100.5,445.1h58.8c0.8,0-0.7-1.6-0.8-1.8c-0.6-0.6-1.7-1.7-2.6-1.7H97.1c-0.8,0,0.7,1.6,0.8,1.8
		C98.5,444.1,99.6,445.1,100.5,445.1z"></path><path class="st0" d="M258.1,443.3h46h37.7h32.2c5.2,0,10.4,0,15.7,0h0.3c1,0,0.1-1-0.3-1.3c-0.8-0.8-1.9-1.4-3-1.6h-12.9h-30.9
		h-37.6h-32.9c-5.7,0-11.4,0-17.1,0h-0.4c-1,0-0.1,1,0.3,1.3C255.9,442.5,256.9,443,258.1,443.3L258.1,443.3z"></path><path class="st0" d="M180.3,443.7h58.8c1.3,0.1,2.5-0.8,2.9-2c0.3-1-0.3-2-1.2-2.3c-0.1,0-0.3-0.1-0.4-0.1h-58.8
		c-1.3-0.1-2.5,0.8-2.9,2c-0.3,1,0.3,2,1.2,2.3C180,443.7,180.2,443.7,180.3,443.7L180.3,443.7z"></path><path class="st0" d="M167.9,258.7c-0.5,0.1,0.5-0.1-0.2,0s-1.1,0.3-1.7,0.4c-1.8,0.3-3.6,0.2-5.4-0.1c-0.5-0.1-1.1-0.2-1.5-0.5
		c0,0,0.2,0.2,0,0s-0.1-0.3-0.1-0.5c0.2-1.9,1.3-3.8,2.1-5.5c3.8-7.2,8.1-14,12.9-20.6c5.9-8.4,12-16.6,18.7-24.4
		c2.9-3.4,5.9-6.8,9.1-9.9c1.4-1.4,2.8-2.7,4.2-3.9l1-0.8l0.5-0.4l0.2-0.2c0.6-0.5,1.2-0.9,1.9-1.3l0.4-0.3c0.4-0.3-0.3,0.2,0,0
		l0.9-0.5c0.5-0.3-0.5,0.2-0.1,0c0.1,0,0.2-0.1,0.4-0.2c0.4-0.2,0.1,0-0.1,0.1c0.1-0.1,0.3-0.1,0.4-0.2c0.4,0-0.5,0-0.1,0
		c0.1,0,0.2,0,0.3-0.1c0.9-0.2,1.7-0.3,2.6-0.4c1.6-0.2,3.3-0.2,4.9-0.1c3.1,0.3,6.4,1.3,8.2,4.1c0.1,0.1,0.1,0.3,0.2,0.4
		c0.4,1,5-0.9,4.6-2c-0.8-2.1-3.4-3.5-5.4-4.2c-3-0.9-6.2-1.1-9.3-0.7c-2.4,0.2-4.8,0.7-7,1.6c-3.2,1.6-6.2,3.6-8.9,6.1
		c-3.4,3.1-6.6,6.3-9.6,9.8c-7.1,8.1-13.8,16.5-20,25.3c-5.4,7.3-10.3,14.9-14.7,22.9c-1.3,2-2.2,4.2-2.8,6.5
		c-0.1,0.6-0.2,1.2,0.3,1.6c0.9,0.7,2.9,0.9,4,1c1.9,0.1,3.8,0,5.7-0.4c1-0.2,1.9-0.4,2.8-0.7c0.7-0.2,2.5-0.9,2.6-1.7
		S168.3,258.7,167.9,258.7L167.9,258.7z"></path><path class="st0" d="M196.8,258.2c0.3,5,5.6,6.5,9.8,4.9c1.1-0.3,2.1-1,2.7-2.1c0.3-0.9,0.6-1.8,0.6-2.7c0.2-2.7,0.2-5.3-0.1-8
		c-0.3-3.8-0.9-7.6-1.5-11.4c-1.4-8.7-3.5-17.4-6.1-25.8c-2.1-6.9-4.6-14.3-8.9-20.1c-1.5-2.1-3.5-4-6-4.7c-2.6-0.7-5.4,0.1-7.2,2
		c-0.5,0.5-1,1.1-1.4,1.7c-0.7,1,0.9,1.9,1.6,2.1c1.1,0.4,2.4,0,3.1-0.9c0-0.1,0.3-0.4,0.2-0.2l0.1-0.2c0.2-0.2,0.4-0.4,0.6-0.6
		s0.4-0.3,0.5-0.5c0.4-0.4-0.2,0.1,0.2-0.2c0.2-0.1,0.4-0.2,0.5-0.3c-0.4,0.3-0.2,0,0.1,0s-0.6,0.1-0.2,0h0.2h-0.3h0.3
		c-0.1,0-0.6-0.2,0,0s-0.6-0.3,0.1,0c0.3,0.1,0.6,0.4,0.1,0c0.2,0.1,0.4,0.2,0.6,0.4s0.4,0.3,0.6,0.5c0.5,0.4-0.1-0.2,0.3,0.3
		c0.4,0.4,0.8,0.8,1.1,1.3c1.7,2.2,3.1,4.6,4.1,7.1c1.5,3.3,2.8,6.7,3.9,10.2c2.5,7.8,4.6,15.8,6.1,23.9c1.4,6.6,2.1,13.2,2.3,19.9
		c0,1.1,0,2.2-0.1,3.3c0,0.4-0.1,0.8-0.2,1.2c0,0.1-0.2,0.6-0.1,0.3s-0.1,0.2-0.1,0.3s-0.1,0.2-0.2,0.4c-0.1,0.4-0.1,0.1,0,0
		c-0.3,0.3,0.1-0.1,0.2-0.1c-0.2-0.1-0.9,0.4-1.1,0.4c-0.2,0.1-0.4,0.1-0.5,0.1c-0.4,0.1,0.3,0-0.1,0s0,0,0.1,0
		c-0.4-0.2,0.2,0.2-0.2,0c-0.1,0-0.4-0.2,0,0c-0.1-0.1-0.2-0.1-0.3-0.2c0.3,0.4-0.4-0.6-0.3-0.5s-0.2-0.5-0.3-0.8
		c-0.1-0.2-0.1-0.5-0.1-0.7c0.1,0.3,0,0.3,0,0.1c-0.1-1.2-1.4-1.7-2.4-1.8c-0.8,0-2.7,0.3-2.6,1.4L196.8,258.2z"></path><path class="st1" d="M50.5,408.5c-1.9-0.1-3.8-0.1-5.7,0.1c-1.7,0.2-3.4,0-4.9-0.7c-0.2-0.1-0.3-0.3-0.5-0.4
		c-0.4-0.2,0.5,0.2,0.2,0.4c0-0.1,0-0.3,0-0.4c0-0.3,0.1-0.7,0.2-1c0.6-1.1,1.7-1.8,3-1.7c0.3,0,0.6,0,0.9,0.1
		c0.2,0,0.6,0.3,0.8,0.3s-0.1-0.3-0.3-0.5c-0.3-0.2,0-0.2-0.1-0.1s0.1,0.5,0.2,0.6c0.2,1.4-0.1,2.9-0.7,4.2
		c-1.2,2.2-3.2,3.8-5.5,4.5c-2.6,0.9-5.4,0.6-7.7-0.9c-0.7-0.5-1.2-0.2-0.9,0.7c0.4,1.1,1.1,2.1,2.1,2.9c2.7,2,6.3,2.5,9.5,1.4
		c3.3-1,5.8-3.8,6.5-7.2c0.3-2.3-0.3-4.7-1.7-6.6c-1.2-1.7-2.8-3.3-5-3.5c-1.6-0.3-3.2,0.5-4,2c-0.9,2,0.4,4.4,1.6,6
		c1.4,2.1,3.5,3.5,5.9,4c2.9,0.5,5.8-0.4,8.8,0c0.9,0.1-0.1-1.8-0.2-2C52.3,409.9,51.4,408.6,50.5,408.5L50.5,408.5z"></path></g><g id="bird"><path class="st0" d="M108.1,111.3c-0.5-1.7,0.8-3.2,2.4-3.8c1.8-0.7,3.7,0.1,5.3,1.1c1.7,1.1,3.2,2.5,4.2,4.3
		c0.6,1.2,0.4,3.1-1.2,3.3l2.7,1.2c-0.1-0.1-0.4-0.5-0.3-0.4s0,0.3,0-0.1c0-0.3,0-0.5,0.1-0.8c0.2-0.7,0.6-1.2,1.2-1.7
		c1.7-1.3,4.3-0.9,6.3-0.8c1,0.1,1.9-0.7,2-1.8c0-0.1,0-0.3,0-0.4c-0.2-1.3-1.4-2.3-2.7-2.4c-4-0.3-8.6-0.2-10.8,3.8
		c-0.9,1.6-0.9,3.5-0.2,5.2c0.4,1.2,1.4,2.2,2.7,2.5c1.1,0.1,2.1-0.2,3-0.8c3.8-2.8,2.3-7.9-0.3-10.9s-6.6-6.2-11-6.3
		s-9,3.8-7.8,8.5c0.3,1.3,1.3,2.2,2.6,2.4c1,0.1,1.9-0.7,2-1.7C108.2,111.5,108.2,111.4,108.1,111.3L108.1,111.3z"></path><path class="st0" d="M267.9,162.1c0-0.2,0-0.4,0.1-0.6c-0.1,0.2,0,0.2,0.1-0.1c-0.1,0.2-0.1,0.2,0.1,0c-0.5,0.4,0.7-0.3,0.1-0.1
		c0.1,0,0.7-0.2,0.3-0.1c0.1,0,1,0,0.6-0.1c0.2,0,0.4,0,0.6,0.1c0.5,0.2,0.9,0.6,1.2,1c0.8,1.2,1.3,2.6,1.5,4.1
		c0.1,0.8,0.2,1.5,0.1,2.3c0,0.2-0.3,0.6-0.2,0.8c0-0.4,0.9-0.6,1.3-0.6l1.8,1.9c-0.3-2.1,1.3-4.1,3.4-4.3c0.2,0,0.3,0,0.5,0
		c2.9,0,5.2,2.3,6.8,4.5s5.9-0.1,4.3-2.5c-2.6-3.7-6.9-6.8-11.6-6.2c-4.3,0.5-8.9,4.2-8.3,8.9c0.1,1,0.8,1.8,1.8,1.9
		c3.3,0.7,5.4-2.7,5.3-5.6c-0.1-2.7-0.6-5.8-2.4-7.9c-1.8-2.2-4.7-3.1-7.4-2.4c-2.5,0.6-4.8,2.6-4.8,5.3S267.9,164.7,267.9,162.1
		L267.9,162.1z"></path><path class="st0" d="M305.1,64.1c0.2-1.4,0.8-2.8,1.7-3.9c0.4-0.5,0.9-1,1.4-1.3c0.2-0.2,0.4-0.3,0.7-0.4c0.4-0.2,0.8-0.2-0.2-0.3
		s-0.7-0.2-0.5,0.1c0.2,0.6,0.7,1.2,1,1.9c0.3,0.7,0.5,1.4,0.6,2.2c0.3,1.6,0.2,3.3-0.3,4.9l3.6-1.2h-0.1c0.1,0.1,0.1,0-0.1-0.1
		c0,0.2-0.2-0.5-0.2-0.4c-0.1-0.4-0.1-0.8,0.1-1.2c0.2-0.5,0.6-0.8,1.1-1c0.4-0.2,0,0,0.4-0.1s0.3-0.1,0.1,0c0.2,0,0.3,0,0.5,0
		c-0.5,0,0.4,0.1,0.5,0.1c-0.4-0.1,0.3,0.1,0.3,0.1c0.2,0.1,0.4,0.1,0.6,0.3c0.3,0.2,0.6,0.3,0.8,0.5c0.7,0.6,1.3,1.5,1.5,2.5
		c0.3,1.1,1.4,1.8,2.6,1.6c0.8,0,2.7-0.7,2.4-1.8c-1-4.6-5.8-7.3-10.4-6.5c-2.2,0.3-4.7,1.7-5.5,4c-0.7,2.2,0.6,4.5,2.8,5.2
		c0,0,0,0,0,0c1.1,0.4,3.2,0.2,3.6-1.2c0.7-2.2,0.8-4.6,0.2-6.9c-0.5-2.2-1.5-5-3.8-5.8c-2.7-1.1-5.5,0.7-7.4,2.5
		c-1.6,1.5-2.6,3.5-3,5.7c-0.2,1.2,0.7,1.9,1.8,2C303,65.6,304.9,65.3,305.1,64.1L305.1,64.1z"></path><path class="st0" d="M228.5,106.3c-0.1-1.2,0.5-2.5,1.5-3.2l0.4-0.3l0.3-0.1c-0.1,0.1-0.2,0.1,0,0l0.5-0.2c0.4-0.2-0.2,0,0.2,0
		c0.1,0,0.7,0,0.2,0c0.2,0,0.7,0.2,0.1,0c0.1,0,0.6,0.3,0.2,0.1s0.5,0.3,0.1,0s0.1,0.1,0.1,0.1c0.4,0.3-0.2-0.3,0.1,0.1
		c0.1,0.2,0.2,0.3,0.3,0.4c-0.1-0.2,0-0.1,0,0.1s0.1,0.3,0.2,0.5s0.1,0.4,0,0.1c0.1,0.3,0.1,0.7,0.1,1c0,0.2,0,0.4,0,0.5
		c0-0.2,0,0,0,0.2c-0.1,0.3-0.2,0.6-0.3,0.9c0,0-0.2,0.5-0.1,0.2c-0.1,0.2-0.2,0.3-0.3,0.4c-0.1,0.1-0.2,0.3-0.3,0.4
		c0.2-0.2-0.1,0.1-0.2,0.1l3.9,0.8c-0.1-0.1-0.2-0.2-0.3-0.4v0.1l-0.1-0.2c-0.1-0.6,0,0.2-0.1-0.1c0-0.1,0-0.3,0-0.4
		c0-0.2,0-0.4,0.1-0.6c0-0.2,0.1-0.3,0.1-0.4c0-0.1,0.2-0.4,0.1-0.2c0.2-0.3,0.4-0.5,0.6-0.8c0.2-0.2,0,0,0.1-0.1
		c0.1-0.1,0.3-0.2,0.4-0.2c-0.3,0.2,0.1,0,0.2,0c0.4-0.1-0.5,0.1,0.2,0c0.4-0.1-0.1,0,0.1,0s0.6,0.1,0.1,0c0.1,0,0.3,0.1,0.4,0.1
		c0.6,0.2-0.4-0.2,0.2,0.1c0.1,0.1,0.3,0.1,0.4,0.2c-0.4-0.3,0.2,0.2,0.2,0.2s0.2,0.2,0.1,0.1c0.2,0.2,0.3,0.3,0.4,0.5
		c0.2,0.2,0.3,0.5,0.4,0.8c0.6,1.5,0.7,3.2,0.3,4.8c-0.1,1.2,0.7,2.2,1.9,2.4c0.8,0.2,2.7,0.3,2.9-0.9c0.6-2.5,0.3-5.2-0.8-7.5
		c-1.3-2.4-3.7-4-6.4-4.4c-2.3-0.4-4.6,0.5-6,2.4c-1.2,1.8-1.1,4.3,0.3,5.9c0.9,1,2.6,1.7,3.9,0.8c3.9-2.7,2.9-8.7-1-10.9
		c-2.4-1.3-5.2-1.3-7.5,0.2c-2,1.2-3.2,3.4-3,5.7c0.3,1.2,1.3,2,2.6,2.1C227.1,108,228.6,107.6,228.5,106.3L228.5,106.3z"></path></g></svg>