<svg transform="scale(1)" version="1.1" id="Layer_1" xmlns="http://www.w3.org/2000/svg" xmlns:xlink="http://www.w3.org/1999/xlink" x="0px" y="0px" viewBox="0 0 500 500" xml:space="preserve" class="show_show__wrapper__graphic__5Waiy "><title>React</title><style type="text/css">
	.st0{fill:#59BE4C;}
	.st1{fill:#FFFFFF;}
	.st2{fill:#000005;}
</style><g id="gear"><path class="st0" d="M148.5,342.9c3.8-0.2,7.6,0,11.3,0.7c0.7,0.1,2,0.3,2.6-0.4l4-5c0.7-1.1,1.8-1.9,3.1-2.1
		c0.6,0,1.1,0.2,1.6,0.5l6.9,3.4c0.8,0.3,1.6,0.8,2.2,1.4c1,1.3,1.4,3,1,4.6c-0.5,2.2-1.1,4.5-1.6,6.7c-0.1,0.4,0.3,0.8,0.5,1
		c3,2.7,5.7,5.8,8,9.1c0.8,0.9,2.1,1.3,3.3,1.1l6.3-0.7c0.9-0.2,1.8,0.1,2.4,0.8c0.6,0.7,1.1,1.6,1.3,2.5l2.5,7.2
		c0.4,0.9,0.6,1.9,0.7,2.9c0,1.8-0.9,3.5-2.4,4.4c-1.9,1.2-3.9,2.4-5.8,3.6c-0.3,0.2-0.5,0.5-0.4,0.9c0.2,4.1,0,8.2-0.8,12.2
		c0,0.4,0.2,0.8,0.5,1l5.2,4.2c2.2,1.8,2.4,4.2,1.2,6.7l-3.5,7.2c-0.9,1.8-2.1,4.4-4.5,3.9s-4.7-1.1-7-1.7c-0.9-0.3-1.8-0.1-2.6,0.4
		c-2.7,3.1-5.8,5.8-9.2,8.1c-0.3,0.2-0.5,0.5-0.4,0.9c0.4,4.2,2.2,10.5-3.1,12.3c-2.3,0.8-4.6,1.6-6.9,2.3c-0.7,0.3-1.4,0.5-2.2,0.7
		c-1.4,0.2-2.3-0.8-3-1.9c-1.2-1.8-2.3-3.7-3.4-5.6c-0.6-1-2.3-1.2-3.2-1.1c-3.8,0.2-7.6,0-11.3-0.7c-0.7-0.1-2-0.3-2.6,0.4
		c-1.3,1.6-2.6,3.2-3.9,4.8c-0.8,1.1-1.9,1.9-3.2,2.1c-0.7,0.1-1.3-0.1-1.9-0.5l-6.6-3.2c-0.8-0.3-1.6-0.9-2.2-1.5
		c-1.1-1.4-1.4-3.2-1-4.9c0.5-2.1,1-4.2,1.5-6.4c0.1-0.4-0.3-0.8-0.5-1c-3-2.7-5.7-5.8-8-9.1c-0.8-0.9-2-1.3-3.2-1.1l-6.2,0.7
		c-2.2,0.2-3.2-1.5-3.9-3.4l-2.4-7.1c-0.4-1-0.6-2-0.6-3.1c0.1-1.8,1.1-3.4,2.6-4.4c1.9-1.2,3.8-2.3,5.7-3.5
		c0.3-0.2,0.5-0.5,0.4-0.9c-0.2-4.1,0-8.2,0.8-12.2c0-0.4-0.2-0.8-0.5-1c-1.4-1.1-2.8-2.2-4.2-3.4c-2.5-2.1-3.1-5.7-1.6-8.5
		c0.8-1.8,1.8-3.6,2.7-5.4c1.1-2.2,3.1-4.5,5.9-4.3c2,0.3,4,0.8,5.9,1.4c0.9,0.3,1.8,0.1,2.6-0.4c2.7-3.1,5.8-5.8,9.2-8.1
		c0.3-0.2,0.5-0.5,0.4-0.9c-0.2-2.1-0.5-4.2-0.7-6.3c-0.4-2.6,1.1-5.1,3.6-6c2.3-0.8,4.7-1.6,7-2.4c0.7-0.3,1.5-0.6,2.3-0.7
		c1.2-0.2,2.1,0.8,2.7,1.8c1.2,1.9,2.4,3.8,3.6,5.8c0.6,0.6,1.4,1,2.3,1.1c0.5,0.1,1.9,0.2,2.2-0.5l0,0c0.9-1.8-3.9-3.1-4.6-1.6l0,0
		l4.5,0.6c-1.2-1.9-2.3-3.9-3.6-5.8c-2.3-3.6-7.3-4.9-11.3-3.6c-2.5,0.8-5,1.7-7.6,2.6c-1.1,0.3-2.2,0.8-3.2,1.4
		c-1.8,1.2-2.9,3.3-3,5.5c0.1,2.6,0.4,5.2,0.8,7.8l0.4-0.9c-3.6,2.4-6.9,5.3-9.8,8.6l2.6-0.4c-2-0.5-4-1.1-6-1.4
		c-4.3-0.7-8.8,0.9-10.8,5c-0.9,1.9-1.9,3.8-2.8,5.8c-1.6,3.1-1.3,6.9,1,9.6c1.7,1.8,3.6,3.4,5.7,4.8l-0.5-1
		c-0.8,4.3-1.1,8.6-0.8,12.9l0.4-0.9c-1.9,1.1-3.8,2.3-5.6,3.5c-3,1.9-4.3,5.6-2.9,8.9l2.6,7.6c1.4,3.9,5.1,6.5,9.2,6.4
		c2.6-0.1,5.1-0.4,7.6-0.8l-3.2-1.1c2.4,3.6,5.4,6.9,8.7,9.8l-0.5-1c-0.5,2.1-1.1,4.2-1.5,6.4c-0.8,3.8,1.4,7.1,4.7,8.8
		c2.4,1.2,4.8,2.3,7.1,3.5c3.7,1.8,8.2,2.4,11.5-0.5c1.9-1.7,3.3-4,4.9-5.9l-2.6,0.4c4.6,0.9,9.2,1.2,13.9,0.9l-3.3-1.1
		c1.1,1.9,2.3,3.8,3.4,5.6c2.4,3.6,7.4,5,11.5,3.7c2.5-0.8,5-1.7,7.4-2.5c1.2-0.3,2.3-0.8,3.3-1.5c1.8-1.3,2.9-3.4,2.9-5.6
		c-0.1-2.5-0.4-5.1-0.8-7.6l-0.4,0.9c3.6-2.4,6.9-5.3,9.8-8.6l-2.6,0.4c2.3,0.5,4.6,1.1,6.9,1.6c3.9,0.9,7.5-0.3,9.3-4
		c1.3-2.5,2.5-5.1,3.8-7.6c0.5-0.9,0.9-1.8,1.2-2.8c0.4-2.4-0.6-4.8-2.5-6.3c-1.9-1.6-3.8-3.1-5.7-4.6l0.5,1
		c0.8-4.3,1.1-8.6,0.8-12.9l-0.4,0.9c1.9-1.2,3.9-2.3,5.8-3.5c3.1-2,4-5.3,2.8-8.7l-2.7-7.8c-0.4-1.3-1.1-2.5-2-3.5
		c-2-1.9-4.6-2.9-7.3-2.8c-2.5,0.1-5,0.5-7.5,0.8l3.3,1.1c-2.5-3.6-5.4-6.9-8.7-9.8l0.5,1c0.5-2.2,1.1-4.5,1.6-6.7
		c0.8-3.8-1.4-6.8-4.6-8.4L174,335c-3.7-1.8-8.3-2.5-11.5,0.7c-1.8,1.8-3.2,3.9-4.8,5.9l2.6-0.4c-4.6-0.9-9.2-1.2-13.9-0.9
		c-0.9,0.1-1.8,0.6-1.2,1.5S147.5,342.9,148.5,342.9z"></path><path class="st0" d="M140.8,363.2c-10.7,3.7-18.5,13.7-18.6,25.2c-0.1,12,7.9,22.5,19.2,26.4c11.1,3.8,23.9,1.1,31.6-8
		c7-8.4,8.3-20.1,3.3-29.8c-5.9-11.4-18.9-17.1-31.4-14.9C143.5,362.4,142.1,362.7,140.8,363.2c-0.9,0.3-1.2,1-0.4,1.7
		c1,0.8,2.3,1,3.5,0.7c10-3.7,21.2,0.3,26.6,9.5c5.3,8.4,5.2,19.1-0.1,27.5c-5.2,8-15,12.9-24.6,10.9c-10.2-2.1-17.5-11.2-18.6-21.4
		c-1.1-11.6,5.7-22.4,16.7-26.4c0.9-0.3,1.2-1.1,0.4-1.7C143.3,363.1,142,362.9,140.8,363.2z"></path><path class="st0" d="M151.1,459c9.8,1.2,19.6-0.2,28.6-4.2c0.4-0.2-1.6-0.6-1.7-0.6c-1-0.2-2.1-0.2-3.1,0
		c-7.4,3.5-15.6,4.9-23.8,4.1c-0.3,0-2.5-0.3-2.5,0.1S151,459,151.1,459L151.1,459z"></path><path class="st0" d="M191.3,450c1.6-0.7,3.1-1.7,4.5-2.9c0.7-0.6,1.4-1.3,2-2.1c0.6-0.8,1.2-1.6,1.6-2.5c0.2-0.6,0.2-1.2,0-1.8
		c-0.2-0.6-0.7-1.1-1.3-1.5c-0.5-0.3-1.2-0.4-1.8-0.2l-0.5,0.3c-0.3,0.2-0.6,0.5-0.7,0.9l-0.1,0.1l0.3-0.5c-0.8,1.3-1.7,2.5-2.8,3.5
		l0.4-0.4c-1.1,1.1-2.4,1.9-3.8,2.6l0.5-0.2h-0.1c-0.6,0.2-1,0.6-1.3,1.2c-0.2,0.6-0.2,1.2,0,1.8c0.2,0.6,0.7,1.1,1.3,1.5
		C190.1,450.1,190.7,450.1,191.3,450L191.3,450z"></path><path class="st0" d="M347.7,52.3c2.4-0.2,4.8,0,7.2,0.5l2.5-3.1c1-1.2,2.7-1.6,4.1-0.9l5.1,2.5c1.4,0.7,2.2,2.3,1.8,3.8l-0.9,3.9
		c1.8,1.6,3.4,3.4,4.8,5.4l3.9-0.4c1.6-0.2,3.1,0.8,3.6,2.3l1.8,5.3c0.5,1.5-0.1,3.2-1.5,4l-3.4,2.1c0.2,2.4,0,4.8-0.5,7.2l3.3,2.7
		c1.1,0.9,1.5,2.5,0.8,3.8l-2.7,5.5c-0.6,1.3-2.1,2-3.5,1.7l-4.1-1c-1.6,1.8-3.4,3.4-5.4,4.8l0.4,3.8c0.2,1.7-0.8,3.3-2.5,3.8
		l-5,1.7c-1.6,0.5-3.4-0.1-4.2-1.5l-2-3.2c-2.4,0.2-4.8,0-7.2-0.5l-2.4,2.9c-1.1,1.3-2.9,1.7-4.5,1l-4.7-2.3
		c-1.5-0.8-2.3-2.5-1.9-4.1l0.9-3.7c-1.8-1.6-3.4-3.4-4.8-5.4l-3.8,0.4c-1.7,0.2-3.2-0.8-3.8-2.4l-1.7-5c-0.5-1.6,0.1-3.3,1.5-4.2
		l3.3-2c-0.2-2.4,0-4.8,0.5-7.2l-2.5-2c-1.6-1.3-2.1-3.6-1.2-5.4l1.8-3.6c0.9-1.9,3-2.8,5-2.4l3.1,0.7c1.6-1.8,3.4-3.4,5.4-4.8
		L334,53c-0.2-1.6,0.8-3.1,2.4-3.7l5.2-1.8c1.5-0.5,3.2,0.1,4.1,1.5L347.7,52.3L347.7,52.3z M344.7,65.4c-7.8,2.7-12,11.2-9.3,19
		s11.2,12,19,9.3c7.8-2.7,12-11.2,9.3-19c-0.5-1.4-1.2-2.7-2.1-4C357.8,65.4,350.9,63.3,344.7,65.4z"></path><path class="st0" d="M298.3,71.7c0,21.3,13.5,41.4,32.5,50.6c20.1,9.7,44.6,5.9,62.5-6.8c4.5-3.2,8.5-6.9,12-11.2
		c3.6-4.5,6.5-10.8,3.2-16.3c-1.3-2.3-3.6-4-6.2-4.5c-2.7-0.3-5.5,0.7-7.4,2.7c-3.6,3.8-4.2,9.4-4,14.4c0.5,10.2,5.6,20.7,14.8,25.6
		c8.5,4.5,19.7,2.5,26.4-4.3c3.4-3.2,5.3-7.6,5.5-12.2c0.1-2.8-0.8-5.5-2.6-7.7c-1.9-2.1-4.8-2.8-7.4-1.8c-2.5,0.9-4.8,3.2-4.7,6
		s3,5,5.2,6.5c7,4.5,15.9,4.9,23.3,1.1c1.1-0.4,1.7-1.7,1.3-2.8s-1.7-1.7-2.8-1.3c-0.2,0.1-0.4,0.2-0.6,0.3c-3.9,2-8.3,2.5-12.5,1.4
		c-2.1-0.5-4.2-1.4-6-2.6c-0.8-0.6-1.6-1.3-2.4-2c-0.6-0.6-0.9-1.2-0.6-1.7c0.7-1,2.1-1,3.2,0c1.3,1.5,1.9,3.4,1.7,5.3
		c-0.2,3.5-1.8,6.7-4.4,9c-5.6,5.1-13.8,6.1-20.5,2.5c-7.5-4.3-11.5-13.1-12.1-21.5c-0.3-3.6-0.1-8.3,2.3-11.1
		c0.3-0.3,0.6-0.6,0.9-0.8c0,0,0.5-0.2,0.7-0.3c0.8-0.2,1.6-0.2,2.3,0.2c1.7,1,2.9,2.7,3.1,4.7c0.8,4.7-3.4,9.2-6.4,12.2
		c-3.2,3.3-6.8,6.3-10.8,8.7c-15.5,9.7-35.8,12.6-52.8,5c-16.3-7.3-28.8-23-31.4-40.8c-0.3-2.2-0.5-4.4-0.5-6.6
		C303.2,68.5,298.3,68.9,298.3,71.7L298.3,71.7z"></path><path class="st0" d="M305.8,56.2c1.4-5.6,5.2-10.4,10.3-13.1c0.4-0.2-2-4.6-2.5-4.3c-5.2,2.7-9,7.6-10.4,13.3
		c-0.1,0.2,0.3,0.9,0.4,1.1c0.3,0.6,0.6,1.1,0.9,1.7c0.2,0.4,0.5,0.8,0.9,1.2C305.5,56.3,305.7,56.5,305.8,56.2z"></path></g><g id="board"><rect class="st1" x="102.8" y="67.9" transform="matrix(0.2746 -0.9615 0.9615 0.2746 -71.33 419.4037)" width="279" height="378.1"></rect><path class="st2" d="M386.7,441.2l-9.7-2.8l-26.5-7.6l-39-11.1L263.6,406l-52.1-14.9L158.6,376l-49.3-14l-41.5-11.9l-30-8.6
		c-4.7-1.3-9.4-3.1-14.2-4c-0.2,0-0.4-0.1-0.6-0.2l1.6,1.8l7.6-26.8l18.4-64.3l22.1-77.2l19.2-67.1l6.2-21.9c1-3.4,2.4-7,3-10.5
		c0-0.2,0.1-0.3,0.1-0.5L98,72.8l9.7,2.8l26.5,7.6l39,11.1l47.8,13.7l52.1,14.9L326,138l49.3,14l41.5,11.9l30,8.6
		c4.7,1.3,9.4,3.1,14.2,4c0.2,0,0.4,0.1,0.6,0.2l-1.6-1.8l-7.6,26.8L434,265.9l-22.1,77.2l-19.2,67.1l-6.2,21.9c-1,3.5-2.3,7-3,10.5
		c0,0.2-0.1,0.3-0.1,0.5c-0.7,2.5,4.3,2.2,4.9-0.1l7.6-26.8l18.3-64.2l22.1-77.2l19.2-67.1l6.2-21.9c1-3.5,2.3-7,3-10.5
		c0-0.2,0.1-0.3,0.1-0.5c0.3-1-0.9-1.6-1.6-1.8l-9.7-2.8l-26.5-7.6l-39-11.1l-47.8-13.7l-52.1-14.9l-52.9-15.1l-49.3-14.1
		l-41.5-11.8l-30-8.6c-4.7-1.3-9.4-2.8-14.2-4c-0.2-0.1-0.4-0.1-0.6-0.2c-1.4-0.3-2.8,0.5-3.3,1.9l-7.6,26.8L70.4,162l-22.1,77.3
		l-19.2,67.1l-6.3,21.9c-1,3.5-2.3,7-3,10.5c0,0.1-0.1,0.3-0.1,0.5c-0.3,1,0.9,1.6,1.6,1.8l9.7,2.8l26.5,7.6l39,11.1l47.8,13.7
		l52.2,14.9l52.9,15.1l49.3,14.1l41.5,11.8l30,8.6c4.7,1.4,9.4,2.9,14.2,4l0.6,0.2C387.4,445.6,389.8,442.1,386.7,441.2z"></path><path class="st2" d="M256.6,209.9c-14.3-3.1-29.2-0.1-41.1,8.3c-12.4,8.9-19.9,23-20.4,38.2c-0.2,9.7,2.4,19.2,7.6,27.4
		c0.7,1.1,3.3,0.7,4.2,0.1l13.2-9.3l20.3-14.3c1.4-0.8,2.7-1.8,4-2.8c0.4-0.4,0.6-1,0.7-1.5l0.9-3.1l6.7-23.5
		c1.7-6,3.6-11.9,5.1-17.9l0.1-0.3c0.5-1.8-4.4-1.7-4.9-0.1l-4.4,15.5l-7.1,24.7l-1.6,5.7l0.6-0.6l-12.6,8.9l-20,14.1l-4.6,3.3
		l4.2,0.1c-8.7-13.7-9.7-30.8-2.9-45.5c5.6-11.8,15.9-20.6,28.4-24.3c7-2,14.3-2.1,21.4-0.6c1.2,0.3,2.4,0,3.4-0.8
		C258.4,210.5,257.4,210,256.6,209.9z"></path><path class="st0" d="M258,209c-1.3-0.4-2.6-0.7-3.9-1c-0.8-0.2-2.9-0.2-3.2,0.9l-4.3,14.9l-7,24.4l-1.2,4.1
		c-0.3,0.7-0.5,1.5-0.6,2.2c0,0.1-0.1,0.2-0.1,0.2c0.1,0.3,0.2-0.5,0.4-0.4c-0.1,0-0.2,0.2-0.3,0.2c-0.7,0.4-1.4,1-2.1,1.4
		l-19.1,13.4l-10.1,7.1c-1.8,1.3-3.7,2.5-5.5,3.9c-0.1,0.1-0.2,0.1-0.3,0.2c-1.1,0.7-0.4,2,0.1,2.8c8.1,12.6,21.6,21.1,36.3,24
		c12.5,2.4,25.4,0.2,36.4-6.3c10.6-6.4,18.3-16.5,21.7-28.4c3.4-12,2.1-24.9-3.5-36c-6.2-11.9-16.4-21.1-28.9-25.9
		C261.4,210,259.7,209.4,258,209c-1.3-0.4-4.6-0.9-4.5,1.3s3.2,3.7,4.8,4.2c0.7,0.2,1.4,0.4,2,0.6l1,0.4c0.2,0.1,1.4,0.6,0.7,0.2
		l0.5,0.2c0.3,0.1,0.6,0.3,1,0.4c0.7,0.3,1.4,0.6,2,1c0.3,0.1,0.6,0.3,0.9,0.5c0.9,0.4-0.8-0.5,0,0l1.9,1.1c0.6,0.4,1.1,0.8,1.7,1.1
		l0.8,0.6c0.1,0.1,0.3,0.2,0.4,0.3c-0.2-0.1-0.7-0.5-0.2-0.1c1.1,0.9,2.2,1.8,3.2,2.7c0.5,0.5,1,0.9,1.4,1.4l0.4,0.4
		c0,0-0.5-0.5-0.2-0.2l0.8,0.9c1,1.1,1.9,2.2,2.7,3.4c0.4,0.5,0.8,1.1,1.1,1.6l0.5,0.8l0.3,0.4c0.3,0.5-0.3-0.4,0,0.1
		c5.8,9.6,7.8,20.9,5.8,31.9c-2.1,11.3-8.3,21.3-17.4,28.3c-4.3,3.3-9.1,5.8-14.2,7.4c-1.3,0.4-2.7,0.8-4,1c-0.7,0.1-1.3,0.3-2,0.4
		l-0.7,0.1c0.4-0.1-0.2,0-0.2,0l-0.7,0.1c-1.4,0.2-2.8,0.3-4.2,0.3c-0.7,0-1.4,0-2,0h-1c-0.3,0-1.3-0.1-0.5,0
		c-1.4-0.1-2.9-0.3-4.3-0.5c-0.7-0.1-1.4-0.2-2.1-0.4c-0.1,0-0.5,0-0.5-0.1s0.9,0.2,0.3,0.1l-1.2-0.3c-0.8-0.2-1.6-0.5-2.4-0.7
		l-1.1-0.4l-0.6-0.2c-0.6-0.2-0.2,0,0.1,0.1c-1.6-0.5-3-1.1-4.4-2c-0.2-0.1-1.2-0.7-0.6-0.3l-0.6-0.3c-0.7-0.4-1.4-0.9-2.1-1.3
		s-1.2-0.9-1.9-1.3c0.7,0.5,0.1,0.1-0.2-0.2l-1-0.8c-1.2-1-2.3-2.1-3.4-3.2c-0.6-0.6,0.3,0.3-0.3-0.3l-0.8-0.8
		c-0.5-0.6-1-1.2-1.6-1.9c-1-1.2-1.9-2.5-2.7-3.8l0.1,2.8l13.1-9.2l20.4-14.3c1.3-0.8,2.6-1.7,3.8-2.7c0.4-0.5,0.7-1,0.8-1.6
		l0.9-3.2l6.7-23.5l3.3-11.6c0.6-2.1,1.4-4.2,1.8-6.3c0-0.1,0-0.2,0.1-0.3l-3.2,0.9c-0.6-0.1,0.1,0,0.4,0.1l1.1,0.3
		c1.3,0.4,4.5,0.9,4.5-1.3S259.6,209.4,258,209z"></path><path class="st0" d="M124.6,135c-0.2,0.6,0.2-0.1,0.4-0.3c0.4-0.4,0.9-0.8,1.3-1.2c1.4-1.2,2.8-2.3,4.3-3.3
		c3.6-2.5,7.7-5.1,12.1-5.8c0.9-0.2,1.8-0.2,2.7-0.2c0.2,0,0.4,0,0.6,0.1c0.4,0.1,0.1,0,0,0l0.4,0.1c0.1,0,0.8,0.3,0.3,0.1l0.6,0.3
		c-0.6-0.3,0.1,0.1,0.2,0.2c-0.4-0.3-0.1,0,0.1,0.1c0.4,0.4-0.1-0.1,0.2,0.2s0.4,0.5,0.4,0.5c0.6,1,1.1,2.2,1.3,3.4
		c1.1,4.4-0.3,9.2-2.1,13.2c-2.2,4.7-5.1,9-8.6,12.8c-2.6,2.9-5.6,5.9-9.2,7.5c-0.3,0.1-0.6,0.3-0.9,0.4s0.1,0-0.1,0l-0.5,0.1
		c-0.1,0-0.2,0-0.4,0c-0.2,0,0.4,0.1,0,0s0.2,0.1,0.1,0c-0.5-0.2,0.4,0.2,0.1,0.1c0.4,0.2,0.7,0.5,1,0.8c0.3,0.4-0.1-0.1,0-0.1
		s0.1,0.4,0-0.1c0-0.1,0-0.3-0.1-0.4c-0.1-0.4,0,0,0-0.2c0-0.4,0-0.8,0.1-1.2c0.5-4.6,3.1-8.6,6.4-11.7c6.9-6.6,17.7-10.5,27.1-10.4
		c1,0,2.1,0.1,3.1,0.2c0.8,0.1,1.6,0.3,2.4,0.5l0.6,0.2c0.6,0.2-0.3-0.2,0.2,0.1l0.5,0.2c0.4,0.2,0.4,0.2,0.2,0.1l0.4,0.3
		c0.6,0.3-0.2-0.2,0.1,0l0.4,0.3c0.4,0.3-0.2-0.4,0.1,0.1c0.1,0.1,0.4,0.5,0.2,0.2s0.1,0.2,0.2,0.3c0.1,0.1,0.2,0.3,0.2,0.4
		c-0.2-0.4,0.1,0.2,0.1,0.3c0.2,0.7,0.3,1.4,0.2,2.1c-0.2,3.1-1.2,6.1-2.8,8.8c-1.2,2.2-2.9,4-4.9,5.6c-0.8,0.6-1.6,1.1-2.5,1.4
		c-0.2,0.1-0.3,0.1-0.5,0.2c-0.2,0.1,0.1,0-0.3,0.1l-0.4,0.1c-0.4,0.1-0.1,0-0.2,0c-0.2-0.1,0.3,0.1,0.3,0.1
		c0.4,0.2,0.8,0.4,1.1,0.8c0.1,0.1,0.6,0.5,0.3,0.3c0,0,0.1,0.4,0.1,0.2c0-0.1,0-0.4,0-0.1s0-0.2,0-0.3s0.1-0.4,0.1-0.6
		c0.1-0.4,0.3-0.8,0.4-1.2c1.1-2.2,2.5-4.1,4.2-5.8c3.9-4.1,8.8-7.1,14.2-8.6c2.3-0.7,4.8-0.7,7.2-0.2c0.9,0.2,1.8,0.7,2.6,1.3
		c0.9,0.8,1.7,1.8,2.3,2.8c2.8,4.7,5.2,12.3,1.9,17.4c-0.4,0.7-0.9,1.2-1.6,1.7c-0.3,0.2-0.7,0.4-1,0.5c-0.3,0.1,0.2,0-0.2,0.1
		c-0.2,0-0.4,0.1-0.6,0.1c-0.3,0,0.4,0-0.1,0s-0.3-0.1,0,0c-0.5-0.3,0.4,0.2,0,0c0,0,0.6,0.4,0.3,0.1s0.2,0.2,0.2,0.2
		c-0.3-0.2,0.1,0.1,0.1,0.2c0-0.1-0.1-0.1-0.2-0.2c0,0,0.3,0.4,0.1,0.1c-0.1-0.1-0.1-0.2-0.1-0.3c-0.2-0.3,0.1,0.4,0,0s0-0.1,0-0.2
		c0.2-1.5,0.9-2.9,2-4c1.5-1.7,3.1-3.1,5-4.4c2-1.4,4.1-2.4,6.4-3.2c1-0.3,1.9-0.5,2.9-0.6c0.4,0,0.9,0,1.3,0l0.6,0.1
		c0.2,0,0,0-0.1,0l0.5,0.2c0,0,0.3,0.1,0,0l0.1,0.1c0,0,0.5,0.3,0.1,0.1s0,0,0,0l0.3,0.2l-0.1-0.1c0.1,0.1,0.2,0.2,0.3,0.3
		c0,0-0.3-0.3-0.1-0.1c0.6,0.8,1,1.6,1.3,2.6c0.4,1.1,1.4,2,2.5,2.3c0.7,0.2,2.1,0.2,1.8-1c-1.5-5.8-7.3-9.3-13.1-8
		c-5.3,1.2-10.1,4.1-13.7,8.2c-1.2,1.3-2.5,3.1-2.6,5c-0.1,2.4,2.1,4.5,4.1,5.4c4.8,2,8.2-2.6,8.9-6.8c0.5-3.8-0.1-7.6-1.5-11.1
		c-1.5-3.9-3.5-7.4-6.9-10c-5.5-4.1-12.5-3.6-18.5-1c-5.7,2.5-10.6,6.5-14.2,11.7c-1.1,1.7-2.5,4.2-1.6,6.2c1.1,2.2,3.5,3.3,5.9,2.8
		c5.2-1.2,9.2-6.6,10.9-11.3c1-2.7,1.9-5.9,1.2-8.7c-0.6-2.2-1.9-4.1-3.7-5.4c-3.9-3-9.1-3.5-13.8-3.2c-5.7,0.4-11.4,1.8-16.6,4.3
		c-5.1,2.4-10.1,5.8-13.3,10.5c-1.5,2.2-2.6,4.6-3.2,7.2c-0.5,1.7-0.4,3.6,0.3,5.3c1.1,1.9,3.2,3.1,5.5,2.9c1.7-0.3,3.2-0.9,4.6-1.9
		c4.3-3,8-6.6,11-10.9c3.4-4.6,6.3-9.8,7.5-15.4s0.1-12-4.6-15.6c-4.4-3.4-10-2.4-14.8-0.3c-4.4,2.1-8.5,4.7-12.2,8
		c-0.9,0.6-1.6,1.4-2.1,2.3c-0.6,1.6,3.7,4.1,4.4,2.2L124.6,135z"></path><path class="st2" d="M208.4,254.3l-8.4,1.3l-20.1,3.2l-24.4,3.9l-21,3.4c-3.4,0.5-6.9,0.9-10.2,1.6h-0.2c-1.3,0.3-2.2,1.4-2.1,2.7
		c0.2,1.4,1.6,1.7,2.7,1.5l8.4-1.3l20.1-3.2l24.4-3.9l21-3.4c3.4-0.5,6.9-0.9,10.2-1.6h0.1c1.3-0.3,2.2-1.4,2.1-2.7
		C211,254.5,209.6,254.2,208.4,254.3L208.4,254.3z"></path><path class="st2" d="M119,266.8c-1.8,0.3-3.8,0.8-4.9,2.3c-0.4,0.7-0.5,1.5-0.2,2.2c0.3,0.8,0.9,1.4,1.7,1.8c1.9,1,4,1.5,6.2,1.2
		c1,0,2.1-0.3,3-0.8c0.8-0.4,1.4-1,1.8-1.8c0.3-0.8,0.3-1.6,0-2.3c-0.6-1.1-1.6-1.8-2.8-1.9c-0.6-0.1-1.3-0.1-1.9,0
		c-0.5,0.1-0.9,0.4-1.2,0.7c-0.4,1,0.9,1.6,1.7,1.7c0.3,0.1-0.6-0.2-0.3-0.1l-0.4-0.2c0.1,0.1,0.1,0-0.1-0.1s0.1,0.1,0.1,0.2
		l-0.2-0.3c0.2,0.2,0.3,0.5,0.3,0.8l-0.1-0.4c0.1,0.4,0,0.8-0.1,1.2l0.1-0.3c-0.1,0.3-0.2,0.5-0.4,0.8l0.3-0.3
		c-0.1,0.1-0.2,0.2-0.3,0.3l0,0c0.2-0.1,0,0,0,0l-0.2,0.1c0,0,0.5-0.2,0.2-0.1c-0.1,0-0.3,0.1-0.4,0.1c-1.1,0.1-1.9,1-1.8,2
		c0.1,1.1,1,1.9,2,1.8c1.1-0.1,1.9-1,1.8-2c-0.1-1-0.8-1.8-1.8-1.8h-0.2c-0.5,0,0.6,0,0.1,0h-0.5c-0.1,0-0.7-0.1-0.2,0s0,0-0.1,0
		s-0.3-0.1-0.4-0.1c-0.3-0.1,0.3,0.1,0.3,0.1s-0.2,0-0.2-0.1c-0.1-0.1-0.3-0.1-0.4-0.1c-0.2-0.1,0.4,0.2,0.2,0.1l-0.2-0.1
		c-0.1-0.1-0.2-0.2-0.4-0.2c0,0,0.3,0.3,0.2,0.1l-0.1-0.1c-0.1-0.1-0.2-0.2-0.3-0.3l0.2,0.3c-0.1-0.2-0.2-0.4-0.3-0.7l0.1,0.4
		c-0.1-0.3-0.1-0.6,0-0.9l-0.1,0.3c0.1-0.2,0.2-0.5,0.4-0.6l-0.3,0.3c0.2-0.2,0.4-0.3,0.5-0.5c-0.4,0.4-0.2,0.1,0,0l0.3-0.2
		c0.3-0.1-0.6,0.2,0,0l0.4-0.1l0.4-0.1c0.6-0.1-0.5,0.1-0.1,0c0.5,0,1.1-0.2,1.5-0.5c0.3-0.2,0.4-0.6,0.3-1
		C121.6,266.9,119.9,266.6,119,266.8L119,266.8z"></path><path class="st0" d="M256,233.9c6.8-2.7,13.6-5.1,20.4-7.4c3-1-3.4-8.4-6.3-7.4c-6.9,2.3-13.7,4.8-20.4,7.4
		c-1.9,0.7-0.1,3.4,0.7,4.4c0.8,1,1.9,1.8,3,2.4C254.2,233.7,255.2,234.2,256,233.9L256,233.9z"></path><path class="st0" d="M250,245.7c1.3-0.6,2.6-1.1,3.8-1.6l2-0.7c0.8-0.3-0.7,0.2,0,0l1.1-0.4c2.6-0.9,5.3-1.7,8-2.4
		c2.6-0.7,5.3-1.2,7.9-1.7c1.4-0.2,2.7-0.4,4.1-0.6l1.1-0.1c-0.5,0.1-0.2,0,0.1,0c0.8-0.1,1.5-0.2,2.3-0.2c2.4-0.2,5.2-1.7,5.5-4.4
		c0.2-2.2-1.3-4.1-3.5-4.3c-0.2,0-0.5,0-0.7,0c-12.3,1.1-24.3,4.1-35.6,9.1c-2.1,0.9-3.8,3.8-2.6,6C245,246.5,247.7,246.7,250,245.7
		L250,245.7z"></path><path class="st0" d="M243.1,259.9c7-2.6,14.2-4.7,21.4-6.6c1.8-0.4,3.5-0.9,5.3-1.3l2.6-0.6l0.7-0.1l1.4-0.3
		c3.7-0.7,7.5-1.4,11.3-1.9c2.2-0.3,5-1.6,5.8-3.8s-1.5-3-3.3-2.8c-15.4,2.1-30.5,5.9-45.1,11.1c-1.8,0.7-4.8,2.1-4.7,4.4
		S241.6,260.4,243.1,259.9L243.1,259.9z"></path><path class="st0" d="M217.1,283.4c18.6-6.6,37.6-11.9,57-15.8l0.9-0.2c0.4-0.1,0.6-0.1,0.1,0l2.1-0.4l4-0.7c2.8-0.5,5.6-1,8.5-1.4
		c2.2-0.3,5-1.8,4.6-4.5c-0.5-2.4-2.9-4-5.3-3.6c-20,3.2-39.8,7.7-59.1,13.7c-5.4,1.7-10.8,3.5-16.1,5.4c-2,0.7-4.2,3-3,5.3
		C212.1,283.3,214.8,284.3,217.1,283.4L217.1,283.4z"></path><path class="st0" d="M213.9,294.9c8.9-1.2,17.6-2.9,26.3-5.3c8.2-2.1,16.8-4.5,24.7-6.1c4.8-1,9.6-1.6,14.4-1.9
		c2.3-0.2,4.5-1,6.5-2.3c0.6-0.4,1.6-1,1.8-1.7s-0.4-0.8-0.9-0.8c-18,1-35.1,7-52.7,10.9c-4.7,1.1-9.5,1.9-14.4,2.5
		c-2.4,0.3-4.6,1.3-6.4,2.9c-0.4,0.3-1.2,1-0.9,1.5S213.5,294.9,213.9,294.9L213.9,294.9z"></path><path class="st0" d="M238.5,305.8c11.3-4.1,22.8-7.3,34.6-9.7c4.8-0.9-1.7-8.2-5-7.5c-12.3,2.4-24.4,5.8-36.1,10.1
		c-2.1,0.8-0.3,3.9,0.6,4.8C234,304.9,236.4,306.6,238.5,305.8L238.5,305.8z"></path><path class="st0" d="M287,348.8c-6.2-15.4-14-30.2-21.8-44.8c-0.6-1.1-1.8-1.7-3-1.4c-1.2,0.5-1.1,1.9-0.6,2.9
		c7.6,14.3,15.3,28.6,21.3,43.7c0.4,1.2,1.5,2.1,2.8,2.1c0.9-0.1,1.6-1,1.5-2C287.1,349.1,287.1,349,287,348.8L287,348.8z"></path><path class="st0" d="M99.4,212.5c0.9-9.2,5.2-17.6,9.4-25.6c0.4-0.8,0.8-1.6,1.4-2.4c0.9-1,2-0.7,3.2-0.4c2.3,0.5,4.6,1.1,6.8,1.7
		c4.5,1.2,9,2.6,13.5,4.2s8.9,3.3,13.2,5.2l1.7,0.8c0.2,0.1,0.4,0.2,0.6,0.3c1.4,0.5-1.6-1-1.3-1.1c0,0.6-0.1,1.1-0.2,1.7
		c-0.2,0.7-0.4,1.4-0.7,2.1c-0.8,2.4-1.5,4.7-2.3,7c-1.6,4.7-3.1,9.3-4.8,14c-0.6,1.7-1,4.7-3.1,5.2s-4.4-0.4-6.3-1.1
		c-2.4-0.9-4.8-2-7.2-3s-4.9-1.9-7.4-2.6c-5-1.5-10.1-2.7-15.3-3.6c-0.7-0.1,0.9,1.6,1,1.6c0.7,0.8,1.6,1.4,2.7,1.7
		c5.1,0.8,10.2,2,15.2,3.6c4.7,1.5,9.1,3.6,13.7,5.3c2.1,0.9,4.4,1.4,6.7,1.4c2.5-0.2,3-2.4,3.7-4.4c1.8-5,3.5-10.1,5.2-15.2
		c0.8-2.5,1.6-5,2.4-7.5c0.5-1,0.7-2.1,0.7-3.2c-0.2-1.2-1.3-2.2-2.3-2.9c-2.1-1.4-4.3-2.5-6.6-3.4c-2.4-1-4.8-2-7.1-2.9
		c-4.8-1.8-9.6-3.5-14.5-4.9c-2.4-0.7-4.8-1.4-7.3-2c-1.2-0.3-2.4-0.6-3.7-0.9c-1-0.4-2.2-0.5-3.3-0.3c-1.1,0.4-1.6,1.5-2.2,2.5
		c-0.6,1.2-1.3,2.4-1.9,3.6c-1.2,2.4-2.4,4.9-3.5,7.3c-2.3,5-3.7,10.2-4.4,15.6c-0.1,0.7,1.7,1.9,2.2,2.2
		C97.9,212.2,99.4,213.2,99.4,212.5L99.4,212.5z"></path><path class="st0" d="M124.3,222.5c7.3-2.2,14.3-5.4,20.8-9.5c0.6-0.4-2.4-4.3-3.4-3.7c-6.5,4.1-13.5,7.3-20.8,9.5
		c-0.6,0.2,1,2.1,1.2,2.3C122.6,221.6,123.5,222.7,124.3,222.5z"></path><path class="st0" d="M121.6,212.4l21.5-13.4c0.5-0.2,0.7-0.7,0.5-1.2c-0.1-0.3-0.4-0.5-0.7-0.6c-1.2-0.4-2.4-0.3-3.5,0.3L118,210.9
		c-0.5,0.3-0.7,0.9-0.4,1.4c0.1,0.2,0.3,0.4,0.5,0.4C119.3,213.2,120.6,213.1,121.6,212.4L121.6,212.4z"></path><path class="st0" d="M105.8,213.7c7.9-7,16.6-13.1,25.9-18.1c2.4-1.3-1.3-4.4-3.1-3.4c-9.6,5.1-18.5,11.3-26.7,18.5
		C100.1,212.3,104.2,215,105.8,213.7z"></path><path class="st0" d="M108.1,197.6c4-3.1,8.1-5.8,12.5-8.3c0.4-0.2,1.5-1.2,0.4-1.4c-1.2-0.1-2.3,0.3-3.3,0.9
		c-4.7,2.6-9.1,5.6-13.4,8.9c-0.2,0.1-0.6,0.5-0.5,0.8s0.7,0.3,0.9,0.3C106,198.7,107.1,198.3,108.1,197.6L108.1,197.6z"></path><path class="st0" d="M179.4,356.7c12.1,0.2,24.9-0.3,35.8-6.2c4.8-2.5,9-6.1,12.2-10.4c1.4-1.8,2.2-4,2.1-6.3
		c-0.3-2.7-2.6-4.7-5.2-4.7c-3-0.1-5.4,2-7.5,3.9c-2.2,2-4.3,4.1-6.1,6.4c-3.5,4.3-7,9.5-7.2,15.2c-0.6,12.5,15.5,14.4,24.6,14
		c6.5-0.2,12.9-1.6,19-4c3.1-1.2,6-2.7,8.8-4.5c2.4-1.5,4.7-4,4.2-7.1c-0.3-1.2-1.4-2.1-2.6-2.1c-4.6,0.3-7.4,3.6-9.3,7.5
		s-3.4,8.6-0.8,12.5c2.4,3.5,6.7,4,10.6,3.9c3.2-0.1,6.8-0.6,9,2c1.2,1.6,2.3,3.4,3.3,5.1c1.1,1.9,2.7,3.4,4.6,4.5
		c1.1,0.6,2.5,0.4,3.3-0.5c0.7-1.1-0.2-2.2-1.1-2.7c-2.5-1.4-3.7-4.7-5.2-7c-2-2.9-5.2-4.9-8.8-5.2c-3.1-0.4-6.6,0.5-9.5-0.3
		c-1.1-0.2-2.1-1.1-2.4-2.2c-0.4-1.7-0.3-3.5,0.3-5.1c0.6-1.9,1.5-3.8,2.6-5.4c0.8-1.2,2.1-3,3.8-3.1l-2.6-2.1
		c0.3,2-1.6,3.4-3.1,4.4c-2.1,1.3-4.2,2.4-6.5,3.4c-4.5,1.9-9.2,3.2-14,3.8c-4.6,0.6-9.3,0.5-13.8-0.3c-3.6-0.7-7.5-2.1-8.9-5.8
		c-1.6-4.3,1-9.3,3.4-12.8c2.8-4.1,6.1-7.9,10-11c0.7-0.6,1.5-1.1,2.4-1.5c0.2-0.1-0.1,0-0.2-0.2c0.1,0.2,0.2,0.5,0.2,0.7
		c0.2,1.8-0.9,3.4-1.9,4.8c-2.7,3.5-6,6.4-9.9,8.4c-10.3,5.7-22.2,6.1-33.7,5.9c-1.1,0-2.4,0.6-2.3,1.9
		C177,355.9,178.2,356.7,179.4,356.7L179.4,356.7z"></path><path class="st0" d="M301.9,203.9c6-3.1,11.8-6.7,17.1-10.9c2.6-2.1,5.2-4.2,7.6-6.6c1.3-1.2,2.5-2.4,3.7-3.6
		c1.2-1.1,2.2-2.4,3-3.9c1.6-3.5-0.9-6.6-4.5-7.1c-3.2-0.4-6.5,0.5-9.1,2.5c-5.4,4.2-7.3,11.6-8.7,18c-1,3.6-1.5,7.3-1.6,11
		c0,3.5,2.7,5.8,6,6.4c3.1,0.4,6.3,0.3,9.3-0.4c3.3-0.6,6.6-1.6,9.6-3c2.9-1.3,5.6-3,8.1-4.9c1.2-1,2.8-2,3.1-3.6
		c0.3-1.6-0.5-3.3-1.9-4.1c-5.4-3.6-12.8,1.1-14.8,6.4c-2.4,6.4,1.7,13.6,7.9,16c6.6,2.6,14-0.4,17.8-6.3c0.7-1.1-0.5-2.5-1.4-3
		c-2.9-1.4-6.4-0.5-8.3,2.1c-2.1,2.7-1.7,6.2,0.4,8.9c5,6.5,14,4.8,20.6,2.3c3-1.1,0.6-5.2-1.9-4.2c-4.1,1.6-9.9,3.7-13.8,0.7
		c-1.2-0.9-2.2-2.4-1.6-4c0.3-0.7,0.8-1.4,1.5-1.8c0.7-0.4,1-0.4,1.4-0.1l-1.4-3c-2.1,3.3-6.4,5.6-10.4,4.8
		c-3.8-0.8-6.6-4.2-6.6-8.1c0.1-2,1-4,2.5-5.4c1.4-1.3,3.2-2.1,5.1-2.1c0.1,0,0.3,0.1,0.4,0s-0.1-0.6-0.2-0.6l-0.5,0.5
		c-0.9,0.8-1.9,1.6-3,2.3c-2.1,1.4-4.3,2.6-6.6,3.6c-4.3,1.8-9.5,3.2-14.2,2.8c-0.7,0-1.5-0.2-2.1-0.6c-0.5-0.6-0.2-2.1-0.1-2.9
		c0.3-2.9,0.8-5.8,1.5-8.7c1.1-4.9,2.5-10.7,6-14.4c1.4-1.6,3.4-2.6,5.5-2.8c0.4,0,1.4,0.2,1.6,0.1c0.1,0,0-0.2-0.1-0.2
		c-0.2,0.3-0.3,1-0.5,1.3c-0.3,0.5-0.8,1.1-1.2,1.5c-8.2,8.7-17.8,15.9-28.4,21.4c-0.9,0.6-1.2,1.8-0.6,2.8c0.1,0.1,0.1,0.2,0.2,0.2
		c0.8,1,2.3,1.3,3.4,0.8L301.9,203.9z"></path><path class="st0" d="M61.9,304.5c4.5-6,11.2-10,18.6-11.1c0.9-0.2,1.7-0.3,2.6-0.3c0.8,0,0.8,0.2,1.1,1c0.5,1.7,0.8,3.4,0.9,5.1
		c0.2,3.5-0.4,7.1-1.7,10.4c-1.4,3.7-3.7,6.9-6.7,9.5l3.4,0.3c-2.6-2.6-1.1-6.2,1.1-8.5c2.8-2.8,6.2-5,9.9-6.5
		c1.7-0.8,3.5-1.1,5.4-1.1c1.7,0.1,3.1,1.1,3.7,2.7c1.4,3.3,1.9,6.9,1.3,10.4c-0.6,4-2.5,7.7-5.3,10.5l3.9-0.1
		c-2.3-3.2-0.1-7.4,2.5-9.7c1.5-1.2,3.2-2.3,4.9-3.3c1.7-1,3.7-2.3,5.8-2.4c3.2-0.1,5.3,3.2,5.8,6c0.8,4.5-1.7,9-3.7,12.9
		c-1.5,2.8,3.1,4,4.4,1.5c2.2-4.2,4.4-8.6,4.3-13.4c0-3.7-1.7-7.2-4.7-9.5c-3.7-2.8-8.3-1.8-12.2,0.2s-7.8,4.2-10.4,7.6
		c-2.8,3.7-3.9,9-1,12.9c0.9,1.3,2.9,0.8,3.9-0.1c6.3-6.4,9-17.4,4.8-25.6c-5.4-10.8-20.9-1.6-26.7,4.1c-3.7,3.5-6.1,10-1.9,14.2
		c0.9,0.9,2.4,1.1,3.4,0.3c7-5.8,10.9-14.4,10.6-23.5c-0.1-2.1-0.4-4.3-1-6.3c-0.5-2.4-2.7-4.1-5.2-4c-4.6,0.1-9.2,1.3-13.4,3.4
		c-4.8,2.3-8.9,5.7-12.2,9.9c-0.8,0.8-0.8,2,0,2.8c0.1,0.1,0.2,0.2,0.3,0.2C59.6,305.6,61,305.4,61.9,304.5L61.9,304.5z"></path></g><g id="hand"><path class="st1" d="M352.5,315.2c0,0-9.1-10.6-18.2-6.2s-30.9,49.9-24.8,50.7s23.4-5,27.5-9.9s4.7-17.6,4.7-17.6l3.4,9.7
		l47.2-31.1c0,0-7.4-16-6.8-28.7c0.5-11.1-11.2-21.5-15.8-1c-1.2,5.5-1.4,11.2-0.8,16.8l1,8.4C370,306.4,351.6,293.6,352.5,315.2z"></path><path class="st2" d="M354.8,314.9c-5.7-6.7-17.4-12.2-24.9-5.1c-2.8,2.8-5.2,5.9-7.3,9.3c-2.7,4.3-5.2,8.6-7.4,13.1
		c-2.2,4.4-4.3,8.9-6.1,13.5c-1.5,3.3-2.5,6.8-3.1,10.3c-0.2,1-0.1,2,0.2,3c0.7,1.8,2.7,2.1,4.4,2.2c2.6,0,5.2-0.3,7.7-0.9
		c3.1-0.7,6.1-1.7,9.1-2.8c2.8-1.1,5.5-2.4,8.1-3.9c2-1.1,3.7-2.8,4.9-4.7c2.5-4.5,3.2-10.1,3.6-15.1c0-0.4,0.1-0.8,0.1-1.1
		l-4.9-0.4l3.4,9.7c0.5,1.6,3.2,1.9,4.5,1.1l15.9-10.4l25.5-16.8l5.8-3.8c0.4-0.2,0.5-0.7,0.4-1.1c-2.1-4.7-3.8-9.5-5-14.5
		c-1.1-4.1-1.7-8.3-1.7-12.6c0.2-2.7-0.2-5.5-1.1-8.1c-1.7-4.5-5.9-8.8-11.2-7.6c-2.5,0.7-4.6,2.5-5.7,4.9c-2,4.1-3.2,8.5-3.5,13
		c-0.7,6.8,0.3,13.6,1,20.3l4.4-0.8c-5.2-3.6-15.1-7.6-19.7-1.1c-2.1,2.9-2.2,6.9-2.1,10.4c0,1.1,1.2,1.7,2.2,1.9
		c0.6,0.1,2.7,0,2.7-1.1c-0.1-2.8-0.1-6,1.2-8.6c0.2-0.4,0.5-0.8,0.7-1.2c0.2-0.3,0.5-0.6,0.8-0.8l0.4-0.3c0.4-0.3,0,0,0.2-0.1
		s0.4-0.2,0.6-0.2c0.5-0.2-0.1,0,0.2-0.1l0.6-0.1c0.6-0.1-0.2,0,0.1,0h0.5c0.1,0,0.2,0,0.3,0c0.3,0-0.6-0.1-0.1,0s0.8,0.1,1.2,0.2
		s0.5,0.1,0,0l0.7,0.2c0.4,0.1,0.8,0.2,1.1,0.4l0.6,0.2c0.6,0.2-0.3-0.1,0.2,0.1c0.6,0.3,1.3,0.6,1.9,0.9s1,0.6,1.6,0.9
		c0.1,0.1,0.7,0.4,0.2,0.1l0,0c1,0.7,4.6,1.5,4.4-0.8c-0.7-4.7-1.1-9.5-1.3-14.2c0-4.7,0.7-9.5,2-14c0.8-2.5,1.9-5.2,4.1-6.7
		c0.3-0.2,0.5-0.3,0.9-0.4c-0.5,0.2,0.1,0,0.2,0c0,0-0.6,0-0.2,0s-0.5-0.1-0.1,0c0.5,0.1,0.2-0.1,0,0c0.1,0,0.9,0.4,0.2,0l0.5,0.3
		c0.1,0,0.4,0.2,0.1,0.1s0.1,0.1,0.2,0.1c1.4,1.2,2.5,2.8,3.1,4.6c0.9,2.5,0.9,4.9,0.9,7.5c0.1,3.9,0.6,7.8,1.5,11.5
		c1.2,5.4,3,10.7,5.3,15.7l0.4-1.1l-15.9,10.5L348.9,337l-5.8,3.8l4.5,1.1l-3.4-9.7c-0.5-0.9-1.5-1.5-2.5-1.5
		c-0.7,0-2.3,0.1-2.4,1.1c-0.2,3.7-0.7,7.4-1.7,11c-0.5,2.4-1.6,4.6-3.1,6.4c-1.6,1.4-3.3,2.6-5.3,3.5c-4.9,2.5-10.2,4.3-15.7,5.3
		c-0.5,0.1-1.1,0.2-1.7,0.2c-0.1,0-0.2,0-0.3,0c-0.3,0-0.6,0-0.9,0H310c-0.5,0,0.4,0.1-0.2,0s0.6,0.2,0.3,0.1
		c0.3,0.1,0.5,0.2,0.8,0.4c-0.1-0.1,0.4,0.3,0.1,0c0.3,0.2,0.1,0.2,0-0.1c0-0.2-0.1-0.4-0.1-0.5c0,0.3,0-0.1,0-0.4
		c0.1-3,1.2-6,2.2-8.7c1.5-4.1,3.2-8,5.1-11.9c3.8-7.9,8-15.9,13.5-22.7c0.5-0.6,1.1-1.3,1.6-1.9c0.1-0.2,0.3-0.3,0.5-0.5
		c0.3-0.2,0.5-0.5,0.8-0.7c0.4-0.4,0.9-0.7,1.3-1c-0.2,0.1-0.3,0.1-0.1,0s0.8-0.3,1.1-0.5c0.6-0.2,1.1-0.3,1.7-0.4
		c4.1-0.4,8.2,2.8,11.1,5.7c0.4,0.4-0.1-0.1,0.2,0.2l0.2,0.2c0.8,0.9,2.1,1.3,3.3,1.1C354.4,316.6,355.6,315.8,354.8,314.9z"></path><path class="st2" d="M357.6,317.4c-2.5-2.2-4.9-4.4-7.5-6.5c-1.5-1.2-3.1-2.2-4.9-2.9c-0.3-0.2-0.8-0.3-1.1-0.1
		c-0.3,0-0.5,0.3-0.4,0.6c0.1,0.5,0.3,1,0.6,1.4c0.4,0.6,0.8,1.2,1.3,1.7c1.3,1.4,2.7,2.8,4.3,3.9l1.5,1c0.8,0.5,1.6,0.9,2.5,1.2
		l0,0l-1.1-0.5l0.1,0l-1.3-0.8l0.2,0.1l-1.5-1l0.6,0.5l-1.5-1.2c1.5,1.1,2.8,2.4,4.2,3.7l-1.5-1.4l0.2,0.2c1.4,1.3,2.9,2.5,4.5,3.6
		c0.6,0.4,1.2,0.7,1.9,1c0.4,0.2,0.9,0.4,1.4,0.4l0.5-0.2c0.2-0.5,0.1-1-0.2-1.4l-0.6-1C359.1,319,358.4,318.2,357.6,317.4
		L357.6,317.4z"></path><path class="st0" d="M295.6,369.6c0,0,78.2-53.6,81.7-53.5s10.4,9.2,9.4,12.9s-78.2,55.5-80.4,56.2s-25.8,4.8-25.8,4.8L295.6,369.6
		z"></path><path class="st0" d="M296.5,371.3l10.4-7.1c7.9-5.4,15.9-10.8,23.8-16.1c8.8-5.9,17.7-11.9,26.6-17.7c6-3.9,12-8,18.3-11.4
		c0.7-0.4,1.4-0.7,2.1-1l0.3-0.1c-0.5,0.1-0.2,0-0.1,0c0.9,0.3,1.6,0.7,2.3,1.3c2.2,1.9,4,4.3,5,7c0.2,0.6,0.3,1.2,0.3,1.8
		c0-0.3,0.2-0.2,0,0l-0.3,0.3c-1.5,1.5-3.1,2.9-4.8,4.1c-3,2.3-6.1,4.6-9.2,6.8c-8.5,6.1-17.1,12-25.7,17.9
		c-8.5,5.8-17,11.5-25.5,17.2c-4.6,3.1-9.2,6.4-14.1,9.1c-0.1,0.1-0.3,0.1-0.4,0.2c-0.2,0.1,0.3-0.1,0.1,0l-0.3,0.1l-0.9,0.2
		c-2.1,0.4-4.2,0.8-6.2,1.2c-5.1,0.9-10.2,1.9-15.2,2.8l-2.9,0.5l1.6,3.2l13.2-17.9l1.9-2.6c0.9-1.2-1.2-4.3-2.2-2.9L281.4,386
		l-1.9,2.6c-0.7,0.9,0.3,3.5,1.6,3.2c8.2-1.5,16.5-2.8,24.7-4.6c1.4-0.3,2.7-0.9,3.8-1.8c2.5-1.6,5.1-3.2,7.6-4.9
		c8.2-5.4,16.4-10.9,24.6-16.5c9-6.1,18-12.4,26.9-18.7c5.9-4.2,12-8.3,17.5-13.1c0.5-0.4,1-0.9,1.5-1.5c1.1-1.6,0.3-4-0.3-5.6
		c-1.3-3.1-3.2-5.9-5.7-8.2c-1.3-1.2-3.3-3-5.2-2.5c-1.7,0.4-3.4,1.6-4.8,2.5c-3.1,1.8-6.1,3.7-9.1,5.6c-8.7,5.5-17.2,11.2-25.8,17
		c-8.7,5.8-17.4,11.7-26.1,17.6c-5.1,3.4-10.1,6.9-15.1,10.3c-0.2,0.2-0.5,0.3-0.7,0.5C293.5,368.9,295.2,372.2,296.5,371.3z"></path><path class="st1" d="M405.5,323.9c0,0,71.5,68.5,70.1,81.9c-4.1,40.6-45.9,45.8-45.9,45.8s-29.1-38.4-33.4-40
		c0,0-11.4,5.8-28.1,0.3S330,396,318.4,387.1s-12.9-23.6,1.3-22.4s28.3,8.6,34.1,6s2-14.3,2-14.3"></path><path class="st2" d="M404.8,325.7c5.5,5.2,10.8,10.5,16.1,15.9c1.2,1.3,2.4,2.4,3.4,3.4l3.8,3.8c2.7,2.7,5.3,5.5,8,8.2
		c5.4,5.7,10.8,11.4,16,17.3c4.7,5.3,9.3,10.7,13.6,16.3c0.9,1.2,1.8,2.3,2.6,3.5c0.4,0.5,0.8,1.1,1.1,1.6c0.1,0.1,0.2,0.3,0.3,0.4
		c-0.4-0.6-0.1-0.1,0,0c0.2,0.3,0.4,0.6,0.5,0.8c0.6,1,1.2,2,1.8,3c0.2,0.4,0.5,0.9,0.7,1.3l0.3,0.6l0.1,0.3c0.2,0.4-0.3-0.7,0-0.1
		c0.1,0.4,0.3,0.7,0.4,1.1c0,0.2,0.1,0.3,0.1,0.5c0.2,0.7,0-0.2,0,0.1c0,0.3,0.1,0.6,0.1,0.9c0.1,0.3,0.1-0.6,0-0.1
		c-0.1,0.5-0.1,1-0.2,1.5c-0.6,4.7-1.8,9.3-3.7,13.7c-3.1,7.1-8,13.2-14.1,17.9c-5,3.8-10.6,6.7-16.5,8.8c-1.4,0.5-2,0.7-3.2,1
		c-1,0.3-1.9,0.5-2.9,0.8c-1.2,0.3-2.4,0.5-3.7,0.7l-0.5,0.1l1.9,1c-6-7.8-12-15.6-18.2-23.2c-3.8-4.6-7.5-9.3-11.6-13.6
		c-1.2-1.5-2.6-2.7-4.2-3.7c-0.7-0.4-1.5-0.4-2.1,0l-0.9,0.4l-0.7,0.2l-0.7,0.2c-3.7,1.1-7.6,1.6-11.5,1.4
		c-5.7-0.1-11.2-1.6-16.5-3.5c-10.3-3.7-20.4-8.2-30-13.5c-4.4-2.3-8.7-4.9-12.8-7.7c-3.5-2.4-6.8-5.2-8.7-8.8
		c-1.4-2.5-2.3-5.4-1.1-8.1c0.5-1.1,1.4-2,2.5-2.5c1.6-0.7,3.4-1,5.2-0.9c5.9,0.3,11.7,2,17.3,3.5c4.5,1.3,9.1,2.9,13.9,3.1
		c3.6,0.1,6.7-1.3,7.8-5c1-3.4,0.5-7.1-0.3-10.5c-0.1-0.6-0.3-1.3-0.5-1.9c-0.3-1-1.3-2.3-2.5-2.1s-1.3,1.6-1,2.5
		c0.1,0.3,0.2,0.6,0.3,0.9l0.2,1c0.1,0.4,0-0.3,0.1,0.2c0,0.2,0.1,0.5,0.1,0.7c0.4,2,0.5,4,0.1,6c-0.3,1.8-1.8,3.2-3.6,3.3
		c-2.5,0.3-5.1-0.3-7.6-0.9c-7.4-1.8-14.6-4.3-22.1-5.3c-4.9-0.6-10.9-0.5-13.3,4.6c-2.1,4.4-0.3,10,2.2,13.9
		c3.4,5.4,8.5,9,13.8,12.4c12.3,7.7,25.4,14,39.1,18.9c7,2.5,14,4.5,21.5,4.1c4.1-0.1,8.2-1,12-2.5l0.5-0.2l-1.4-0.1
		c0.1,0,0.6,0.3,0.2,0.1s0.1,0.1,0.3,0.2c0.5,0.4,0.9,0.8,1.3,1.1l0.3,0.3c0.2,0.2-0.4-0.4,0.1,0.1c0.3,0.3,0.5,0.6,0.8,0.9
		c0.6,0.7,1.3,1.4,1.9,2.1c3.1,3.5,6.1,7.1,9,10.8c5.7,7,11.2,14.1,16.7,21.2c0.9,1.2,2.2,3.6,3.9,3.4c1.5-0.2,3.1-0.5,4.5-0.9
		c7.3-1.8,14.3-4.8,20.6-9c9-6,15.7-14.8,19.2-25c1-3.1,1.8-6.3,2.2-9.5c0.4-1.6,0.4-3.3,0.2-5c-0.7-2.7-1.8-5.3-3.3-7.7
		c-4.4-7.2-9.9-13.8-15.4-20.2c-6.8-7.9-13.8-15.5-21-22.9c-6.6-6.9-13.3-13.7-20.1-20.4c-3.6-3.6-7.3-7.2-11-10.8l-0.5-0.5
		c-0.6-0.6-1.5-0.7-2.1-0.1c-0.1,0.1-0.3,0.3-0.4,0.5C403.1,323.5,403.9,324.9,404.8,325.7L404.8,325.7z"></path><path class="st1" d="M369.5,315.8c0,0,7.7-6.2,12.1-24.4s29.3-43.4,53.4-29.7c24.1,13.7,26.2,40.1,8.4,55.8s-42.9,12.1-48.2,13.6
		s-11.1,13-13.6,12.4s-19.1-28-15.6-27.8s20.3,27.4,13.2,30s-21.8-24.1-19.6-25.2s23.4,27.3,11.4,29.4"></path><path class="st0" d="M371.3,317.5c2.7-2.2,4.7-5.7,6.3-8.7c2.1-4,3.7-8.1,4.9-12.4c1.1-3.9,2-7.6,3.9-11.3
		c7-13.9,22.2-27.4,38.8-25.3c8.2,1,16,6.1,21.1,12.5c4.6,5.7,7,12.9,6.8,20.2c-0.6,17.3-15.5,29.3-31.2,33.6
		c-7,1.9-14.3,2.5-21.5,2.7c-2.1,0-4.2,0.1-6.3,0.4c-2.9,0.5-5.2,3.1-7,5.3c-1.2,1.4-2.3,2.8-3.4,4.1c-0.8,1.1-1.7,2.1-2.9,2.9
		c-0.1,0.1-0.3,0.1-0.4,0.2s-0.3,0,0,0.1l0.8,0.5c-0.1-0.1,0.6,0.5,0.1,0.1s0.4,0.5,0,0l-0.3-0.4c-0.2-0.2-0.3-0.4-0.5-0.5
		c0.4,0.5-0.1-0.1-0.2-0.3c-3.3-4.5-6.3-9.2-8.9-14.1c-1.2-2.2-2.3-4.4-3.3-6.6c-0.3-0.8-0.6-1.5-0.8-2.4c0-0.2,0,0.2,0-0.1
		c0-0.1,0-0.2,0-0.3s0.1-0.1,0-0.1c0.1,0-0.2-0.1-0.3-0.1c-0.4-0.2,0.5,0.5-0.3-0.2c0.5,0.4-0.1-0.2,0,0l0.4,0.4
		c0.4,0.4-0.4-0.4,0.1,0.1s0.8,0.9,1.1,1.3c0.1,0.1,0.3,0.4,0,0l0.2,0.3c0.2,0.2,0.4,0.5,0.5,0.7c0.4,0.5,0.8,1.1,1.2,1.7
		c0.8,1.2,1.6,2.4,2.3,3.6c1.6,2.6,3,5.4,4.2,8.2c1,2.2,1.7,4.5,2,6.9c0.1,1.4-0.1,3.2-1.6,3.6c-0.3,0.1-0.6,0.1-0.9,0.1
		c-0.4,0-0.7-0.1-1.1-0.3c-0.5-0.2,0.1,0.1-0.3-0.2c-0.1-0.1-0.8-0.5-0.3-0.2l-0.6-0.4l-0.4-0.3c-0.1-0.1,0.3,0.3-0.1-0.1
		c-1.9-1.8-3.7-3.9-5.2-6.1c-1.7-2.4-3.2-4.9-4.6-7.5c-1.1-1.8-1.9-3.7-2.5-5.7c0-0.2-0.1-0.3-0.1-0.5c-0.1-0.3,0,0.2,0-0.1
		c0-0.1,0-0.2,0-0.3c0-0.3,0,0,0,0s0,0-0.1,0c-0.3,0-0.1,0-0.5-0.2c0.5,0.3-0.3-0.2-0.1-0.1c0.1,0.1,0.5,0.5,0.1,0.1
		s0.1,0.1,0.2,0.2l0.4,0.4c-0.4-0.3-0.1-0.1,0.2,0.2s0.7,0.8,1,1.1c0.2,0.2,0.3,0.4,0.5,0.6l0.4,0.4c1.7,2.1,3.2,4.3,4.6,6.6
		c1.5,2.3,2.7,4.8,3.7,7.4c0.9,1.9,1.2,4,1,6.1c-0.3,1.6-1.6,2.8-3.2,3c-0.9,0.2,0.3,1.7,0.5,2c0.5,0.6,1.7,1.8,2.7,1.6
		c5.3-1,4.1-7,2.7-10.7c-2.4-5.9-5.6-11.3-9.7-16.1c-1.4-1.9-3-3.5-4.9-5c-0.8-0.6-3.3-2.2-3.3-0.1s1.2,4.2,2.1,5.9
		c1.4,2.9,3.1,5.8,4.9,8.5c1.8,2.9,3.9,5.5,6.2,8c2.1,2.2,4.6,4.5,7.6,5.4c1.8,0.5,3.7,0.1,4.4-1.8c0.8-2,0-4.6-0.6-6.6
		c-2.1-6.2-5.1-12.1-9-17.4c-1.5-2.3-3.3-4.4-5.4-6.2c-0.7-0.6-3.7-2.9-4.1-0.9c-0.3,1.7,1,4,1.7,5.4c1.3,2.7,2.7,5.4,4.2,8
		c2.9,5,5.9,10.3,9.8,14.5c1.5,1.6,3.5,3.6,5.7,2c1.2-1.1,2.2-2.3,3.1-3.6c1.3-1.6,2.5-3.2,3.9-4.6c1.1-1.4,2.5-2.5,4.1-3.3
		c0.9-0.3,1.8-0.5,2.7-0.6c2.8-0.2,5.5-0.2,8.3-0.4c8.4-0.4,16.9-1.6,24.8-4.8c8.5-3.5,16.3-9.3,20.9-17.4
		c3.9-6.8,5.2-14.9,3.6-22.6c-1.9-8.8-7.5-16.3-14.3-22c-7.4-6.2-16.6-10.5-26.5-9.3c-8.8,1.1-16.9,6-23,12.2
		c-5.8,5.8-10.7,13.2-12.8,21.3c-2,7.9-4.7,15.9-10,22.3c-0.6,0.8-1.3,1.5-2.1,2.2C366.8,314.7,370.2,318.3,371.3,317.5L371.3,317.5
		z"></path><path class="st0" d="M384.3,319.5c7.4-5,9.9-13.9,13.9-21.5c1.9-3.8,4.7-8.4,8.8-9.9s7.1,2.6,7.5,6.3c0.6,4.7-2.4,10.2-6.2,12.8
		c-0.4,0.3-0.9,0.6-1.5,0.8c-0.4,0.1-0.5,0.1-0.3,0.2c-0.6-0.4-0.8-1.7-0.7-2.4c0.2-2.3,2.4-4,4.3-4.9c3.6-1.8,8.5-1.6,11.5,1.3
		c3.7,3.5-0.6,9.2-3.7,11.5c-5,3.6-11.3,4.1-17.1,5c-5.6,1-11.2,2.5-15.4,6.6c-0.8,0.8,0.5,2,1.2,2.3c1,0.6,2.3,0.5,3.2-0.2
		c4.4-4.3,10.7-5.2,16.4-6.1c6.2-1,12.4-2.2,17.2-6.5c2-1.8,3.5-4.1,4.2-6.8c0.8-3.2-0.5-5.9-3-7.9c-4.8-3.7-11.1-4.7-16.8-2.6
		c-2.6,1-5.2,2.7-6.4,5.3c-1.1,2.5-0.4,5.5,1.9,7.1c6,4.3,12.1-2.4,14.5-7.4c2.6-5.3,1.8-11.5-2.8-15.4c-2.3-1.9-5.2-2.9-8.1-2.7
		c-3,0.3-5.7,1.6-7.8,3.8c-8.4,8-8.7,21.9-18.6,28.6C378.4,318.4,382.8,320.6,384.3,319.5L384.3,319.5z"></path><path class="st0" d="M421.9,244.4l2.7-12.1c0.3-1.3-0.4-2.6-1.6-3.1c-1.1-0.5-2.3,0-2.8,1.1c0,0.1-0.1,0.1-0.1,0.2l-2.7,12.1
		c-0.3,1.3,0.4,2.6,1.6,3.1c1.1,0.5,2.3,0,2.8-1.1C421.9,244.5,421.9,244.5,421.9,244.4z"></path><path class="st0" d="M455,261.5l6.8-5.5c0.9-0.7,0.5-2.2-0.2-3s-1.9-1.7-2.9-0.9l-6.8,5.5c-0.9,0.7-0.5,2.2,0.2,3
		S454,262.2,455,261.5L455,261.5z"></path><path class="st0" d="M469.1,285.8l0.5-0.1c0.5,0-0.6,0,0.1,0h0.3h0.4c0.4,0-0.3,0,0.2,0l1,0.1l0.3,0l0.5,0.1c0.3,0.1,0.7,0.1,1,0.2
		c0.7,0.2,1.3,0.4,2,0.7c0.4,0.1,0.8,0.2,1.2,0.2c0.6,0,1.3,0,1.9,0c0.5,0,1-0.1,1.5-0.2c0.1,0,0.5-0.2,0.2-0.3
		c-4-1.5-8.3-2.1-12.5-1.5c-0.2,0-2.1,0.2-1.7,0.6c0.2,0.2,0.9,0.2,1.2,0.2C467.8,285.9,468.4,285.9,469.1,285.8L469.1,285.8z"></path><path class="st0" d="M457,316.3l5.3,5.9c0.4,0.3,0.9,0.4,1.4,0.4c0.7-0.1,1.3-0.3,1.8-0.6c0.8-0.5,1.6-1.5,0.9-2.4l-5.3-5.9
		c-0.4-0.3-0.9-0.4-1.4-0.4c-0.7,0.1-1.3,0.3-1.8,0.6C457.1,314.4,456.2,315.4,457,316.3L457,316.3z"></path></g></svg>