<svg transform="scale(2)" version="1.1" id="Layer_1" xmlns="http://www.w3.org/2000/svg" xmlns:xlink="http://www.w3.org/1999/xlink" x="0px" y="0px" viewBox="0 0 500 500" xml:space="preserve" class="show_show__wrapper__graphic__5Waiy "><title>React</title><style type="text/css">
	.st0{fill:#FFFFFF;}
	.st1{fill:#000005;}
	.st2{fill:#59BE4C;}
</style><g id="character"><path class="st0" d="M215.3,409.9c0,0,35.6,34.1,63.7,21.1s20.1-83.4,17.2-107.4s-23.1-41.1-46.9-33.5s-16.6,77.1-16.6,77.1
		s-52.2-79.3-99.9-55.7c-38.8,19.2-66,131.8-66,131.8"></path><path class="st1" d="M213.7,411.1c5.8,5.5,12.3,10.3,19.2,14.4c11.9,7.1,26.2,12.8,40.3,9.9c5.7-1.1,10.9-3.9,14.9-8
		c3.5-4,6.2-8.6,8-13.6c4.5-12,5.5-25.3,5.8-38c0.2-12.7-0.4-25.5-1.7-38.1c-0.5-4.6-1-9.3-1.5-13.9c-1-8-3.9-15.6-8.7-22.1
		c-4.4-6-10.4-10.7-17.4-13.3c-7.5-2.7-15.7-2.9-23.3-0.5c-9.5,2.8-13.8,12.6-16.1,21.4c-2.9,10.9-3.5,22.5-3.6,33.7
		c0,7.6,0.2,15.1,0.9,22.7c0,0.4,0.1,0.8,0.1,1.2l4.3-0.1c-2.3-3.5-4.8-6.8-7.4-10.1c-5.8-7.5-12-14.5-18.7-21.2
		c-8.1-8.2-17.3-15.4-27.2-21.2c-9.6-5.5-20.5-9.4-31.7-9.1c-10,0.2-19.7,4-27.2,10.6c-7.6,6.6-13.5,14.9-18.6,23.4
		c-5.9,10-11.1,20.4-15.5,31c-4.4,10.5-8.4,21.2-12,32c-2.9,8.7-5.6,17.4-8.1,26.2c-1.3,4.5-2.5,9-3.6,13.5l-0.2,0.6
		c-0.6,2.4,3.9,4.6,4.5,2c0.7-3.1,1.6-6.1,2.4-9.1c2.1-7.8,4.4-15.5,6.8-23.1c3.3-10.3,6.9-20.6,10.8-30.7
		c4.1-10.7,8.8-21.1,14.2-31.2c4.9-9.1,10.4-18,17.3-25.7c2.8-3.2,5.9-6,9.3-8.5c3.9-2.7,8.4-4.6,13-5.7c10.2-2.4,20.7-0.3,30,3.9
		c4.9,2.2,9.6,4.9,14.1,8c2.3,1.6,4.6,3.3,6.9,5.1c1.1,0.9,2.2,1.8,3.2,2.7l1.5,1.3l0.7,0.6l0.6,0.5c7.4,6.7,14.3,14,20.6,21.8
		c2.3,2.8,4.5,5.6,6.6,8.5l0.6,0.8l0.3,0.4c-0.1-0.2-0.3-0.4,0,0l1,1.4c0.4,0.6,0.9,1.2,1.3,1.9c0.1,0.2,0.3,0.4,0.4,0.6
		c0.6,0.9,1.6,1.5,2.6,1.5c0.9,0,1.7-0.7,1.7-1.6c0,0,0,0,0,0c-0.5-5.2-0.8-10.4-0.9-15.6c-0.4-10.6,0.1-21.2,1.5-31.6
		c0.7-5.2,2-10.3,3.7-15.2c0.7-2,1.6-3.9,2.8-5.8c0.6-0.9,1.2-1.8,1.8-2.6c0.3-0.4,0.6-0.7,0.9-1.1c0.3-0.3,0.6-0.6,0.9-0.9
		c1.3-1.2,2.8-2.1,4.5-2.7c3.5-1.2,7.2-1.8,10.9-1.8c6.7,0,13.3,2.3,18.6,6.4c5.4,4.4,9.5,10.1,11.8,16.7c1.9,5.4,2.5,10.9,3.1,16.5
		c1.3,11.5,2.2,23.1,2.4,34.8c0.2,12.7-0.2,25.6-3.1,38c-1.1,5.3-3,10.5-5.5,15.3c-2.1,4.1-5.3,7.6-9.2,10c-1.1,0.6-2.2,1.2-3.4,1.6
		c-1.6,0.6-3.3,1.1-5,1.5c-3.2,0.6-6.5,0.8-9.7,0.5c-6.5-0.7-12.8-2.6-18.6-5.5c-9-4.3-17.4-9.9-24.8-16.6c-0.4-0.4,0.4,0.4,0.1,0.1
		l-0.3-0.2l-0.4-0.4l-0.3-0.3c-0.8-0.8-2.2-1.5-3.3-0.7c-0.8,0.7-0.9,2-0.2,2.8C213.5,411,213.6,411.1,213.7,411.1L213.7,411.1z"></path><path class="st0" d="M160.5,232c0,0,11.7,12,23.6,10.9s34.7-6.6,38,5c3.3,11.6-12.5,16.8-22.7,15.5c0,0,4.5,31.1-13.4,40.7
		s-26.8,4.9-27.4,17.7c0,0-25.1,9.1-28.9-14.8c-0.6-3.7-8.8-35.4,18.7-51.8C148.4,255.3,164.1,247,160.5,232z"></path><path class="st1" d="M158.9,232.1c4.1,4.1,8.8,7.5,14.1,9.9c3.9,1.9,8.2,2.8,12.5,2.6c3.2-0.2,6.4-0.8,9.6-1.2
		c3.6-0.5,7.3-0.9,11-1c3.2-0.2,6.4,0,9.4,0.8c0.5,0.1,1.1,0.3,1.6,0.5c0.1,0.1,1,0.5,0.5,0.2c0.1,0.1,0.2,0.1,0.4,0.2
		c0.4,0.3-0.3-0.3,0.2,0.1c0.1,0.1,0.7,0.6,0.4,0.3c0.2,0.2,0.4,0.4,0.6,0.6c-0.1-0.2,0.3,0.4,0.3,0.5c0.1,0.3,0.3,0.5,0.4,0.8
		c1.1,2.9,0.7,6.1-1.1,8.6c-2.1,2.9-5.6,4.6-9,5.6c-3.6,1.1-7.5,1.4-11.3,1c-0.4,0-1.2,0-1.1,0.6c1.1,8,0.7,16.1-1.4,23.9
		c-1.6,5.7-4.5,11.3-9.4,14.8c-3.5,2.3-7.2,4.1-11.2,5.4c-3.1,1.2-6.4,2.1-9.5,3.1c-2.4,0.8-5,1.6-6.8,3.5s-2.4,5-2.6,7.7l0.3-0.5
		c-0.4,0.1-0.9,0.3-1.3,0.4l-0.3,0.1c0.2-0.1,0.1,0,0,0l-0.9,0.2c-0.6,0.1-1.3,0.3-2,0.4c-3.3,0.7-6.7,0.7-10,0
		c-0.3-0.1,0.3,0.1-0.1,0l-0.3-0.1l-0.7-0.2c-0.2-0.1-0.4-0.1-0.7-0.2s-0.8-0.3-0.4-0.1c-0.4-0.2-0.8-0.4-1.2-0.6
		c-0.6-0.3,0.1,0.1-0.2-0.1l-0.7-0.5l-0.4-0.2c0,0,0.3,0.3,0.1,0.1l-0.6-0.5c-0.3-0.2-0.6-0.5-0.9-0.8c-0.7-0.8-1.4-1.6-1.9-2.6
		c-1.8-3.1-2.3-6.6-3-10.1c-0.2-1.2-0.4-2.4-0.6-3.8c-0.2-1.8-0.4-3.6-0.5-5.5c-0.2-4.6,0.1-9.1,1.1-13.6
		c2.4-10.9,9.3-20.3,18.9-25.9c6.9-4.1,12.9-11.1,12.9-19.5c0-1.6-0.2-3.1-0.6-4.6c-0.3-1.4-4.8-3.4-4.3-1.3
		c2.2,9.3-3.8,17.7-11.5,22.2c-9.7,5.6-16.8,14.9-19.5,25.8c-2,8-1.8,16.4-0.3,24.5c0.1,0.5,0.2,1,0.3,1.5c0,0.2,0.1,0.4,0.1,0.5
		s0.1,0.6,0.1,0.3s0.1,0.5,0.1,0.6c0.1,0.4,0.1,0.8,0.2,1.2c0.2,0.8,0.4,1.5,0.6,2.3c0.4,1.4,1,2.8,1.7,4.1
		c2.4,4.5,6.4,7.9,11.2,9.6c3.8,1.2,7.7,1.6,11.7,1.1c2.4-0.2,4.8-0.7,7.1-1.5c0.1,0,0.2-0.1,0.4-0.1c0.2-0.1,0.3-0.3,0.3-0.5
		c0.1-2.4,0.5-4.9,2.1-6.8c1.4-1.6,3.5-2.4,5.5-3.1c7-2.4,14.3-4.1,20.7-8.1c10.3-6.4,12.9-19.8,13-31c0.1-3.2-0.1-6.3-0.5-9.5
		l-1.1,0.6c6.8,0.8,14.9-0.5,20.2-5c2.5-2,4-5,4.1-8.3c-0.1-3.3-1.6-6.5-4.1-8.6c-5.5-4.6-13.5-4.5-20.3-4
		c-3.7,0.3-7.4,0.8-11.2,1.3c-3.5,0.5-7.1,1.2-10.6,0.6c-4.3-0.7-8.3-2.9-11.8-5.4c-0.4-0.3-1.2-0.9-1.8-1.4s-1.2-1-1.8-1.5l-1.1-1
		c0.6,0.6,0.1,0.1,0,0c-0.7-0.7-2-1.7-3.1-1.5S158.3,231.6,158.9,232.1z"></path><path class="st1" d="M120.9,296.8c0,0-14.5,8.6-19.5,0.9s5.7-8.6,5.7-8.6s-16.6-14-1.5-21.8c0,0-17.1-9.4-10.1-24.7
		s30.2-13.4,30.2-13.4s-6-18.8,11.1-21.1s16.3,10.3,16.3,10.3s10.9-1.6,13,4.9s-5,11.3-5,11.3s2.4,19.5-12.7,20.9l-7.1,27.4
		c0,0,7.3,7.1,4.5,17.5S123.7,309.1,120.9,296.8z"></path><path class="st1" d="M119.4,295.4c-0.3,0.2-0.7,0.4-1,0.6l-0.5,0.3l-0.3,0.1h0.1c-0.5,0.2-1.1,0.5-1.6,0.7c-1.2,0.5-2.4,1-3.7,1.3
		c-1.2,0.3-2.4,0.5-3.6,0.6c-0.6,0-1.2,0-1.8-0.1c-0.4-0.1,0.3,0.1-0.1,0l-0.3-0.1c-0.3-0.1-0.5-0.2-0.8-0.3c-1.1-0.6-2-1.5-2.5-2.6
		c-0.3-0.5-0.5-1.1-0.6-1.7c-0.1-0.4-0.1-0.8,0.1-1.2c0,0.1,0.2-0.4,0.3-0.5c0.2-0.3-0.2,0.3,0,0c0.1-0.1,0.1-0.2,0.2-0.2
		c0.2-0.1,0.5-0.4,0.1-0.1c0.2-0.2,0.5-0.3,0.8-0.5c0.1-0.1,0.4-0.2-0.1,0c0.1-0.1,0.3-0.1,0.4-0.2s0.5-0.2,0.7-0.3s0.5-0.1,0.7-0.2
		c-0.2,0.1-0.4,0.1,0.1,0c0.5-0.1,1-0.2,1.5-0.2c1.3-0.1,3.2-1.9,1.7-3.1c-2.4-2-4.4-4.4-5.9-7.2c-1.1-1.8-1.6-4-1.4-6.2
		c0.5-2.7,2.8-4.5,5.3-5.8c0.8-0.4,1.2-1.4,0.8-2.2c-0.2-0.3-0.4-0.6-0.7-0.8c-0.6-0.4-1.3-0.8-1.9-1.2l-0.4-0.3
		c0.5,0.3-0.1-0.1-0.2-0.2c-0.3-0.3-0.7-0.5-1-0.8c-0.8-0.6-1.5-1.3-2.2-2c-3.2-3.3-5.6-7.8-5.2-12.5c0.5-5.5,3.6-10.4,8.3-13.3
		c2.1-1.3,4.3-2.2,6.6-2.9c1-0.3,2.1-0.6,3.1-0.8c1.1-0.2,2.1-0.4,3.2-0.5s2.2-0.2,3.3-0.3h0.9c0.4,0,0.8,0,1.3,0
		c0.8,0,1.6,0,2.3,0.1c1,0.1,3.3-0.8,2.9-2.2c-0.5-1.7-0.8-3.4-0.9-5.1c-0.4-3.2,0.2-6.4,1.7-9.3c0.9-1.4,2.1-2.5,3.6-3.2
		c2.3-1.1,4.9-1.6,7.5-1.5c1.2,0,2.4,0.1,3.6,0.3c0.9,0.2,1.8,0.5,2.6,0.9c0.7,0.3,1.3,0.7,1.8,1.2c0.3,0.3,0.5,0.6,0.8,0.8
		s0,0,0.1,0.1l0.3,0.5c0.4,0.6,0.7,1.3,0.9,2c-0.2-0.5,0.1,0.3,0.1,0.5c0.1,0.3,0.1,0.6,0.2,0.8c0.1,0.4,0.1,0.8,0.1,1.2
		c0,0.4,0,0.6,0,0c-0.1,1.5,1.3,2.2,2.7,2c0.4-0.1,0.8-0.1,1.3-0.1c0.1,0,0.9,0,0.1,0h0.8c0.5,0,1,0,1.5,0c2.1,0.1,4.4,0.5,5.8,2.2
		c1.8,2,1.3,5.2-0.1,7.4c-0.6,0.9-1.3,1.8-2.1,2.5l-0.5,0.5c-0.5,0.4,0.2-0.1-0.1,0.1s-0.2,0.2-0.4,0.3c-0.6,0.4-1,1.1-1,1.8
		c0.1,0.6,0.1,1.2,0.1,1.8s0,1.6,0,1.8c0,0.1,0,0.3,0,0.4v0.5c0,0.5-0.1,0.9-0.1,1.4c-0.2,1.9-0.6,3.7-1.3,5.5
		c-0.6,1.7-1.6,3.2-2.9,4.6c-0.7,0.7-1.5,1.2-2.4,1.7c-1.2,0.6-2.5,0.9-3.9,1c-1,0.1-1.9,0.8-2.2,1.7l-6.7,26
		c-0.1,0.5-0.3,0.9-0.4,1.4c-0.1,0.7,0.2,1.4,0.7,1.8c0.2,0.3,0.5,0.5,0.7,0.8s-0.2-0.2,0,0.1c0.1,0.1,0.1,0.2,0.2,0.3
		c0.2,0.3,0.4,0.6,0.6,1c0.8,1.3,1.5,2.7,2,4.2c1.1,3.4,1.2,8.1-0.5,11.1c-1.2,1.8-3.1,3-5.2,3.3c-0.4,0.1-0.8,0.1-1.1,0.2h-0.5
		c-0.8,0.1,0.5,0-0.3,0c-0.8,0-1.6-0.1-2.4-0.2c-0.3,0-0.5-0.1-0.8-0.2c-0.4-0.1-0.9-0.2-1.3-0.4c-0.7-0.2-1.4-0.5-2-0.9
		c-2.8-1.4-4.9-4-5.6-7.1c-0.6-2.5-5.5-1.7-5,0.7c1.9,8.3,10.5,12.5,18.5,11.6c3.8-0.3,7.3-2.1,9.7-5.1c2.8-3.8,2.8-9.5,1.5-13.8
		c-0.9-3.2-2.6-6.1-4.8-8.5l0.4,1.4l6.2-24l0.9-3.4l-2.2,1.7c5.4-0.4,10.2-3.6,12.7-8.5c1.7-3.8,2.5-7.9,2.3-12c0-0.9,0-1.8-0.1-2.6
		l-1,1.8c3.6-2.4,6.7-6.6,6.4-11.1c-0.4-5.9-6.2-8.2-11.4-8.5c-1.6-0.1-3.2,0-4.8,0.2l2.7,2c0.1-2-0.3-4-1.2-5.8
		c-2-4.1-6.4-6.1-10.8-6.6c-5.8-0.7-12.7,0.4-17,4.6c-3.1,3-4.2,7.3-4.3,11.5c-0.1,2.5,0.3,5,1,7.4l2.9-2.3c-8-0.7-16,0.8-23.2,4.5
		c-5.6,3-9.7,8.2-11.1,14.4c-1.3,5.8,0.6,11.5,4.3,16c2.2,2.7,4.9,5,8,6.8l0.1-3c-4.6,2.4-8.3,6.7-7.2,12.2c0.8,4,3.3,7.4,6,10.3
		c0.7,0.7,1.4,1.4,2.1,2l1.7-3.1c-4.3,0.4-10.4,3.1-9.1,8.4c1,3.8,4.1,6.6,8,7.1c3.5,0.5,7.1-0.3,10.3-1.5c2.2-0.8,4.3-1.8,6.3-2.9
		c0.9-0.4,1.2-1.4,0.8-2.3c-0.1-0.1-0.2-0.3-0.3-0.4C121.9,294.8,120.5,294.7,119.4,295.4z"></path><path class="st0" d="M151.8,258.2c0,0-5.9-12.1-14.3-7c-8.4,5.1-3.7,34.9,12.4,29.4"></path><path class="st1" d="M154.1,257.1c-1.5-3-4-6.1-7-7.6c-2.8-1.4-6-0.8-8.7,0.5c-2.1,0.9-4,2.4-5.2,4.3c-2.1,3.5-2.2,8-1.8,12
		c0.5,4.3,1.9,8.9,4.7,12.2c1.4,1.7,3.2,3,5.3,3.7c2.8,0.7,5.6,0.4,8.3-0.6c0.6-0.2,2.5-1,2.6-1.8s-1.7-0.2-2-0.1
		c0.2-0.1-0.3,0.1-0.4,0.1c-0.2,0.1-0.3,0.1-0.5,0.1c-0.4,0.1-0.9,0.1-1.3,0.1c-0.9,0-1.7-0.1-2.6-0.3c-1.7-0.5-3.2-1.5-4.4-2.8
		c-2.6-2.9-4.3-6.5-4.9-10.4c-0.8-3.8-0.8-7.7,0.3-11.4c0.2-0.8,0.5-1.5,0.9-2.2c0.2-0.3,0.3-0.5,0.5-0.8c0.2-0.2,0.3-0.4,0.5-0.6
		c0.1-0.1,0.2-0.3,0.2-0.2s-0.1,0.1,0,0c-0.2,0.1-0.6,0.2,0,0c0.2-0.1,0.5-0.2,0.7-0.2c1-0.1,2,0.1,2.9,0.4c3.2,1.3,5.8,4.5,7.3,7.6
		C150,260.3,154.5,258.1,154.1,257.1L154.1,257.1z"></path><path class="st1" d="M180.6,272.5c2,4.7,6.2,8.2,11.2,9.3c2.7,0.5,5.5,0.3,8.2-0.5c0.6-0.2,0.6-0.5,0-0.7c-0.9-0.2-1.8-0.2-2.6,0
		c-0.4,0.1-0.8,0.2-1.2,0.3l-0.5,0.1h-0.5c-0.6,0-1.1,0-1.7-0.2c-1.4-0.4-2.7-1-3.8-1.9c-1.9-1.4-3.5-3.2-4.6-5.3
		c-0.2-0.3-0.4-0.6-0.5-0.9c0-0.1-0.2-0.4-0.1-0.2v-0.1c-0.2-0.6-1.4-0.5-1.9-0.5C182.4,272,180.5,272.1,180.6,272.5L180.6,272.5z"></path><circle class="st1" cx="172.5" cy="250.5" r="2.5"></circle><path class="st0" d="M285.6,304.9l-1.5-15c13.5-7.4,13.2-19.6,13.2-19.6c7.8-3.8,14.2,4.1,18.2,3s4.3-4.2-1.5-10.7
		s-15.5-6.7-15.5-6.7c10.4,0.4,23.8-4.5,20.1-12.7s-12.6-6-12.6-6c0.7-14.6-36.8-7.1-54,15.6s-5.9,50.5-5.9,50.5
		S259.5,312.4,285.6,304.9z"></path><path class="st1" d="M287.7,306l-1.5-15l-0.3,0.4c5.3-2.8,9.5-7.3,11.9-12.8c1-2.3,1.5-4.8,1.6-7.3l-0.3,0.5c2-1,4.3-1.2,6.4-0.7
		c1.7,0.5,3.3,1.1,4.8,1.9c2.9,1.4,6.4,3,9.2,0.6s-0.4-6.8-2-8.9c-3.1-4.1-7.3-7.3-12.1-9c-2.7-1-5.5-1.6-8.3-1.7
		c-1.1,0-0.5,1.2-0.1,1.7c0.8,0.9,1.8,1.5,3,1.7c4,0.1,8-0.4,11.9-1.6c3-1,6.4-2.5,8.3-5.2s1.1-6.1-0.7-8.8
		c-2.2-3.2-5.5-5.4-9.2-6.2c-2-0.4-4-0.4-6,0l3.9,2.8c0.2-4.3-3.2-7.4-6.9-9c-4.2-1.8-9.1-1.5-13.5-0.7
		c-12.4,2.1-24.4,8.7-33.3,17.6c-5.6,5.6-9.7,12.4-12,19.9c-2,6.8-2.6,13.9-1.9,21c0.4,4.6,1.4,9.1,2.8,13.5
		c0.2,0.8,0.5,1.5,0.9,2.3c0.8,1,1.8,1.8,3,2.3c10,5.2,22.3,5.2,33.2,3.1c2.4-0.5,4.7-1,7-1.7c1-0.3-0.4-1.8-0.7-2
		c-0.7-0.6-1.9-1.5-2.9-1.2c-7.8,2.4-16,3.3-24.1,2.7c-4.1-0.3-8.2-1.3-12-3c0.1,0,0.4,0.2,0,0l-0.3-0.2l-0.6-0.3
		c-0.8-0.4,0.4,0.3,0,0l1.5,1.6c-1.7-4.3-2.7-8.9-3.2-13.5c-1.1-10,0.1-20.3,4.7-29.3s12-16.1,20.6-21.3c7-4.2,14.9-7.5,23.1-8.4
		c1.7-0.2,3.5-0.2,5.2-0.1c0.7,0,1.4,0.2,2.1,0.3c0.4,0.1,0.7,0.2,1.1,0.3c-0.5-0.1,0.4,0.2,0.6,0.2l0.3,0.1c-0.6-0.3,0,0,0.1,0.1
		c0.3,0.3-0.1-0.1-0.2-0.1c0.1,0.1,0.3,0.2,0.5,0.3c-0.6-0.4-0.3-0.2-0.1-0.1c0.4,0.4-0.3-0.3,0,0l0.3,0.3c-0.2-0.2-0.1-0.2,0,0
		s0.1,0.2,0.2,0.4c-0.2-0.4,0,0,0,0.1c0.1,0.3,0.2,0.5,0.3,0.8c0.1,0.6,0.2,1.2,0.1,1.8c-0.1,1.5,2.7,3.1,3.9,2.8l0.3-0.1
		c0.3,0-0.2,0,0,0l0.5-0.1c0.9-0.1,1.7-0.1,2.6,0c1,0.1,1.9,0.3,2.8,0.7c0.3,0.1,0.5,0.3,0.8,0.5c0.5,0.4,0.9,0.9,1.2,1.5
		c3.6,5.7-2.8,9.7-7.6,11.2c-3.7,1.2-7.5,1.7-11.3,1.6l2.9,3.3c1.8,0.1,3.6,0.4,5.3,0.9c3.5,0.9,6.5,3,8.7,5.9
		c1.3,1.7,3.8,5.1,1.1,6.8c-2.5,1.5-4.7-0.3-7-1.4c-4-1.9-8.4-3-12.7-1c-0.2,0.1-0.3,0.2-0.3,0.4c0,2.3-0.5,4.6-1.4,6.8
		c-2.3,5.3-6.3,9.7-11.4,12.4c-0.2,0.1-0.3,0.2-0.3,0.5l1.5,15c0.1,1.1,1.2,1.9,2.1,2.4C285.9,306.2,287.8,307,287.7,306z"></path><path class="st1" d="M257.3,260.9l0.1-0.1c0.4-0.3-0.3,0.2,0,0s0.9-0.5,1.3-0.8c1.4-0.8,2.8-1.6,4.2-2.2c3.8-1.8,7.9-3.1,12.2-2.8
		c3.4,0.3,7.4,1.8,9.1,5c0.7,1.2,0.9,2.6,0.5,3.9c-0.3,0.6-0.6,1.1-1,1.6c-0.1,0.2-0.3,0.2,0.1,0c-0.3,0.1-0.6,0.1-0.8,0.1
		c-2.2,0.1-4.3,0.3-6.5,0.5c-2.7,0.5-5.2,1.7-7.2,3.6c-1,1,1.5,0.9,1.8,0.8c0.5-0.1-0.5,0-0.2,0c0.3,0,0.6,0,0.9-0.1
		c-0.6,0,0.1,0,0.2,0h0.6c0.4,0,0.7,0.1,1.1,0.2c2.6,0.8,3.9,3.2,4.2,5.7c0.1,1,5-0.1,4.8-1.5c-0.2-3.1-2.3-5.6-5.3-6.4
		c-1.8-0.4-3.7-0.5-5.5-0.1l1.8,0.8c1.3-1.3,2.9-1.3,4.7-1.3c2.3,0,4.5-0.3,6.7-1.1c3.5-1.4,5.7-4.9,3.8-8.5s-6.4-5.3-10.3-5.8
		c-5.4-0.6-11,1-15.9,3c-3.2,1.3-6.3,3-9.2,4.9c-0.8,0.5-0.5,1.1,0.4,1.2c1.2,0,2.4-0.4,3.4-1.1L257.3,260.9z"></path><path class="st1" d="M284.2,248.8c2.5-1.6,5-3.1,7.6-4.4c4.9-2.7,10.2-4.6,15.7-5.6c1.1-0.2,0.7-1.5,0.2-2.1
		c-0.8-0.9-2-1.4-3.2-1.4c-5.7,0.9-11.1,3.1-16.2,5.7c-2.7,1.4-5.4,2.9-7.9,4.5C278.8,246.8,282.7,249.8,284.2,248.8z"></path></g><g id="paperplane"><path class="st0" d="M358.7,148.3c0,0,7.8,21.6,10.1,20.8s9.2-15.8,9.2-15.8L358.7,148.3z"></path><path class="st2" d="M356.2,148.4c1.9,5.6,4.2,11.1,6.8,16.5c1.3,2.6,3.2,6.5,6.9,5.6c1.5-0.4,2.5-1.8,3.3-3c1-1.6,2-3.3,2.9-5
		c1.5-2.8,2.9-5.7,4.2-8.7c0.5-1-0.7-1.8-1.5-2l-16.9-4.4l-2.4-0.6c-0.9-0.2-2.6-0.3-3.2,0.7s0.8,1.8,1.5,2l16.9,4.4l2.4,0.6l-1.5-2
		c-1,2.2-2,4.3-3.1,6.4c-0.9,1.7-1.8,3.4-2.8,5.1c-0.4,0.7-0.9,1.4-1.3,2.1c-0.2,0.3-0.4,0.6-0.6,0.8l-0.2,0.3c0,0,0.2-0.1-0.1,0.1
		c-0.1,0.1-0.2,0.2-0.3,0.2c-0.2,0.2-0.2,0,0,0.1s0.1-0.1,0.4-0.2c0.7-0.1,1.5-0.1,2.1,0.2c0,0,0.5,0.4,0.2,0.1s0,0,0.1,0.1
		c-0.1-0.2-0.3-0.3-0.5-0.5c-0.4-0.5-0.7-1-1-1.5c-0.1-0.2,0-0.1-0.1-0.1l-0.3-0.5c-0.2-0.4-0.4-0.7-0.6-1.1c-1.6-3.2-3-6.5-4.3-9.8
		c-0.9-2.1-1.7-4.3-2.5-6.5C360.5,146.3,355.5,146.4,356.2,148.4z"></path><path class="st0" d="M336.8,143c0,0,93.3-37.3,92.1-30.3S386,162,386,162L336.8,143z"></path><path class="st2" d="M338.2,143.5c7-2.8,14.1-5.5,21.1-8.2c13.6-5.2,27.3-10.4,41.1-15.1c3.2-1.1,6.4-2.2,9.6-3.2
		c1.5-0.5,2.9-0.9,4.4-1.4l1.9-0.6c0.6-0.2-0.5,0.1,0.1,0l0.3-0.1l1.1-0.3c2.1-0.6,4.2-1.1,6.4-1.6c-1,0.2,0.3-0.1,0.6-0.1
		s1.7-0.1,0.6-0.1c0.3,0,0.6,0,0.9-0.1c-0.2,0-0.6,0-0.2,0s-0.3-0.1-0.1,0c0.1,0,0.2,0,0.3,0c-1,0-0.1,0-0.1,0c0.2,0,0,0-0.1,0
		s0.2,0.1,0.2,0.2c0-0.3,0,0,0,0.1c0,0.2,0,0.4-0.1,0.5c-0.8,1.7-1.8,3.4-3,4.9c-4.2,5.5-8.6,10.8-13.3,15.9
		c-8.4,9.3-17,18.4-25.8,27.4c-0.2,0.2-0.3,0.5-0.2,0.2c0,0.1-0.1,0.1-0.1,0.1l4.3-0.6l-16.7-6.4l-26.4-10.2l-6.1-2.4
		c-1.1-0.3-2.3-0.2-3.4,0.2c-0.5,0.2-1.8,0.8-0.7,1.2l16.7,6.4l26.4,10.2l6.1,2.4c1.1,0.4,3.4,0.2,4.3-0.6
		c7.8-7.9,15.5-16,23.1-24.3c5.1-5.5,10.1-11.1,14.8-17c1.6-1.9,3.1-4,4.4-6.2c0.4-0.7,1.4-2.2,0.7-3s-3-0.7-4.1-0.6
		c-2.1,0.2-4.2,0.6-6.2,1.1c-5.6,1.3-11.1,3.1-16.5,4.9c-14.3,4.6-28.3,9.9-42.3,15.2c-8.7,3.3-17.5,6.7-26.1,10.2l-0.4,0.2
		c-0.5,0.2-1.6,0.7-0.7,1.2S337.4,143.8,338.2,143.5z"></path><path class="st2" d="M408,122.1l-16,9.6l-25.3,15.2l-5.8,3.5c-0.3,0.2,2.4,4.3,3,4l16-9.6l25.3-15.2l5.8-3.5
		C411.3,125.9,408.6,121.8,408,122.1L408,122.1z"></path><path class="st2" d="M325,254.7c5.6,1.3,11.3,2.5,17.1,2.1c4.8-0.3,9.4-1.9,13.4-4.6c8-5.3,14.8-14.8,14.6-24.7
		c-0.1-4.8-2.4-9.3-6.2-12.3c-3.5-2.7-8.3-3.2-12.2-1.2c-3.7,2-6.3,6.4-4.6,10.5c2.3,5.5,8.7,4.1,13.1,2.2
		c10.3-4.8,15.2-16.7,11.4-27.4c-0.4-1.3-1.6-2.1-2.9-2c-1,0.2-1.7,1.2-1.5,2.2c0,0.1,0.1,0.2,0.1,0.4c3.4,9.4-1.5,19.7-10.8,23.1
		c0,0,0,0,0,0c-0.8,0.3-1.7,0.5-2.5,0.7c-0.6,0.1-1.8,0.5-2.4,0.2s-0.3-2.2,0.1-2.9c0.6-1.3,1.7-2.3,3-2.9c2.6-1.3,5.8-0.8,7.9,1.2
		c2.5,2.6,3.6,6.2,3,9.7c-1,7.6-6.4,14.9-12.7,19.1c-3.6,2.4-7.8,3.9-12.2,4.2c-5.4,0.4-10.8-0.9-16-2.1c-1-0.2-1.9,0.5-2.1,1.5
		c0,0.2,0,0.3,0,0.5C322.7,253.5,323.7,254.5,325,254.7L325,254.7z"></path><path class="st2" d="M193.4,95.1c4.8-1.3,9.6-2.8,14.3-4.4c1.3-0.4,2.5-0.9,3.8-1.4c0.5-0.2,1.5-0.6,1.9-1.1c0.8-1.4-2-3.3-3.1-3.9
		c-3.3-2.1-6.8-3.9-10.3-5.7c-5.6-2.9-11.2-5.8-16.8-8.6c-6-3-12.1-5.9-18.3-8.6c-4.7-2.2-9.6-4.1-14.5-5.7
		c-1.4-0.5-2.8-0.8-4.3-0.8c-1.2,0.1-1.4,0.8-1.6,1.9c-0.1,2.4,0,4.9,0.4,7.3c0.4,3.6,1,7.1,1.7,10.7c1.2,6.2,2.5,12.8,5.1,18.7
		c0.9,2.2,2.5,5,4.9,5.8c1.6,0.3,3.3,0.4,5,0.2c2-0.1,4-0.3,5.9-0.5c0.9-0.1,1.8-0.2,2.7-0.3l-3-2.2c3.9,6.2,7.8,12.5,12.5,18.2
		c1,1.2,2.5,3.1,4.1,3.5c1,0.3,1.5-1,1.9-1.7c1.8-3.8,3.3-7.8,4.6-11.8c1.1-3.2,2.2-6.4,3.2-9.6c0.4-1.1-3.4-4.1-3.7-3.1
		c-2,6.4-4.1,12.9-6.7,19c-0.5,1.2-1,2.3-1.7,3.4c0,0.1-0.1,0.2-0.2,0.2c0-0.1,0.8,0.3,0.9,0.4c0.6,0.4-0.4-0.2,0.2,0.2
		c0.4,0.3,0,0-0.1-0.1c-0.3-0.3,0.4,0.4,0.1,0.1c-0.1-0.2-0.3-0.3-0.4-0.4s-0.5-0.6-0.7-0.9c-0.1-0.1,0.2,0.2-0.1-0.1l-0.4-0.6
		c-0.6-0.8-1.2-1.6-1.8-2.5c-1.3-1.8-2.6-3.7-3.8-5.6c-1.7-2.6-3.4-5.2-5.1-7.8c-0.4-0.7-1.9-2.4-2.9-2.2c-2.7,0.4-5.4,0.6-8.1,0.8
		c-0.9,0-1.8,0.1-2.7,0.1c-0.4,0-0.8,0-1.1,0c-0.4-0.1-0.7-0.1-1.1-0.1c0.3,0.1,0.5,0.3,0.7,0.4c0.4,0.3,0.8,0.7,1.1,1.1
		c-0.3-0.5,0,0.1-0.1-0.1s-0.2-0.3-0.3-0.5c-0.4-0.9-0.8-1.8-1.1-2.8c-0.4-1.3-0.9-2.6-1.2-3.9c-0.9-3.2-1.7-6.5-2.4-9.8
		c-1.3-6-2.5-12.2-2.7-18.3c0-0.9,0-1.7,0.1-2.6c0.1-0.4,0-0.4,0.4-0.6c-0.2,0.1,0.2,0,0.3,0c0.2,0,0.5,0,0.7,0
		c0.6,0,1.1,0.1,1.6,0.3c4.2,1.1,8.3,2.6,12.2,4.4c5.7,2.4,11.3,5.1,16.9,7.8c9.7,4.7,19.4,9.5,28.8,14.8l1.7,1l0.3,0.2
		c0.2,0.1-0.5-0.3-0.1-0.1l0.4,0.3c0.5,0.3-0.6-0.6-0.7-0.6c-0.4-0.4-1.5-1.9-1.2-2c-0.1,0-0.1,0.2-0.2,0.2c-0.7,0.4-1.5,0.8-2.3,1
		c-5.2,2-10.4,3.7-15.8,5.1l-1.2,0.3C189.3,91.7,192.2,95.4,193.4,95.1z"></path><path class="st2" d="M156.8,70.1c5.6,5.4,11.1,10.8,16.6,16.3c1.8,1.8,3.6,3.6,5.3,5.3l1,1.1l0.5,0.5l0.2,0.3
		c0.3,0.3-0.1-0.1,0.1,0.1c0.6,0.6,1.1,1.2,1.6,1.7c0.3,0.3,0.6,0.8,1,1.1s-0.3-0.4-0.2-0.3c0.2,0.3-0.3-0.7-0.4-0.7
		c-0.2-0.3-0.3-0.7-0.3-1c0,0.1,0,0.3,0,0.4c0.1,2,0.1,4-0.1,6c-0.2,4.5-0.5,9-0.8,13.5c0,1.2,0.4,2.3,1.2,3.2
		c0.4,0.4,1.6,1.3,1.7,0.2c0.3-4.1,0.5-8.1,0.7-12.2c0.1-2.5,0.2-5,0.2-7.4c0-1.8-0.6-3.5-1.7-4.9c-2.5-2.9-5.2-5.7-8-8.3
		c-3.9-3.9-7.8-7.8-11.8-11.7c-2.4-2.4-4.8-4.7-7.2-7.1c-0.7-0.7-1.3-0.2-1.3,0.7C155.3,68.2,155.8,69.3,156.8,70.1L156.8,70.1z"></path><path class="st2" d="M159,98.9l21.4-1.2l3.1-0.2c1.3,0,2.4-0.9,2.6-2.2c0-1.2-1-2.2-2.2-2.2c0,0-0.1,0-0.1,0l-21.4,1.2l-3.1,0.2
		c-1.3,0-2.4,0.9-2.6,2.2c0,1.2,1,2.2,2.2,2.2C158.9,98.9,159,98.9,159,98.9z"></path><path class="st2" d="M155.4,70.1l29.6,20l4.2,2.8c1,0.8,2.4,0.6,3.2-0.3c0,0,0,0,0-0.1c0.6-1.1,0.3-2.6-0.8-3.4l-29.6-20l-4.2-2.8
		c-1-0.8-2.4-0.6-3.2,0.3c0,0,0,0,0,0.1C154,67.9,154.3,69.3,155.4,70.1L155.4,70.1z"></path><path class="st2" d="M363.2,363.9c-3.6-4.6-7.1-9.4-10.4-14.2c-0.5-0.7-1-1.5-1.5-2.2c-0.1-0.2-0.2-0.4-0.3-0.5
		c0.3,0.5,0,0-0.1-0.1c-0.2-0.4-0.5-0.7-0.7-1.1c-0.3-0.5-0.6-1.1-0.9-1.6c-0.1-0.2-0.2-0.4-0.3-0.6c-0.2-0.4,0.2,0.6,0.1,0.2
		c0-0.1-0.1-0.2-0.1-0.3c0.2,0.6,0,1.2-0.4,1.7c-0.1,0.1-0.6,0.5-0.8,0.4c0.1,0,0.3,0,0.4,0h1.6c0.6,0-0.4,0,0.1,0h0.6l1.5,0.1
		c1.1,0.1,2.3,0.1,3.5,0.2c2.9,0.2,5.9,0.5,8.8,0.7c7.6,0.7,15.3,1.5,22.9,2.4c8,0.9,15.9,2,23.8,3.3c5.9,0.8,11.7,2.1,17.4,3.8
		c0.5,0.1-0.5-0.2,0,0l0.4,0.1l0.6,0.2c0.4,0.2,0.8,0.3,1.2,0.5s0.6,0.4,0.9,0.5c-0.7-0.3-0.3-0.2-0.1,0s0.6,0.6-0.1-0.1
		c0.5,0.5-0.1-0.4-0.2-0.6c0.1,0.4,0-0.7,0-0.3s0.1-0.7,0-0.4s-0.2,0.4,0.1-0.2c-0.4,0.9-0.8,1.7-1.3,2.5l-0.5,0.8
		c-0.1,0.1-0.2,0.3-0.3,0.4c-0.3,0.5,0.2-0.3-0.1,0.1c-0.5,0.7-1,1.3-1.4,2c-1.1,1.5-2.3,2.9-3.4,4.3c-2.7,3.3-5.5,6.5-8.4,9.6
		c-5.3,5.8-10.8,11.6-17.1,16.4l-0.4,0.3c-0.4,0.3,0.3-0.2-0.1,0.1l-0.7,0.5c-0.4,0.3-0.9,0.6-1.4,0.8c-0.2,0.1-0.3,0.2-0.5,0.3
		c-0.4,0.2-0.5,0,0,0c-0.1,0-0.2,0.1-0.3,0.1c-0.2,0-0.1-0.1,0.3,0c-0.4-0.1,0.2,0,0.3,0.1c-0.2-0.2-0.8-0.4-1-0.5
		c-0.3-0.2-0.6-0.4-0.9-0.6c-1-0.7-2-1.4-2.9-2.2c-1.8-1.5-3.6-3-5.3-4.6c-0.8-0.7-1.5-1.4-2.3-2.1c-0.5-0.5-1.3-0.6-2-0.4
		c-3.1,1.6-6.3,3.1-9.4,4.6c-4.9,2.5-9.9,4.7-15.1,6.6c-0.4,0.1-0.9,0.3-1.3,0.4s0.3-0.1-0.1,0l-0.6,0.1c-0.2,0-0.5,0-0.8,0.1
		c0.7-0.2,1.8,0.9,2,1.8c-0.1-0.4,0,0.7,0,0.3c0-0.1,0-0.2,0-0.3s0-0.3,0-0.4c0,0.6,0,0.2,0-0.1c0.1-0.9,0.3-1.9,0.4-2.8
		c1-5.5,2.5-10.9,4-16.2c1-3.8,2.1-7.7,3.2-11.5c0.7-2.4-3.1-5-4-2c-2.7,9-5.4,18.2-7.2,27.5c-0.4,1.7-0.6,3.5-0.6,5.3
		c0,1.8,1.6,3.3,3.4,3.2c0.3,0,0.6-0.1,1-0.2c2.2-0.6,4.4-1.4,6.5-2.4c2.8-1.2,5.6-2.5,8.4-3.8c4.1-1.9,8.2-3.9,12.2-5.9l-2-0.4
		c2.6,2.5,5.3,4.9,8.1,7.2c1.6,1.3,3.5,2.9,5.5,3.5c1,0.3,2,0.1,2.9-0.4c2.5-1.4,4.8-3.1,6.9-5.1c3.2-2.8,6.2-5.8,9.2-8.8
		c6.1-6.1,11.8-12.6,17-19.5c1.4-1.9,3.5-4.3,4-6.8c0.4-2.3-1.3-4-3.1-5c-1.9-1-4-1.7-6.1-2.2c-3-0.8-6-1.5-9-2.1
		c-7.9-1.5-15.8-2.6-23.7-3.6c-8.2-1.1-16.5-2-24.8-2.8c-5.9-0.6-11.7-1.1-17.6-1.4c-1.3-0.2-2.7-0.2-4-0.1
		c-3.3,0.5-1.1,4.8-0.2,6.4c3.7,6.5,8.4,12.4,12.9,18.4l1.1,1.4c0.6,0.9,2,1.4,2.9,0.5S363.9,364.8,363.2,363.9z"></path><path class="st2" d="M414,360.1c-10.2,2.3-20.4,4.7-30.6,7.1c-5,1.2-10,2.3-14.9,3.9c-1.3,0.4-2.3,1.2-3,2.4
		c-1.6,2.4-3.1,4.9-4.5,7.4c-3,5.1-5.8,10.2-8.6,15.4c-0.5,1.1-0.1,2.4,0.9,3c0.8,0.5,2.5,1,3.1,0c2.4-4.3,4.8-8.7,7.2-13
		c1.6-2.8,3.2-5.6,4.9-8.3c0.5-0.8,1-1.6,1.6-2.4c0.1-0.1,0.2-0.2,0.2-0.3s-0.4,0.4-0.1,0.1s-0.6,0.2,0,0c4.4-1.4,9-2.5,13.5-3.6
		c6.8-1.7,13.5-3.3,20.3-4.8c4.1-1,8.2-1.9,12.3-2.8c1.2-0.3,1.3-1.7,0.8-2.6C416.5,360.4,415.2,359.8,414,360.1L414,360.1z"></path><path class="st2" d="M394.2,391.4l-20.6-16.7l-3-2.4c-1-0.8-5.2,1.7-4.1,2.6l20.6,16.7l3,2.4C391,394.8,395.2,392.2,394.2,391.4
		L394.2,391.4z"></path><path class="st2" d="M414.8,360.5l-17,0.5l-27,0.9l-6.2,0.2c-0.9,0-2.3,0.3-2.1,1.5s1.9,1.7,2.8,1.7l17-0.6l27-0.9l6.2-0.2
		c0.9,0,2.3-0.3,2.1-1.5S415.8,360.5,414.8,360.5z"></path><path class="st2" d="M259.5,220.8c1.8-16.1,2.5-33.5-5.7-48.1c-6.4-11.5-19.3-22.1-33.2-20.1c-6.3,0.9-12.8,4.7-13.7,11.6
		c-0.1,0.9,0.9,1.7,1.6,2.1c2.9,1.9,6.6,1.7,9.3-0.3c2.7-2.1,4.6-5,5.3-8.3c2.5-10.4-1.4-21.3-9.9-27.9c-0.8-0.6-2.3-1.3-3.2-0.6
		s0,1.9,0.6,2.4c5.5,4.3,8.6,10.9,8.7,17.9c0.2,3.5-0.6,7.1-2.3,10.2c-1.2,1.9-4.6,5.7-7,4.1l1.6,2.1c0.7-5.3,5.5-8.5,10.4-9.5
		c5.4-1.2,10.9,0.3,15.5,3.1c11.3,6.9,16.8,20.2,18.2,32.9c1,8.9,0.3,17.9-0.7,26.8c-0.2,1.9,4.3,3.9,4.6,1.7L259.5,220.8z"></path><path class="st2" d="M314.7,298.1c-3.7,10.6,1,22.8,10,29.2c2.6,1.8,5.5,3.1,8.7,3.8c1.2,0.2,2.3,0,3.4-0.5c0.4-0.2,1.7-1,0.6-1.3
		c-13.6-2.9-22.4-18.9-17.9-32C319.8,296.4,315.2,296.9,314.7,298.1L314.7,298.1z"></path></g></svg>