<svg transform="scale(1)" version="1.1" id="Layer_1" xmlns="http://www.w3.org/2000/svg" xmlns:xlink="http://www.w3.org/1999/xlink" x="0px" y="0px" viewBox="0 0 500 500" xml:space="preserve" class="show_show__wrapper__graphic__5Waiy "><title>React</title><style type="text/css">
	.st0{fill:#000005;}
	.st1{fill:#59BE4C;}
	.st2{fill:#FFFFFF;}
</style><g id="character-2"><rect class="st0" x="355.8" y="381.2" width="123.1" height="5.7"></rect><path class="st0" d="M478.1,384.9H360c-1.6,0-3.2-0.1-4.8,0H355l3.1,2.4v-5.7l-1.5,1.6h118c1.6,0,3.2,0.1,4.8,0h0.2l-3.1-2.4v5.7
		c0,2.3,4.6,3.7,4.6,0.8v-5.7c0-1.5-1.9-2.4-3.1-2.4H370.1c-5,0-10-0.2-14.9,0H355c-0.8,0-1.5,0.7-1.5,1.5c0,0,0,0.1,0,0.1v5.7
		c0,1.5,1.9,2.4,3.1,2.4h107.9c5,0,10,0.3,14.9,0h0.2c0.8,0,1.5-0.7,1.5-1.5c0-0.2,0-0.4-0.1-0.6
		C480.5,385.7,479.3,384.9,478.1,384.9z"></path><path class="st1" d="M450.4,349.8c-5.3-4.4-10.8-8.6-16.2-13c-1-0.8-2.1-1.7-3.1-2.5c-0.5-0.6-1.4-0.6-1.9-0.1
		c-0.2,0.2-0.3,0.4-0.4,0.6c-0.3,1.2,0.6,2.4,1.5,3.1c5.3,4.4,10.8,8.6,16.2,13c1,0.8,2.1,1.7,3.1,2.5c0.5,0.5,1.4,0.6,1.9,0.1
		c0.2-0.2,0.3-0.3,0.4-0.6C452.2,351.7,451.3,350.5,450.4,349.8L450.4,349.8z"></path><path class="st1" d="M453.2,339.3l-10-16.8c-0.8-1-1.9-1.6-3.2-1.5c-1.1,0.1-1.3,0.9-0.8,1.7l10,16.8c0.7,1,1.9,1.6,3.2,1.5
		C453.5,340.9,453.7,340.2,453.2,339.3L453.2,339.3z"></path><path class="st1" d="M431.7,350.1c-5.2-2.1-10.3-4.4-15.4-6.8c-0.8-0.4-2.3-0.4-2.5,0.7s1.1,2.2,2,2.6c5.1,2.4,10.2,4.6,15.4,6.8
		c0.8,0.3,2.3,0.4,2.5-0.8S432.6,350.5,431.7,350.1L431.7,350.1z"></path><path class="st1" d="M424.3,328.4c-2-2-4.2-3.7-6.6-5.3c-1.2-0.6-2.6-0.3-3.4,0.8c-0.4,0.5-0.5,1.1-0.4,1.7
		c0.2,0.6,0.6,1.1,1.1,1.4c0.5,0.4,1,0.7,1.6,1.1l-0.5-0.4c1.6,1.2,3.1,2.5,4.5,3.8c0.5,0.4,1.1,0.7,1.7,0.7c0.7,0,1.3-0.2,1.8-0.6
		c0.5-0.4,0.8-1,0.8-1.6C425,329.4,424.8,328.8,424.3,328.4L424.3,328.4z"></path><path class="st0" d="M371.8,381.2c0.9,0.1,1.7-0.5,1.8-1.4c0-0.2,0-0.4,0-0.6c-0.5-1.2-1.7-1.9-3-1.8c-0.9-0.1-1.6,0.5-1.7,1.4
		c0,0.2,0,0.4,0,0.5C369.4,380.5,370.6,381.2,371.8,381.2L371.8,381.2z"></path><path class="st2" d="M371.2,379.3c8.4,2.8,13.4-2.5,13.4-2.5c3.4,3.7,7.7-4,7.7-4s3.2,0,4-4.3s-3.2-8-3.2-8s13.5,1,14.4-1.1
		s-5.2-6.2-17.5-5.4s-27.9,12.9-27.9,12.9l-10,4.9"></path><path class="st0" d="M369.7,380.8c5.5,1.8,12.6,1.2,16.9-3.2l-4.2,0.2c4.4,4.4,10-0.5,12.3-4.6l-2.6,1.3c3.4-0.1,6.2-2.6,6.8-6
		c0.6-3.4-1.2-6.9-3.7-9.1l-2.9,2.7c1.9,0.1,3.8,0.2,5.7,0.3c2.9,0.2,5.7,0,8.6-0.6c2.1-0.5,4.7-2.1,3.2-4.5
		c-1.3-2.1-4.4-3.2-6.7-3.8c-8.6-2.3-17.5-1-25.6,2.5c-5.7,2.6-11.2,5.7-16.2,9.5c-0.3,0.2-0.6,0.5-0.9,0.7
		c-0.2,0.2,1.5-0.8,0.6-0.4c-1.1,0.5-2.2,1.1-3.3,1.6l-6.4,3.2c-0.8,0.4-2,1.2-1.3,2.2s2.4,0.8,3.2,0.4l10-4.9
		c0.4-0.2,0.7-0.4,1.1-0.7c0.3-0.2-0.5,0.3-0.3,0.2l0.3-0.2c0.6-0.5,1.3-1,2-1.4c2.4-1.7,4.9-3.2,7.4-4.6c3.1-1.8,6.4-3.3,9.8-4.5
		c3.5-1.2,7.1-1.7,10.8-1.5c3.1,0,6.2,0.7,9,1.9c0.7,0.3,1.4,0.9,1.9,1.5c0.2,0.3,0,0,0.1,0.1c0,0.1,0.1,0.2,0.1,0.3
		c0-0.2,0.1-0.2,0,0c0.1-0.2,0.3-0.5,0.5-0.6c-0.2,0.1,0.5-0.3-0.1,0c-0.3,0.1,0.5-0.1,0.2-0.1c-0.1,0-0.3,0.1-0.4,0.1l-0.4,0.1
		h-0.3l-0.8,0.1c-1.5,0.1-3,0.1-4.5,0.1c-0.7,0-1.4,0-2.2-0.1h-1.1c-0.1,0-0.5,0,0,0h-0.5l-1.7-0.1c-1.3-0.1-4.8,1-2.9,2.8
		c-0.6-0.5,0.1,0.2,0.3,0.3c0.4,0.4,0.7,0.8,1,1.3c0.9,1.3,1.5,2.8,1.5,4.3c0,0.8-0.2,1.6-0.5,2.4c-0.1,0.3-0.3,0.6-0.5,0.9
		c0,0-0.5,0.5-0.2,0.2c-0.1,0.1-0.2,0.1-0.3,0.2l0.2-0.1l-0.3,0.1c0.4-0.1,0.5-0.1,0.2-0.1c-0.7,0.2,0.5,0,0.1,0c-1,0-2,0.5-2.6,1.3
		c-0.5,0.9-1.1,1.7-1.7,2.4c-0.3,0.3-0.5,0.6-0.8,0.8c-0.3,0.2-0.5,0.5-0.9,0.6c0.4-0.2-0.2,0,0.1,0s0.4,0,0.6,0
		c-0.3,0.1-0.2-0.1,0,0c-0.2-0.1-0.3-0.2-0.5-0.3c-1.3-1-3.1-0.9-4.2,0.2c-0.3,0.2-0.5,0.5-0.8,0.7c0.5-0.4-0.4,0.2-0.5,0.3
		l-0.7,0.4c-0.4,0.2,0.2-0.1-0.3,0.1c-2.4,1-5.1,1.1-7.6,0.2c-1.2-0.4-2.5-0.1-3.5,0.7c-0.5,0.4-0.6,1.2-0.2,1.7
		C369.3,380.5,369.5,380.7,369.7,380.8L369.7,380.8z"></path><path class="st2" d="M388,363.9c0,0,5.9,2.7,4.4,8.9"></path><path class="st0" d="M388.1,365c-1-0.4-0.5-0.2-0.1,0c0.1,0.1-0.7-0.4-0.4-0.2l0.1,0.1L388.1,365
		C388.2,365.1,388.5,365.4,388.1,365c-0.4-0.3,0,0,0.1,0.2l0.3,0.3c0.1,0.1,0.3,0.3,0,0s0,0,0,0c0.2,0.2,0.4,0.6,0.7,0.8
		c-0.1-0.1-0.2-0.3-0.1-0.1l0.1,0.2c0.1,0.2,0.2,0.4,0.3,0.5s0.2,0.3,0.2,0.5s0.1,0.2,0,0l0.1,0.3c0.3,1,0.4,2.1,0.2,3.2v-0.3
		c0,0.3-0.1,0.6-0.2,0.9c-0.2,0.9,1.1,1.7,1.8,2c0.5,0.3,1.1,0.5,1.7,0.6c0.2,0,0.9,0.1,1-0.2c0.6-2.1,0.2-4.4-0.9-6.3
		c-1-1.6-2.4-2.9-4-3.8c-0.6-0.4-1.2-0.7-1.9-1c-0.4-0.2-2.2-0.7-2.1,0.2c0,0.4,0.5,0.8,0.8,1c0.5,0.4,1.1,0.7,1.7,1L388.1,365z"></path><path class="st2" d="M386.2,371.7c0,0-1.3,11.6-17,7.5"></path><path class="st0" d="M383.7,371.6c0,0.3-0.1,0.7-0.2,1c0,0.2-0.1,0.3-0.2,0.5s0.1-0.3,0,0l-0.1,0.3c-0.2,0.5-0.4,0.9-0.7,1.3
		c-0.3,0.5-0.6,0.9-1,1.4l-0.3,0.3c-0.1,0.1-0.4,0.4-0.1,0.1c-0.2,0.2-0.5,0.5-0.8,0.7c-0.3,0.2-0.5,0.4-0.8,0.5
		c-0.1,0.1-0.5,0.3-0.2,0.1l-0.6,0.3c-0.3,0.1-0.7,0.3-1,0.4c0.5-0.2-0.1,0-0.2,0.1s-0.5,0.1-0.7,0.1l-0.3,0.1c-0.3,0,0.4,0,0,0
		l-0.8,0.1h-0.4c-0.3,0,0.5,0,0,0c-0.3,0-0.6,0-0.9,0l-1-0.1c0.5,0-0.5-0.1-0.6-0.1c-0.7-0.1-1.6-0.3-2.1-0.4
		c-1-0.3-2.5-0.5-3.4,0.2s0.1,1.5,0.8,1.6c5.1,1.3,10.9,1.9,15.6-0.8c2.3-1.3,4-3.5,4.8-6c0.2-0.5,0.3-1,0.4-1.5
		C388.9,370.3,384,369.9,383.7,371.6L383.7,371.6z"></path><path class="st0" d="M314.9,290.6L295,312.1c-3.6,4-9.1,5.6-14.3,4.2c-8.3-2.4-15.9-12.4,3.4-48.4c13.4-25,31.1-32,43.4-28.9
		s18.6,10.3,19.2,16c0.4,4.3-15.8,23.2-15.8,23.2L314.9,290.6z"></path><path class="st0" d="M313.2,288.8l-11.3,12.2l-6.9,7.4c-1.9,2.1-3.8,4.1-6.5,5.1c-3.4,1.3-7.2,1.2-10.4-0.5c0.7,0.4,0,0-0.2-0.1
		c-0.2-0.1-0.4-0.2-0.5-0.4l-0.5-0.3c-0.6-0.4,0.3,0.4-0.2-0.2c-0.3-0.3-0.6-0.7-1-1c0.6,0.6,0.1,0.2,0,0l-0.5-0.7
		c-0.4-0.7,0.1,0.4-0.1-0.2c-0.1-0.2-0.2-0.4-0.3-0.6s-0.2-0.5-0.3-0.8s-0.1-0.3-0.1-0.4c0.2,0.7,0,0,0-0.1
		c-0.1-0.6-0.2-1.1-0.3-1.7c0-0.3-0.1-0.7-0.1-1c0,0.5,0,0,0-0.1v-0.7c0-3.6,0.5-7.3,1.6-10.8c1.6-5.4,3.6-10.7,6-15.8
		c2.9-6.5,6.4-12.6,10.5-18.4c5.8-7.9,13.6-15.2,23.2-17.9c8.6-2.3,17.8-0.2,24.6,5.5c1.6,1.2,2.8,2.8,3.8,4.5
		c0.4,0.7-0.2-0.4,0.1,0.3c0.1,0.2,0.2,0.4,0.3,0.6s0.4,1.1,0.2,0.7c0.1,0.4,0.2,0.8,0.3,1.2v0.2c0-0.3,0-0.4,0-0.2
		c0.1,0-0.2,0.8,0,0c-0.3,1.2-0.8,2.3-1.4,3.3c-0.9,1.6-2,3.2-3.1,4.8c-2.3,3.3-4.8,6.4-7.3,9.5c-0.9,1.1-1.8,2.2-2.7,3.3
		c-0.3,0.3-0.5,0.6-0.8,0.9c-0.4,0.5-0.1,0,0.1,0c-0.4,0-1.6,1.2-1.9,1.5l-4,3.1l-8.5,6.5l-1.5,1.2c-1.9,1.4,0.9,5.6,2.7,4.2
		l14.8-11.4c1.1-0.9,2.2-1.9,3.1-3.1c2.5-3,4.9-6,7.2-9c2.5-3.1,4.7-6.5,6.5-10.1c0.7-1.2,0.9-2.6,0.8-4c-0.3-2.2-1.1-4.3-2.4-6.1
		c-3-4.7-7.9-8.1-13-10.2c-4.4-2-9.1-2.9-13.9-2.7c-9.5,0.6-18,6.1-24.6,12.8c-4.7,4.8-8.6,10.3-11.8,16.2c-3.5,6.2-6.5,12.6-9,19.2
		c-2.7,7.2-5.4,15.9-3.2,23.7c1.2,4.8,4.8,8.7,9.5,10.2c5.9,1.9,12.4,0.2,16.5-4.4c1.4-1.4,2.7-2.9,4-4.4l14.8-16l1-1.1
		C318.1,290.8,314.9,287,313.2,288.8z"></path><path class="st2" d="M324.4,269.5L324.4,269.5c8.2-0.7,15.7-5.1,20.4-11.8l1.8-2.6c0.9,6.9,1.2,12.2,1.8,16.1c0.4,3,3,4.7,4.7,5.6
		c7.4,4,8.1,6.8,5.2,7.3c-3.4,0.6-11.2-1.1-11.2-1.1s-0.5,13.1-15,15.2c-7.4,1.1-8.1,2.2-8.1,4.6s0.2,4.3,0.2,4.3s-1.5,6.7-11.4,2.6
		c-11-4.5-8-13.7-8-13.7s2.9,0.2,4.1-1.8c1-2.1,1.9-4.3,2.6-6.5c0,0,10.3,4.5,12.4-18.5"></path><path class="st0" d="M325.4,270.8c5.5-0.5,10.7-2.4,15.2-5.6c3.3-2.6,6.1-5.7,8.3-9.2l-4.7-1.2c0.5,4.2,1,8.5,1.4,12.7
		c0,1.6,0.3,3.2,0.8,4.8c0.7,1.7,1.9,3.1,3.4,4c1.5,1.1,3.3,1.9,4.9,2.9c1.1,0.6,2,1.5,2.7,2.5c0.1,0.2,0.1,0.3,0.1,0.5
		c0,0.1-0.1,0.3-0.2,0.3c-0.2,0.1,0.2,0-0.2,0.1c-0.1,0-0.3,0.1-0.4,0.1c-0.6,0-1.3,0-1.9,0c-1.7-0.1-3.4-0.3-5.1-0.6l-0.5-0.1
		l-0.4-0.1l-0.6-0.1l-0.7-0.1c-0.5-0.1-2.7-0.4-2.7,0.6c-0.2,2.7-1.1,5.3-2.6,7.6c-1.4,2.2-3.3,3.9-5.6,5.1
		c-3.3,1.7-6.9,1.7-10.4,2.6c-1.9,0.5-4.2,1.4-4.6,3.6c-0.1,1.6-0.1,3.1,0.1,4.7c0,0.2,0.1,0.5,0.1,0.7s0-0.3,0-0.2
		s-0.1,0.3-0.1,0.4c-0.2,0.5-0.4,0.9-0.7,1.2c-0.5,0.6-1.1,1.1-1.9,1.3c-1,0.3-2.1,0.3-3.1,0c-1.8-0.4-3.5-1.2-5-2.3
		c-3.3-2.4-4.8-6.6-3.7-10.5l-2.1,0.7c2.4,0.1,5.1-0.4,6.3-2.7c1-2,1.9-4.1,2.5-6.3l-3.4,0.4c1.9,0.8,3.9,0.9,5.9,0.5
		c3.7-0.9,6-4.1,7.3-7.5c1.4-3.8,2.3-7.9,2.5-12c0.2-1.8-4.7-2.9-4.9-1.2c-0.5,5.2-1.2,11.6-4.7,15.8c-0.7,1-1.7,1.8-2.9,2.2
		c0.4-0.1-0.1,0-0.4,0.1l-0.4,0.1c-0.3,0.1,0.5,0,0.1,0c-0.2,0-0.4,0-0.6,0c-0.4,0,0.5,0.1,0.2,0c-0.1,0-0.2,0-0.3,0
		c-0.7-0.1,0.3,0.1,0.1,0s-0.2-0.1-0.4-0.1c-0.3,0,0.8,0.3,0.2,0.1c-0.8-0.3-3-0.8-3.4,0.4c-0.5,1.7-1.1,3.4-1.9,5
		c-0.3,0.9-0.9,1.7-1.8,2.2c-0.2,0.1-0.4,0.1-0.5,0.2c0,0-0.7,0.1-0.3,0.1c-0.3,0-1.1,0-0.1,0c-0.7,0-1.8-0.1-2.1,0.7
		c-1.2,3.7,0.1,8,2.7,10.8c3.1,3.1,7.1,5.2,11.4,6c2.9,0.5,6.1,0.4,8.4-1.6c1-0.8,1.6-1.9,1.7-3.1c0-1.5-0.3-2.9-0.2-4.4
		c-0.1-0.7,0.2-1.4,0.8-1.8c1.1-0.6,2.3-1,3.5-1.2c2.1-0.3,4.2-0.7,6.3-1.2c3.1-0.9,5.9-2.6,8.1-5c2.6-2.8,4.1-6.4,4.4-10.1
		l-2.7,0.6c2.5,0.5,5,0.9,7.6,1.2c2,0.2,6.8,0.9,7.8-1.5s-2.9-4.9-4.4-5.9s-3.4-1.8-4.9-3c-1.4-1.2-2.2-2.9-2.2-4.7
		c-0.6-5-1-9.9-1.6-14.9c-0.2-1.4-3.9-2.3-4.7-1.2c-2,3.2-4.5,6-7.4,8.5c-3.9,3.1-8.6,4.9-13.5,5.4c-0.8,0.1-1.9,0.5-1.3,1.5
		S324.4,270.9,325.4,270.8L325.4,270.8z"></path><path class="st0" d="M343.2,269.3c0,0-1.6,0-1.5,1.5s2,1.4,2.4,0c0.2-0.6-0.1-1.3-0.7-1.5C343.3,269.3,343.3,269.3,343.2,269.3z"></path><path class="st2" d="M318.2,275.3c0,0-3.2,0-2.9,3.1s4.1,2.8,4.7,0c0.4-1.2-0.2-2.6-1.5-3C318.5,275.3,318.4,275.3,318.2,275.3z"></path><path class="st0" d="M336.1,281.2c0.1,0.9,0.4,1.7,0.8,2.5c0.9,2,2.4,3.7,4.3,4.8c1.4,0.8,3,1.2,4.6,1.1c0.4,0.1,0.8-0.2,0.9-0.6
		c0.1-0.3,0-0.5-0.2-0.7c-0.5-0.8-1.4-1.3-2.3-1.3c-0.3,0-0.6,0-0.8,0c0.4,0,0.3,0,0.1,0h-0.2l-0.4-0.1c-0.1,0-0.2-0.1-0.4-0.1
		c0.6,0.1,0.2,0.1,0.1,0l-0.4-0.1c-0.4-0.2,0.4,0.2,0,0l-0.5-0.3c-0.2-0.1,0.5,0.3,0.2,0.1l-0.1-0.1l-0.3-0.2
		c-0.1-0.1-0.4-0.3-0.1-0.1s0,0-0.1-0.1c-0.1-0.1-0.3-0.3-0.4-0.5c-0.1-0.1-0.3-0.4,0,0c0-0.1-0.1-0.1-0.1-0.2s-0.2-0.4-0.3-0.5
		s-0.2-0.3-0.2-0.4c0-0.1-0.1-0.2-0.1-0.2l0-0.1c-0.1-0.2,0.1,0.3,0,0.1c-0.2-0.5-0.4-1.1-0.6-1.6c-0.1-0.3-0.1-0.5-0.2-0.8
		c-0.1-0.4-0.4-0.8-0.7-1c-0.4-0.3-0.8-0.5-1.3-0.6c-0.4-0.1-0.7-0.1-1.1,0.1C336,280.6,335.9,280.9,336.1,281.2L336.1,281.2z"></path><path class="st2" d="M351.3,387c0,0,10.2-5,14.9-7.5l2.1-20.6c0,0-12.4,3.5-20.6-2.1c-15.9-10.9-15.9-62-37.5-57.2
		s-57.4,101.1-57.4,101.1"></path><path class="st0" d="M352.4,389.3l6.6-3.3c1.8-0.9,3.6-1.8,5.4-2.7c0.8-0.4,2.6-1,2.9-1.8c0.1-0.7,0.2-1.3,0.2-2l0.4-3.7l0.9-9.1
		l0.6-5.6c0-0.6-1.6-4.6-2.2-4.4c-7.5,2.1-17.4,1.8-23-4.3c-1-1.2-1.9-2.4-2.7-3.7c-0.8-1.3-1.4-2.6-2-4c-1.5-3.4-2.9-7.6-4.2-11.4
		c-2.8-8.4-5.3-16.9-9.5-24.7c-3-5.5-7.3-11.8-14.3-11.5c-5.1,0.2-9,3.9-12.3,7.5c-4.7,5.5-8.9,11.4-12.5,17.7
		c-4.4,7.5-8.4,15.2-12.2,23s-7.4,15.7-10.8,23.7c-2.7,6.4-5.4,12.7-7.9,19.2c-1.3,3.3-2.6,6.6-3.9,9.9l-0.2,0.5
		c-0.2,0.6,0.5,1.8,0.8,2.4c0.2,0.5,0.5,1.1,0.9,1.5c0,0.1,0.5,0.6,0.5,0.6c0.9-2.3,1.7-4.6,2.6-6.9c2.3-5.8,4.6-11.6,7.1-17.4
		c3.2-7.7,6.6-15.3,10.1-22.9c3.8-8,7.7-16,12-23.7c3.6-6.8,7.8-13.3,12.5-19.4c3.1-4,6.9-8.5,11.7-10.4c5.8-2.2,11.2,0.9,14.5,5.6
		c0.4,0.6,0.8,1.3,1.2,2c0.1,0.2,0,0,0,0l0.2,0.3l0.4,0.7c0.2,0.4-0.1-0.2,0.1,0.2c0.1,0.2,0.2,0.5,0.4,0.7s0.3,0.6,0.2,0.4
		s0.2,0.3,0.2,0.4c0.2,0.5,0.4,0.9,0.6,1.4s0.7,1.7,1,2.5c1.5,4,2.8,8,4.2,12.1c2.8,8.3,5.5,16.9,10.4,24.3c2.1,3.1,4.6,5.9,8.1,7.5
		c4.8,2.1,10.3,2.2,15.3,1.3c1-0.1,1.9-0.4,2.9-0.6l-2.2-4.4l-1.4,13.3l-0.7,6.7c0,0.1,0,0.4,0,0.5c-0.6,0.4-1.2,0.7-1.8,0.9
		c-1.7,0.9-3.4,1.8-5.1,2.6c-2.6,1.3-5.3,2.6-7.9,4C349.8,385.1,352,389.6,352.4,389.3L352.4,389.3z"></path><path class="st0" d="M304.6,356.9c0.7,3.8,2,7.5,3.8,10.8c1.4,2.7,3.2,5.2,5.1,7.5c4.5,5.5,10.4,9.5,17.1,11.7
		c1.2,0.4,2.6-0.1,3.3-1.2c0.4-0.9,0.1-1.9-0.8-2.4c-0.1-0.1-0.3-0.1-0.4-0.1c-6-1.8-11.1-5.8-15.1-10.5c-1.7-2-3.3-4.3-4.5-6.6
		c-1.7-3.1-2.9-6.4-3.5-9.8C309.2,353.6,304.3,354.3,304.6,356.9L304.6,356.9z"></path><path class="st1" d="M400.4,376.4l19.2-0.3l30.7-0.5l7-0.1c1.5,0,4.4,0,5-1.6l7.7-19.4l12.2-30.8l2.8-7.1c0.2-0.5-1.3-1.1-1.5-1.2
		c-1.1-0.4-2.3-0.5-3.5-0.5c-1.5,0-4.4,0-5,1.6l-7.7,19.4l-12.2,30.8l-2.8,7.1l5-1.6l-19.2,0.3l-30.7,0.5l-7,0.1c-1.1,0-4.9,0-5,1.6
		S399.6,376.4,400.4,376.4L400.4,376.4z"></path></g><g id="character-1"><rect class="st0" x="19.9" y="379.6" width="125.1" height="5.8"></rect><path class="st0" d="M20.7,387.5h109.8c5,0,10.1,0.2,15.2,0h0.2c0.8,0,1.5-0.7,1.5-1.5c0,0,0-0.1,0-0.1V380c0-1.5-1.9-2.4-3.1-2.4
		H34.5c-5,0-10.1-0.2-15.2,0h-0.2c-0.8,0-1.5,0.7-1.5,1.5c0,0,0,0.1,0,0.1v5.8c0,2.3,4.6,3.7,4.6,0.8V380l-1.5,1.6h120.1
		c1.6,0,3.2,0.1,4.9,0h0.2l-3.1-2.4v5.8l1.5-1.6H34.5c-5,0-10.1-0.2-15.2,0h-0.2c-0.9,0-1.5,0.7-1.5,1.5c0,0.2,0,0.4,0.1,0.6
		C18.3,386.7,19.4,387.5,20.7,387.5z"></path><path class="st2" d="M161.7,253.7c0,0-3.9,10.1-11.2,12.6s-22.4,5-21.3,12.8s11.7,6.8,17.5,3.3c0,0,5.4,19.6,18.5,20.7
		s17.2-4,20.8,3.5c0,0,18.8,8.2,14.9-6.9c-0.6-2.4-5.4-32.6-26-35.2C174.9,264.4,163.4,263.6,161.7,253.7z"></path><path class="st0" d="M159.3,252.9c-1.2,3.1-3,6-5.4,8.4c-1.6,1.7-3.7,2.9-6,3.6c-2.3,0.7-4.7,1.3-7,2.1c-4.4,1.3-10,3-12.8,6.9
		c-3,4.1-0.8,9.6,3.4,11.7c5.2,2.6,12,1.3,16.9-1.5l-4.1-1.5c1,3.4,2.4,6.6,4.1,9.7c3,5.4,7.5,10.5,13.7,12.2
		c3.8,1.1,8.1,0.9,12,0.5c1.5-0.1,3-0.3,4.4-0.5c0.6-0.1,1.2-0.1,1.8-0.1c0.1,0,0.9,0,0.5,0h0.1l0.5,0.1c0.1,0,0.5,0.1,0.1,0
		s0,0,0.1,0s0.8,0.2,0.1,0c0.1,0,0.2,0.1,0.3,0.2c0.3,0.2-0.4-0.4,0,0c0.1,0.2,0.3,0.3,0.5,0.4c-0.1-0.1,0.3,0.4,0.4,0.5
		c0.2,0.3,0.4,0.6,0.6,0.9c0.4,0.8,1,1.5,1.9,1.8c1,0.4,2,0.8,3,1.1c3.8,1.2,9.1,2.4,12.7,0.1c4-2.5,2.7-7.5,1.9-11.3
		c-2-9.5-5.4-19.2-11.9-26.7c-4.1-4.9-9.9-8.1-16.2-9c-0.4,0-0.8-0.1-1.2-0.2s-0.8-0.2-1.1-0.2c0.7,0.2,0,0-0.2-0.1
		s-0.6-0.2-0.9-0.3c-0.5-0.2-1.1-0.4-1.6-0.6s-0.1,0,0,0l-0.4-0.2c-0.4-0.2-0.7-0.4-1-0.6c-1-0.6-1.9-1.5-2.6-2.4
		c-0.9-1.3-1.5-2.8-1.8-4.4c-0.4-2.3-5.2-2.6-4.7,0.3c1.4,7.3,8.4,11.6,15.3,12.5c1.2,0.1,2.3,0.4,3.5,0.7c1.7,0.5,3.2,1.3,4.6,2.3
		c1.5,1,2.8,2.1,4,3.4c1.2,1.3,2.3,2.7,3.2,4.2c3.5,5.5,6,11.5,7.4,17.8c0.4,1.6,0.7,3.3,1.1,4.9c0.4,1.5,0.5,3,0.4,4.5
		c0,0.2-0.1,0.4-0.1,0.6c-0.1,0.3-0.2,0.5-0.3,0.8c-0.2,0.5,0.2-0.3-0.1,0.1l-0.3,0.4c-0.1,0.1-0.1,0.2-0.2,0.2
		c-0.2,0.2,0.3-0.1-0.2,0.1c-0.2,0.1-0.9,0.5-0.4,0.3c-0.3,0.1-0.6,0.2-0.9,0.3c0,0-0.6,0.1-0.2,0s-0.3,0-0.4,0c-0.3,0-0.7,0-1,0
		h-0.5c0.6,0,0,0-0.1,0c-0.4,0-0.7-0.1-1.1-0.1c-0.8-0.1-1.5-0.3-2.2-0.4h0.1l-0.6-0.2l-0.9-0.3c-0.5-0.2-1-0.3-1.5-0.5
		s-1-0.4-1.5-0.6l1.7,1.6c-0.8-1.8-2-3.4-3.7-4.6c-1.5-0.9-3.3-1.4-5.1-1.4c-1.7,0.1-3.3,0.2-5,0.5c-2.5,0.3-5.1,0.4-7.6,0.4
		c-1.2,0-2.3-0.1-3.5-0.3c-0.3-0.1-0.6-0.1-0.9-0.2c-0.2-0.1-0.5-0.2-0.7-0.3c-0.1,0-0.9-0.4-0.6-0.2c-1.6-0.8-3-1.9-4.3-3.2
		c-2.4-2.6-4.4-5.7-5.8-8.9c-0.9-1.9-1.6-3.8-2.2-5.8c-0.4-1.6-2.8-2.2-4.1-1.5c-1.8,1.1-3.8,1.8-5.9,2.1c-0.9,0.1-1.8,0.2-2.7,0.2
		c-1,0-1.9-0.2-2.8-0.6c0.5,0.2-0.7-0.5-0.6-0.4c-0.2-0.2-0.4-0.3-0.5-0.5c-1.5-2-1.2-4.9,0.8-6.4c0.1,0,0.1-0.1,0.2-0.1
		c3.2-2.7,8-3.9,12-5.1c2.1-0.6,4.1-1.1,6.1-1.8c2.4-0.9,4.6-2.3,6.4-4.2c2.6-2.7,4.6-5.9,6-9.4
		C164.9,252.3,160.2,250.6,159.3,252.9z"></path><path class="st0" d="M201.9,282c0,0,10.9,1.4,11.8-4.5s-5.6-3.7-5.6-3.7s6.2-12.6-4.7-13.4c0,0,7.7-10-0.4-17.3s-21.4-0.1-21.4-0.1
		s-1.3-12.7-12-9.7s-7,10.3-7,10.3s-6.9,1.8-6.5,6.2s5.9,5.4,5.9,5.4s3.6,12.2,12.9,9.1l11.3,14.4c-1.4,3.9-0.7,8.3,1.8,11.6
		C192.3,295.8,203.5,290,201.9,282z"></path><path class="st0" d="M199.9,283.3c3.6,0.5,7.2,0.1,10.5-1.3c2.3-1,5-2.6,5.6-5.2c0.4-2,0-4.1-2.2-4.6c-1.6-0.2-3.2-0.1-4.7,0.5
		l1.4,0.2c1.1-2.1,1.7-4.4,1.8-6.7c0.2-1.7-0.3-3.3-1.3-4.7c-1.4-1.7-3.6-2.2-5.7-2.4l0.3,0.6c3.1-4,4.8-9.9,2.3-14.6
		c-3.9-7.4-13-7.5-20-5.4c-2.3,0.6-4.4,1.5-6.5,2.6l2.6-0.5c-0.4-3.6-2.1-7.6-5.4-9.4s-7.5-0.7-10.8,0.7c-3.1,1.3-6.9,3.5-7.7,7
		c-0.4,1.5-0.2,3.1,0.4,4.6l3.1-2.3c-2.9,0.8-5.6,2.2-7.8,4.3c-1.3,1.1-1.9,2.8-1.8,4.5c0.3,1.6,1.3,3,2.7,3.9c1,0.6,2,1,3.1,1.3
		c0.4,0.1,0-0.2,0.1,0c0.1,0.2,0.2,0.5,0.3,0.7c0.8,2.2,2.1,4.3,3.7,6c2.9,2.9,6.5,3.4,10.3,2.2h-1.4l10.9,14
		c0.1,0.1,0.3,0.3,0.4,0.5c-0.1-0.3,0-0.1-0.1,0.1c-0.1,0.3-0.2,0.7-0.3,1.1c-0.5,2.4-0.4,4.8,0.4,7.1c0.8,2.3,2.4,4.6,4.9,5.3
		c2.2,0.5,4.5,0.2,6.5-0.7c4.9-1.9,9.8-6.2,8.8-12c-0.1-0.6-4.7,1-4.4,2.3c0.4,2-0.1,4-1.2,5.7c-0.5,0.7-1,1.3-1.7,1.8
		c-0.2,0.1-0.3,0.2-0.5,0.3c0.5-0.2-0.4,0.1,0,0l-0.5,0.1c-4.8,1.2-7.6-3.8-8-7.9c0-1.7,0.2-3.4,0.6-5c0.1-0.6-0.2-0.8-0.6-1.2
		l-5.8-7.3l-4.9-6.2c-0.3-0.4-1.1-0.1-1.4,0c-5.7,1.8-10.1-4.4-11.5-9.1l-0.2-0.1c-2.6-0.5-5.4-2.3-5.7-5.1
		c-0.1-0.8,0.1-1.7,0.6-2.4c0.3-0.5,0.8-0.9,1.3-1.2c-0.5,0.3,0.9-0.4,0.2-0.1c0.2-0.1,1-0.4,0.4-0.2c0.3-0.1,0.6-0.2,0.9-0.3
		c0.5-0.1,3.5-1.4,3.1-2.2c-1.3-2.7-0.3-6.4,2.3-7.5c2.5-1.2,5.4-1.1,7.8,0.3c1.7,1.3,3,3.1,3.6,5.1c0.5,1.2,0.8,2.4,0.9,3.7
		c0.1,0.6,2.5-0.5,2.5-0.5l0.3-0.1l0.3-0.2c0.4-0.2-0.6,0.2,0.1,0c0.9-0.4,1.7-0.7,2.6-1c2.8-1,5.9-1.3,8.9-1
		c3.7,0.5,6.9,2.5,8.9,5.6c1.6,2.8,1.9,6.2,0.8,9.2c-0.5,1.8-1.4,3.5-2.5,5c-0.3,0.4-0.1,0.6,0.3,0.6c2,0,3.8,0.9,5.1,2.4
		c0.8,1.3,1.1,2.9,0.9,4.5c-0.2,2.1-0.8,4.2-1.7,6.1c-0.3,0.6,1.3,0.2,1.4,0.2s0.5-0.1,0.1,0s0.5-0.1,0.6-0.1c0.7-0.1,1.4-0.1,2,0.1
		c2,0.7,1.9,3.6,0.9,5.1c-0.1,0.1-0.2,0.3-0.3,0.4s0.5-0.2,0,0c0.1-0.1,0.3-0.1,0.4-0.2c-0.2,0.1-0.3,0.1-0.1,0.1l-0.6,0.2
		c-0.9,0.2-1.8,0.3-2.7,0.4c-0.9,0-1.7,0-2.6,0l-0.9-0.1c-0.2,0-0.6-0.1-0.1,0c-1.1,0-2.1,0.3-3,1
		C200.9,281.8,199.1,283.2,199.9,283.3z"></path><path class="st2" d="M173.6,267c0,0,0.4-8.7,6.7-7.8s11.2,19.8,0.2,20.7"></path><path class="st0" d="M175.3,268.1c0-0.3-0.1,0.5,0,0.3S175.3,268.1,175.3,268.1c0.1-0.5,0.1-0.9,0.2-1.3c0.2-1.1,0.5-2.1,1.1-3
		c0.5-1,1.4-1.8,2.5-2.2c0.6-0.2,1.3-0.2,1.9-0.1c0.2,0,0.4,0.1,0.6,0.2c0.1,0,0.2,0.1,0.2,0.1c-0.5-0.2,0.1,0,0.1,0.1l0.2,0.1
		c0.4,0.2-0.4-0.3,0,0l0.5,0.5c0.4,0.4-0.3-0.4,0,0c0.1,0.1,0.1,0.2,0.2,0.2l0.3,0.4c0.3,0.4-0.3-0.4,0,0l0.5,0.8l0.2,0.4
		c0.3,0.5-0.2-0.5,0,0s0.5,1.2,0.7,1.9c-0.2-0.6,0.1,0.4,0.1,0.5c0.1,0.3,0.1,0.6,0.2,0.9s0.1,0.4,0.1,0.6c0,0,0.1,0.6,0.1,0.3
		s0,0.3,0,0.3c0,0.2,0.1,0.4,0.1,0.6c0.1,1.2,0,2.4-0.3,3.5c-0.6,2.6-2.8,4.5-5.5,4.6c-1.9,0.2,0.1,4.7,1.8,4.5
		c3.1-0.2,5.8-2.3,6.7-5.3c0.9-3.1,0.8-6.4-0.2-9.4c-0.9-3.2-2.5-6.6-5.1-8.8s-6.1-2.4-8.4,0.2c-1.7,1.9-2.4,4.7-2.5,7.2
		c0.1,1.2,0.8,2.4,1.9,3C174.6,269.6,175.2,269.1,175.3,268.1L175.3,268.1z"></path><path class="st0" d="M157.4,283.1c0,0.3,0,0.5-0.1,0.8c0,0.1,0,0.3,0,0.4s0,0.1,0,0.2s0.1-0.3,0.1-0.3c0,0.1,0,0.1,0,0.2
		c-0.1,0.4-0.1,0.7-0.2,1.1c-0.1,0.4-0.2,0.8-0.4,1.2c0,0.1-0.1,0.2-0.1,0.3s-0.2,0.4-0.1,0.1s-0.1,0.1-0.1,0.2l-0.2,0.3
		c-0.2,0.4-0.5,0.8-0.9,1.2c0,0.1-0.1,0.2-0.2,0.3s0.3-0.3,0.1-0.1l-0.1,0.1c-0.2,0.2-0.4,0.4-0.6,0.5c-0.2,0.2-0.5,0.3-0.8,0.5
		l-0.2,0.1c-0.1,0.1,0.4-0.2,0,0l-0.4,0.2c-0.3,0.1-0.7,0.3-1,0.4l-0.6,0.1c0.4-0.1-0.2,0-0.3,0c-0.8,0.1-1.4,0.8-1.3,1.6
		c0,0.1,0,0.2,0,0.2c0.2,0.8,1,1.8,2,1.7c2.7-0.3,5.2-1.7,6.8-4c1-1.7,1.7-3.5,1.9-5.5c0.1-0.4,0.1-0.7,0.1-1.1c0-1-0.7-1.9-1.6-2.1
		c-0.7-0.2-1.5,0.3-1.7,1c0,0.1,0,0.2,0,0.3L157.4,283.1z"></path><path class="st0" d="M159.9,267.3c-0.7,0.3-1,1.2-0.7,1.9c0,0.1,0.1,0.1,0.1,0.2c0.8,1.3,2.5,0.3,2.1-1.1c-0.1-0.7-0.7-1.1-1.3-1
		C160,267.3,160,267.3,159.9,267.3z"></path><path class="st2" d="M160.7,388.3c0,0,13.2-84.7,33.8-92.7S245,398.2,245,398.2"></path><path class="st0" d="M163.1,388c0.6-3.7,1.2-7.3,1.9-11c1.6-8.5,3.4-17,5.5-25.5c2.3-9.8,5.2-19.5,8.6-29c1.6-4.3,3.4-8.5,5.4-12.6
		c0.5-1,0.6-1.3,1.3-2.3c0.5-0.8,1-1.6,1.5-2.5s1-1.5,1.6-2.3c0.2-0.3,0.5-0.7,0.8-1c0.1-0.2,0.2-0.3,0.4-0.5
		c0.4-0.5-0.1,0.1,0.1-0.2c0.5-0.6,1-1.1,1.6-1.6c0.3-0.2,0.5-0.5,0.8-0.7s0.3-0.2,0,0l0.5-0.4c0.3-0.2,0.5-0.4,0.8-0.5l0.4-0.2
		c0.3-0.2,0.4-0.2,0,0c0.3-0.1,0.5-0.2,0.8-0.3l0.3-0.1c0.4-0.2-0.6,0.1-0.1,0l0.6-0.1c0.7-0.1-0.4-0.1,0.2,0l0.7,0h0.3
		c0.2,0-0.5-0.2-0.1,0s0.9,0.3,1.4,0.5c0.1,0.1,0.8,0.4,0.5,0.2l0.2,0.1l0.4,0.2c1,0.7,2,1.4,2.9,2.3c0.2,0.2,0.5,0.5,0.7,0.7
		l0.4,0.4c0.2,0.2-0.2-0.2,0.1,0.2c0.5,0.6,1,1.2,1.5,1.8c2.2,2.8,4.1,5.8,5.8,8.8c4.3,7.8,8,15.8,11.2,24.1
		c3.6,8.8,6.8,17.8,9.8,26.8c2.5,7.6,5,15.3,7.3,22.9c1.2,4.1,2.4,8.1,3.5,12.2l0.1,0.5c0.7,2.6,5.2,0.5,4.6-1.7
		c-0.8-3-1.6-5.9-2.5-8.8c-2.1-7.2-4.3-14.4-6.7-21.6c-3-9.1-6.1-18.2-9.6-27.1c-3.3-8.9-7.1-17.5-11.4-25.9
		c-3.2-6.1-6.8-12.6-12.1-17.3c-1.8-1.7-4.1-2.9-6.5-3.4c-2.7-0.3-5.4,0.5-7.5,2.2c-6.4,4.5-10.3,12.4-13.3,19.4
		c-3.9,9.3-7.2,18.9-9.7,28.8c-2.5,9.4-4.7,18.9-6.6,28.4c-1.1,5.3-2,10.6-2.9,16l-0.1,0.8c-0.2,1.2,1.1,1.8,2.1,1.7
		C161.7,390.2,162.7,389.2,163.1,388L163.1,388z"></path><path class="st0" d="M130.5,376.2c1.3,0,2.5-0.8,2.9-2c0.3-0.9-0.1-1.9-1-2.2c-0.2-0.1-0.3-0.1-0.5-0.1c-1.3,0-2.5,0.8-2.9,2
		c-0.3,0.9,0.1,1.9,1,2.2C130.1,376.2,130.3,376.2,130.5,376.2L130.5,376.2z"></path><path class="st2" d="M117.5,371.5c-3.5,3.7-7.9-4.1-7.9-4.1s-3.2,0-4-4.4s3.3-8.2,3.3-8.2s-13.8,1.1-14.7-1.1s5.3-6.3,17.8-5.5
		s65.8,18.3,65.8,18.3l1.9-12.5l33.4,4.6c0,0,2,29.8-11.6,36.6S133.2,374,133.2,374c-15.9,4.1-17.2-7.6-17.2-7.6"></path><path class="st0" d="M115.3,370.6c-0.1,0.1-0.3,0.2-0.4,0.3s-0.2-0.1,0,0s0.7,0,0.4,0s0.3,0.2-0.1,0l-0.5-0.4
		c-0.3-0.3-0.6-0.6-0.9-0.9c-0.7-0.7-1.3-1.6-1.8-2.4c-0.6-0.9-1.5-1.4-2.6-1.4c-0.6,0,0.7,0.2,0.1,0c-0.2-0.1-0.2,0,0.2,0.1
		l-0.3-0.1c-0.4-0.3,0.3,0.3-0.1-0.1c-0.3-0.4-0.6-0.8-0.8-1.2c-0.3-0.8-0.5-1.6-0.4-2.5c0.1-1.5,0.6-3,1.5-4.2
		c0.3-0.5,0.6-0.9,1-1.3c0.2-0.2,1-1,0.3-0.3c1.8-1.7-1.4-3.1-2.8-3c-0.9,0.1-1.8,0.1-2.8,0.2c-1.7,0.1-3.3,0.1-5.4,0.1
		c-0.9,0-1.7-0.1-2.6-0.2l-0.6-0.1c0.6,0.1,0,0-0.1,0c-0.2,0-0.3-0.1-0.5-0.1c-0.4-0.1,0.5,0.3-0.1,0c-0.4-0.2,0.4,0.3,0.2,0.1
		s0.5,0.5,0.4,0.5c-0.2-0.2,0.2,0.4,0,0.1c0,0-0.1-0.6,0,0.1c0-0.1,0-0.2,0.1-0.3c0.2-0.2-0.2,0.3,0,0c0.1-0.2,0.3-0.4,0.5-0.6
		c0.3-0.4-0.3,0.2,0.1-0.1l0.4-0.3c0.3-0.2,0.7-0.4,1-0.6c0.8-0.4,1.6-0.7,2.4-1c2.5-0.7,5.1-1.1,7.7-1.1c1.9,0,3.8,0.1,5.6,0.3
		c0.4,0-0.2,0-0.2,0l0.4,0.1l1,0.2l2.1,0.4c7.6,1.6,15.1,3.7,22.6,5.9c8.1,2.3,16.1,4.8,24.1,7.3c4.4,1.4,8.7,2.8,13.1,4.2
		c0.8,0.3,2.6,0.1,2.8-1l1.9-12.5l-2.1,1.1l29.2,4l4.2,0.6l-2.7-1.8c0.6,8.1-0.2,16.2-2.6,23.9c-0.8,2.6-2,5-3.5,7.2
		c-0.7,1-1.5,1.9-2.4,2.7c-0.5,0.4-1,0.7-1.5,1.1c-0.3,0.2-0.7,0.4-1.1,0.6c-0.3,0.1-0.6,0.2-0.9,0.3c-0.2,0.1-0.6,0.1-0.1,0
		l-0.7,0.1c-0.4,0.1-0.8,0.1-1.2,0.1H196c-0.3,0,0.4,0-0.2,0c-1,0-2.1,0-3.1-0.2c-0.5,0-1-0.1-1.5-0.2l-0.6-0.1h-0.2l-0.5-0.1
		c-2.5-0.4-5-1-7.4-1.7c-1.3-0.4-2.7-0.8-4-1.2l-2-0.6l-1.7-0.6c-5.6-1.9-11.1-4.1-16.5-6.4c-7.7-3.2-15.2-6.7-22.7-10.4
		c-0.4-0.2-0.8-0.4-1.2-0.6c-1.3-0.6-2.5-0.1-3.8,0.1c-1,0.2-2,0.3-2.9,0.4c-0.7,0-1.4,0-2.1,0c-0.6,0-1.2-0.1-1.7-0.3l-0.4-0.1
		c0.1,0,0.4,0.2,0,0c-0.3-0.1-0.5-0.2-0.8-0.3l-0.4-0.2c0.1,0,0.4,0.2,0,0s-0.5-0.3-0.7-0.5l-0.3-0.2c-0.3-0.2,0.3,0.2,0,0
		s-0.3-0.3-0.4-0.4s-0.3-0.3-0.4-0.5l-0.2-0.2c-0.3-0.4,0.2,0.3-0.1-0.1c-0.4-0.6-0.7-1.3-1-1.9c-0.1-0.2-0.2-0.5,0-0.1
		c0-0.1-0.1-0.3-0.1-0.4s-0.1-0.5-0.2-0.7c-0.1-0.2-0.1-0.4-0.1-0.6c-0.2-2-5.2-2.7-4.9-0.3c0.4,2.5,1.6,4.7,3.3,6.5
		c4.7,4.6,11.8,4.4,17.8,2.9l-2.5-0.2c4.1,2.1,8.2,4,12.4,6c8.7,4,17.6,7.8,26.7,11c4.6,1.7,9.3,3.1,14,4.2c3.8,1,7.8,1.5,11.8,1.4
		c3.7,0,7.2-1.4,9.9-4c3.4-3.2,5.3-7.8,6.5-12.2c1.2-4.5,1.8-9.1,2-13.8c0.2-2.9,0.2-5.8,0.1-8.7c0-0.1,0-0.3,0-0.4
		c-0.1-1.2-1.8-1.7-2.7-1.8l-29.2-4l-4.2-0.6c-0.7-0.1-2,0.2-2.1,1.1l-1.9,12.5l2.8-1c-3.9-1.3-7.8-2.5-11.7-3.8
		c-8.4-2.7-16.8-5.2-25.2-7.7c-7.8-2.3-15.7-4.5-23.7-6.1c-3.9-0.8-7.9-1.1-11.9-0.9c-4.3,0.2-10,1-13.1,4.4
		c-0.9,0.8-1.2,2.2-0.6,3.3c1,1.7,3.6,2.1,5.4,2.3c3.9,0.4,7.7,0.4,11.6,0l0.8-0.1l-2.8-2.9c-2.5,2.3-4.3,5.7-3.8,9.1
		s3.2,6.4,6.8,6.4l-2.6-1.4c2.3,4.1,7.9,9.2,12.4,4.8c0.8-0.9-0.5-2-1.2-2.3C117.5,369.6,116.2,369.8,115.3,370.6L115.3,370.6z"></path><path class="st2" d="M114.1,358.4c0,0-6,2.7-4.5,9"></path><path class="st0" d="M113.2,356.7c-3,1.3-5.2,3.9-6,7c-0.3,1.4-0.3,2.8,0.1,4.2c0.4,1.2,1.6,1.8,2.8,1.5c1-0.2,2.5-1.1,2.2-2.3
		c-0.1-0.5-0.2-1.1-0.2-1.7c0-0.1,0-0.2,0-0.2c0-0.2,0,0.3,0,0.2c0-0.1,0-0.2,0-0.3c0-0.3,0.1-0.5,0.1-0.8c0-0.2,0.1-0.4,0.2-0.6
		s0.1-0.2,0.1-0.3s-0.2,0.5-0.1,0.3s0.1-0.1,0.1-0.2c0.2-0.4,0.3-0.8,0.6-1.1l0.2-0.3c0.2-0.3-0.3,0.4-0.1,0.2s0.2-0.3,0.4-0.5
		c0.2-0.3,0.5-0.5,0.8-0.7l0.2-0.1c-0.1,0.1-0.5,0.4-0.2,0.2l0.4-0.3c0.2-0.1,0.4-0.3,0.6-0.4s0.3-0.2,0.5-0.3s-0.7,0.4-0.4,0.2l0,0
		c1-0.4,2-1.5,1.3-2.7C115.7,356.5,114.3,356.2,113.2,356.7L113.2,356.7z"></path><path class="st0" d="M45.4,300c-0.5,1.6-1.1,3.1-1.7,4.6c-1.3,3.3-2.6,6.6-3.9,9.9c-3.6,9.1-7.2,18.1-10.8,27.2l-5.4,13.5
		c-0.8,1.9-1.5,3.8-2.3,5.7s-1.9,3.9-1.9,5.9c0,3.2,1.9,6.1,4.8,7.4c1.3,0.5,2.6,0.7,4,0.7l8.3-0.1l19.8-0.2c1.1-0.1,1.9-1,1.8-2.1
		c0-0.1,0-0.2,0-0.2c-0.3-1.3-1.5-2.2-2.8-2.1l-16.5,0.2l-9.8,0.1c-0.8,0-1.5,0-2.3,0c-1.1,0.1-2.2-0.6-2.5-1.7
		c-0.6-1.7,0.6-3.6,1.2-5.1c0.8-1.8,1.5-3.7,2.2-5.6c1.7-4.2,3.4-8.5,5.1-12.8c3.6-8.9,7.1-17.8,10.6-26.6c1.5-3.8,3-7.5,4.4-11.2
		c0.7-1.7,1.5-3.5,2-5.2C50.6,299.4,46.2,297.2,45.4,300L45.4,300z"></path><path class="st0" d="M78.6,375.5l32.8-0.4h4.7c0.9,0-0.1-1.7-0.3-2c-0.4-0.6-1.4-2.1-2.3-2.1l-32.8,0.4l-4.7,0
		c-0.9,0,0.1,1.7,0.3,2C76.7,374.1,77.7,375.6,78.6,375.5L78.6,375.5z"></path><polygon class="st0" points="57.5,359.3 49.9,360 34.5,268.6 42.8,265.9 	"></polygon><path class="st0" d="M56.5,357.3l-7.6,0.7l3.1,3l-1.5-9l-3.7-21.9l-4.5-26.4l-3.9-22.9l-1.3-7.5l-0.4-2.4c0-0.4-0.1-0.8-0.2-1.2
		c0-0.1,0-0.1,0-0.2l-0.6,1l8.3-2.7l-3.5-2.9l1.5,9.3l3.5,22.2l4.3,27l3.7,23.4c0.6,3.8,1.2,7.6,1.8,11.3c0,0.1,0,0.1,0,0.2
		c0.2,1.2,1,2.2,2.1,2.7c0.7,0.3,2.2,0.4,2-0.8l-1.5-9.3l-3.5-22.2l-4.3-27l-3.7-23.4c-0.6-3.8-1.2-7.6-1.8-11.3v-0.2
		c-0.2-1.4-1.9-3.5-3.5-2.9l-8.3,2.7c-0.4,0.2-0.6,0.6-0.6,1l1.5,9l3.7,21.9l4.5,26.4l3.9,22.9c0.6,3.7,1.2,7.4,1.9,11.1v0.2
		c0.2,1.3,1.6,3.1,3.1,3l7.6-0.7C61,361.1,58.2,357.1,56.5,357.3z"></path></g><g id="day"><rect class="st1" x="369" y="133.7" width="86.6" height="99.7"></rect><path class="st2" d="M410.1,160.4c0-0.1,0-0.2,0-0.3c-0.1-0.7-0.2-1.4-0.5-2l-0.3-0.7c-1.1-2.7-3.3-4.7-6-5.5
		c-1.6-0.5-3.2-0.5-4.9-0.2l-0.5,0.1c-2.6,0.8-4.7,2.6-6,5c-0.4,0.8-0.7,1.7-0.9,2.6c-0.1,0.4-0.1,0.7-0.1,1.1c0,0.1,0,0.2,0,0.4
		c-0.5,0.2-0.7,0.4,0,0.5c0,1.1,0.2,2.3,0.6,3.4c0.3,0.8,0.7,1.5,1.2,2.2c1.3,1.8,3.2,3,5.4,3.6l0,0c0.8,0.2,1.6,0.3,2.5,0.3l0,0
		c0.7,0,1.3-0.1,1.9-0.3c0.8-0.2,1.6-0.6,2.3-0.9C408.1,167.6,410.4,164.2,410.1,160.4z"></path><path class="st2" d="M400.4,174c-0.1,1.6,0,3.3,0.2,4.9c0,0.3,0.1,0.5,0.4,0.7c0.3,0.2,0.6,0.2,0.9,0.2c0.3,0,0.6-0.2,0.9-0.4
		c0.2-0.2,0.4-0.5,0.4-0.8c-0.2-1.6-0.3-3.3-0.2-4.9c0-0.6-0.5-1-1.1-0.9c0,0-0.1,0-0.1,0C401,172.9,400.5,173.4,400.4,174z"></path><path class="st2" d="M397.3,144.5c-0.1,1.6,0,3.3,0.2,4.9c0,0.3,0.1,0.5,0.4,0.7c0.2,0.2,0.5,0.3,0.9,0.2c0.3,0,0.6-0.2,0.9-0.4
		c0.2-0.2,0.4-0.5,0.4-0.8c-0.2-1.6-0.3-3.3-0.2-4.9c0-0.6-0.7-1-1.2-0.9C397.9,143.4,397.4,143.9,397.3,144.5z"></path><path class="st2" d="M412.8,158.5c1.7-0.3,3.4-0.8,5-1.4c0.3-0.1,0.6-0.3,0.8-0.6c0.2-0.2,0.2-0.5,0.1-0.8
		c-0.3-0.6-0.9-0.8-1.5-0.6c-0.8,0.3-1.5,0.5-2.3,0.7c-0.4,0.1-0.7,0.2-1.1,0.3l-0.6,0.1l-0.3,0.1c0.4-0.1,0,0-0.1,0
		c-0.3,0-0.6,0.2-0.9,0.4c-0.2,0.2-0.4,0.5-0.4,0.8c0,0.6,0.5,1,1.1,0.9C412.7,158.5,412.8,158.5,412.8,158.5L412.8,158.5z"></path><path class="st2" d="M382.7,166c1.7-0.3,3.4-0.8,5-1.4c0.3-0.1,0.6-0.3,0.8-0.6c0.2-0.2,0.2-0.5,0.1-0.8c-0.3-0.6-0.9-0.8-1.5-0.6
		c-0.8,0.3-1.5,0.5-2.3,0.7c-0.4,0.1-0.7,0.2-1.1,0.3l-0.6,0.1l-0.3,0.1c0.4-0.1,0,0-0.1,0c-0.3,0-0.6,0.2-0.9,0.4
		c-0.2,0.2-0.4,0.5-0.4,0.8c0,0.6,0.5,1,1.1,0.9C382.5,166,382.6,166,382.7,166L382.7,166z"></path><path class="st2" d="M408.3,168.9c1.2,1.2,2.5,2.4,3.9,3.4c0.6,0.4,1.3,0.3,1.7-0.2c0.4-0.3,0.5-0.9,0.1-1.3c0-0.1-0.1-0.1-0.1-0.1
		c-1.2-0.9-2.3-1.8-3.3-2.8l0.2,0.2l-0.4-0.4c-0.2-0.2-0.4-0.4-0.7-0.4c-0.3,0-0.7,0-1,0.2c-0.3,0.1-0.5,0.4-0.6,0.7
		C408.1,168.3,408.2,168.6,408.3,168.9L408.3,168.9z"></path><path class="st2" d="M384.9,150.6c1.2,1.2,2.5,2.4,3.9,3.4c0.6,0.3,1.3,0.3,1.7-0.2c0.4-0.3,0.5-0.9,0.1-1.3c0-0.1-0.1-0.1-0.1-0.1
		c-1.2-0.9-2.3-1.8-3.3-2.8l0.2,0.2l-0.4-0.4c-0.2-0.2-0.4-0.4-0.7-0.4c-0.3,0-0.7,0-1,0.2c-0.3,0.1-0.5,0.4-0.6,0.7
		C384.6,150.1,384.7,150.4,384.9,150.6L384.9,150.6z"></path><path class="st2" d="M409,150.5c1-1.3,1.8-2.7,2.5-4.2c0.2-0.2,0.2-0.5,0.1-0.8c-0.1-0.3-0.3-0.5-0.6-0.6c-0.6-0.2-1.3,0-1.7,0.5
		c-0.7,1.5-1.6,2.9-2.5,4.2c-0.3,0.4-0.2,1,0.2,1.2c0.1,0.1,0.1,0.1,0.2,0.1C407.9,151.2,408.6,151,409,150.5L409,150.5z"></path><path class="st2" d="M391.9,176.6c1-1.3,1.8-2.7,2.5-4.2c0.2-0.2,0.2-0.5,0.1-0.8c-0.1-0.3-0.3-0.5-0.6-0.6c-0.6-0.2-1.3,0-1.7,0.5
		c-0.7,1.5-1.6,2.9-2.5,4.2c-0.3,0.4-0.2,1,0.2,1.2c0.1,0,0.1,0.1,0.2,0.1C390.8,177.4,391.5,177.1,391.9,176.6z"></path><path class="st2" d="M398.7,231.4v-18l-1.7,1.8h20.3c0.9,0,1.7-0.8,1.7-1.7c0,0,0,0,0,0v-21.5c-0.1-1-1-1.7-2-1.6l-2,0.3
		c-0.5,0.1-1.1,0.1-1.6,0.1l-0.9,0.1c-0.2,0-0.7,0.1-0.4,0h-0.3l0.1,0.1c0.5,0.1,0.6,0.5,0.4,1.2c0.8,3.2,0,1.2,0.4,1
		c0.2-0.1,0.4-0.4,0.5-0.5c0.5-0.6,1.1-1.1,1.7-1.6c3.4-3.2,7-6.4,10.5-9.6l2.9-2.6l-1.2,0.5h18c0.9,0,1.7-0.8,1.7-1.7c0,0,0,0,0,0
		v-9.5l-1.7,1.8h9.8c2.4,0,2-3.4-0.3-3.4h-9.8c-0.9,0-1.7,0.8-1.7,1.7c0,0,0,0,0,0v9.5l1.7-1.8h-15.5c-1,0-2.5-0.3-3.4,0.3
		c-0.8,0.6-1.5,1.2-2.2,1.9l-4.5,4.1c-2.9,2.7-5.9,5.3-8.7,8.1c-0.5,0.4-0.9,0.9-1.1,1.5c-0.3,1.4,1,2.2,2.2,2.4
		c1.9,0.1,3.9,0,5.7-0.4l-2-1.6v21.5l1.7-1.8h-20.4c-0.9,0-1.7,0.8-1.7,1.7c0,0,0,0,0,0v18C394.9,233.7,398.7,233.7,398.7,231.4
		L398.7,231.4z"></path><path class="st2" d="M428,194.4v1.5c0,0.2,0.1,0.4,0.2,0.6c0.1,0.2,0.2,0.4,0.4,0.5c0.2,0.1,0.4,0.2,0.6,0.3
		c0.2,0.1,0.5,0.1,0.7,0.1l0.5-0.1c0.3-0.1,0.6-0.2,0.8-0.4l0.3-0.3c0.2-0.2,0.2-0.5,0.2-0.8v-1.5c0-0.2-0.1-0.4-0.2-0.6
		c-0.1-0.2-0.2-0.4-0.4-0.5c-0.2-0.1-0.4-0.2-0.6-0.3c-0.2-0.1-0.5-0.1-0.7-0.1l-0.5,0.1c-0.3,0.1-0.6,0.2-0.8,0.4l-0.3,0.3
		C428.1,193.8,428,194.1,428,194.4L428,194.4z"></path><path class="st2" d="M435.4,202.2v2.5c0,0.1,0,0.3,0.1,0.4c0.1,0.1,0.2,0.2,0.3,0.2c0.2,0.1,0.4,0.1,0.5,0.1c0.2,0,0.4,0,0.6-0.1
		c0.5-0.1,0.9-0.3,1.3-0.6l0.3-0.2c0.2-0.1,0.3-0.3,0.3-0.5v-2.5c0-0.1,0-0.3-0.1-0.3c-0.1-0.1-0.2-0.2-0.3-0.2
		c-0.2-0.1-0.3-0.1-0.5-0.1c-0.2,0-0.4,0-0.7,0.1c-0.5,0.1-0.9,0.3-1.3,0.6l-0.3,0.2C435.5,201.8,435.4,202,435.4,202.2L435.4,202.2
		z"></path><path class="st2" d="M444.3,193.6v2.2c0,0.3,0.2,0.6,0.5,0.7c0.2,0.1,0.4,0.2,0.6,0.2c0.2,0.1,0.5,0.1,0.7,0.2
		c0.4,0.1,0.9,0,1.3-0.1c0.2-0.1,0.6-0.3,0.6-0.6V194c0-0.3-0.2-0.6-0.5-0.7c-0.2-0.1-0.4-0.2-0.6-0.3c-0.2-0.1-0.5-0.1-0.7-0.2
		c-0.5-0.1-0.9,0-1.4,0.1C444.7,193.1,444.3,193.2,444.3,193.6L444.3,193.6z"></path><path class="st2" d="M416.7,214h6.2c0.4,0,0.9,0,1.3-0.1c0.1,0,0.5-0.1,0.5-0.3s-0.4-0.3-0.5-0.3c-0.4-0.1-0.9-0.1-1.3-0.1h-6.2
		c-0.4,0-0.9,0-1.3,0.1c-0.1,0-0.5,0.1-0.5,0.3s0.4,0.3,0.5,0.3C415.8,214,416.3,214,416.7,214L416.7,214z"></path><path class="st1" d="M360.8,126.4c-13.4-3.4-27.5-1-39.6,5.3c-12.4,6.3-22.1,16.6-29.4,28.4c-1.9,3-3.6,6.1-5.1,9.4
		c-0.5,0.7-0.8,1.5-1.1,2.3c-0.1,0.8,0.5,1.9,0.7,2.7c0.5,1.8,1,3.7,1.3,5.5c0.7,3.8,0.9,7.7,0.6,11.5c-0.1,1.9-0.4,3.8-0.8,5.6
		c-0.1,0.7-0.4,1.4-0.6,2c-0.1,0.3-0.3,0.6-0.5,0.9c-0.1,0.2-0.6,0.6-0.7,0.8c0-0.1-0.5,0.5,0.1,0.1c0.2-0.2,0.3,0.1,0-0.1
		c-0.6-0.3-1.1-0.6-1.6-0.9c-1.1-1.1-1.8-2.5-1.8-4.1c-0.3-3.9,1.6-7.9,2.9-11.4c1.4-3.8,2.9-7.5,4.5-11.2c0.4-0.9,0.9-1.5,0.6-2.4
		s-0.6-1.6-0.9-2.3c-0.6-1.5-1.3-3-2.1-4.4c-6.5-12.2-18-20.9-31.4-24c-1.8-0.4-3.5-0.7-5.3-0.9c-1-0.1-2.6,0-3.4,0.8
		s0.3,1.4,1.1,1.5c13.8,1.7,26,9.6,33.1,21.6c0.8,1.3,1.5,2.7,2.2,4.1c0.3,0.7,0.7,1.4,1,2.1c0.5,0.8,0.8,1.8,0.9,2.7
		c-0.3,0.9-0.7,1.8-1.2,2.6c-0.4,0.9-0.8,1.8-1.1,2.7c-0.8,1.9-1.6,3.9-2.3,5.8c-2,5.4-6.7,15.2,0.2,19.1c2.8,1.5,6.8,1.4,9.2-0.9
		s2.5-6.1,2.9-9.1c0.4-3.6,0.3-7.3-0.1-10.9c-0.2-1.8-0.6-3.6-1-5.4c-0.2-0.9-0.5-1.8-0.7-2.6c-0.1-0.4-0.3-0.9-0.4-1.3
		c-0.2-0.6-0.1-1.2,0.2-1.7c6-12.6,14.3-24.5,25.8-32.7c11.7-8.4,26.6-13.1,40.9-9.5c1.2,0.4,2.4,0.2,3.5-0.4
		C361.8,127.5,361.8,126.6,360.8,126.4L360.8,126.4z"></path></g><g id="night"><rect class="st0" x="44.2" y="134.4" width="86.6" height="99.7"></rect><path class="st0" d="M131.6,232.6h-83c-1.1-0.1-2.3-0.1-3.4,0H45l1.6,0.9v-95.6c0-1.3,0.1-2.6,0-3.9v-0.2l-3.1,2.1h83
		c1.1,0.1,2.3,0.1,3.4,0h0.1l-1.6-0.9v87.4c0,4-0.2,8.1,0,12.1v0.2c0,2,4.7,0.6,4.7-1.1v-87.4c0-4,0.2-8.1,0-12.1v-0.2
		c0-0.9-0.9-0.9-1.6-0.9H55.7c-3.5,0-7-0.2-10.5,0H45c-0.9,0-3.1,0.9-3.1,2.1v87.4c0,4-0.2,8.1,0,12.1v0.2c0,0.9,0.9,1,1.6,1h75.9
		c3.5,0,7,0.2,10.5,0c0,0,0.1,0,0.1,0c1.2,0,2.3-0.7,3-1.7C133.5,232.8,132.4,232.6,131.6,232.6z"></path><path class="st2" d="M77.9,155.5c0-2.6,0.6-5.2,1.7-7.6c-9.6,1.2-16.4,9.9-15.2,19.5c1.2,9.6,9.9,16.4,19.5,15.2
		c5.9-0.7,11-4.4,13.6-9.8c-0.7,0.1-1.4,0.1-2.2,0.1C85.8,173.1,77.9,165.2,77.9,155.5C77.9,155.5,77.9,155.5,77.9,155.5z"></path><path class="st0" d="M80.3,154.8c0-2.5,0.6-5.1,1.7-7.4c0.3-0.6-1.2-0.4-1.3-0.4c-5.5,0.7-11,3.2-14.5,7.5c-6.4,7.5-5.5,18.7,2,25
		c0.5,0.4,1.1,0.9,1.7,1.3c4.5,2.9,10,3.8,15.3,2.5c6.3-1.4,12-5.1,14.9-11c0.3-0.6-1.2-0.4-1.3-0.4C88.7,173,80.4,164.3,80.3,154.8
		c0-0.6-4.8,0.1-4.8,1.5c0,5.1,2.3,10,6.1,13.3c4.2,3.5,9.6,5.1,15,4.3l-1.3-0.4c-1.8,3.6-4.9,7.1-9,8.1c-4.2,0.8-8.5-0.1-12-2.6
		c-7.3-5-9.7-14.6-5.6-22.4c2-3.8,5.6-7,9.9-7.6l-1.3-0.4c-1.1,2.4-1.7,5.1-1.8,7.8C75.6,156.9,80.3,156.1,80.3,154.8z"></path><path class="st2" d="M61.9,232.2c5.5-10.3,12.5-19.7,20.8-27.9c2-2,4.1-3.9,6.3-5.8c1.1-1,2.3-1.9,3.6-2.5c1.4-0.4,2.9-0.4,4.3,0.2
		c2.4,1,4.1,3.3,5.4,5.5c1.4,2.5,2.5,5.1,3.2,7.8c0.9,3.1,1.3,6.4,1.3,9.6c0,1.6-0.1,3.1-0.3,4.6c-0.1,0.8-0.2,1.7-0.4,2.5
		c-0.1,0.3-0.1,0.6-0.2,0.8c-0.2,0.6-0.9,1.1,0.2,0.6l1.6-0.5c-2.2,0.4-2.3-2.6-1.8-3.9c0.6-1.4,1.4-2.7,2.3-3.9
		c1.7-2.5,3.8-4.7,6.1-6.6c4.5-3.8,9.9-6.2,15.8-6.9c0.9-0.1,1.7-0.5,2.4-0.9c0.2-0.1,1.2-0.8,0.4-0.7c-8.9,1.1-17.3,5.1-23.8,11.4
		c-1.5,1.5-2.9,3.1-4.2,4.9c-1.2,1.7-3.2,4.1-2.8,6.3c0.4,2.7,3.1,2,4.8,1.2c2.1-1,2.6-2.4,2.9-4.6c0.8-4.9,0.6-9.9-0.6-14.7
		c-1.1-4.4-3-9.5-6.4-12.6c-3.8-3.5-8.9-1.9-12.9,0.4c-4.3,2.5-8,6.3-11.5,9.8c-7.9,8-14.6,17.1-19.9,27c-0.2,0.4,1.3-0.1,1.3-0.2
		C60.4,233.2,61.6,232.8,61.9,232.2L61.9,232.2z"></path><path class="st2" d="M122.7,168.1h0.2c0.1,0,0.2-0.1,0.3-0.1c0.1-0.1,0.2-0.2,0.2-0.3c0-0.1,0-0.2,0-0.3l0,0l-0.1-0.2l-0.2-0.2l0,0
		c-0.2-0.2-0.5-0.4-0.7-0.6c-0.2-0.2-0.5-0.3-0.7-0.5s-0.4-0.3-0.7-0.4c-0.3-0.1-0.5-0.2-0.8-0.3H120h-0.3h-0.3
		c-0.1,0-0.1,0-0.1,0.1c0,0.1,0,0.2,0.1,0.2c0.1,0.1,0.2,0.2,0.3,0.3c0.2,0.1,0.3,0.3,0.5,0.4c0.4,0.3,0.8,0.5,1.2,0.8l0.3,0.2
		c0.2,0.1,0.3,0.1,0.5,0.1c0.1,0,0.2,0,0.3,0h-0.2h0.2l-0.3-0.1h0.1l-0.3-0.2h0.1l-0.4-0.2h0.1l-0.4-0.3l0,0l-0.4-0.3l0,0l-0.3-0.3
		l0,0l-0.3-0.2l0,0l-0.3-0.4v-0.1c0,0.2-0.1,0.5-0.4,0.5h0.1c-0.1,0-0.2,0-0.2,0c-0.1,0-0.1,0-0.1,0.1c0,0.1,0,0.2,0.1,0.2
		c0.1,0.1,0.2,0.2,0.3,0.3c0.2,0.1,0.3,0.3,0.5,0.4c0.4,0.3,0.8,0.5,1.2,0.8l0.3,0.2c0.2,0.1,0.3,0.1,0.5,0.1L122.7,168.1z"></path><path class="st2" d="M100.2,148.7l0.1,0.8c0,0.3,0.1,0.6,0.3,0.9c0.1,0.2,0.3,0.4,0.4,0.6c0.1,0.2,0.3,0.3,0.5,0.4
		c0.2,0.1,0.5,0.2,0.7,0.2c0.1,0,0.1,0,0.2,0c0.2,0,0.3-0.1,0.5-0.1c0.2-0.1,0.4-0.2,0.6-0.4c0.2-0.2,0.3-0.4,0.4-0.6
		c0,0,0.1-0.1,0.1-0.1c0-0.1,0.1-0.3,0.1-0.4v-0.1c0.1-0.4,0-0.8-0.1-1.2c0,0,0,0,0-0.1c-0.1-0.2-0.1-0.4-0.2-0.5
		c-0.1-0.2-0.2-0.4-0.3-0.5c0,0-0.1-0.1-0.1-0.1c-0.1-0.2-0.3-0.3-0.4-0.4c-0.2-0.2-0.4-0.3-0.6-0.4c-0.2-0.1-0.3-0.1-0.5-0.2
		c-0.2,0-0.4,0-0.5,0H101c-0.1,0-0.3,0.1-0.4,0.1h-0.1c-0.2,0.1-0.3,0.2-0.4,0.4c-0.1,0.2-0.2,0.3-0.2,0.5c0,0.2,0,0.4,0,0.7
		C100,148.3,100.1,148.5,100.2,148.7c0.2,0.5,0.5,0.8,1,1l0.4,0.1c0.2,0.1,0.5,0,0.7-0.1h0.1l-0.3,0.1c0.1,0,0.2,0,0.3,0h-0.4
		c0.1,0,0.2,0,0.3,0.1l-0.4-0.1c0.1,0,0.1,0.1,0.2,0.1l-0.4-0.2l0.2,0.1l-0.3-0.3l0.1,0.1l-0.3-0.4c0,0,0.1,0.1,0.1,0.1l-0.2-0.5
		c0,0,0,0.1,0,0.1l-0.1-0.4c0,0.1,0,0.1,0,0.2v-0.4c0,0.1,0,0.1,0,0.2l0.1-0.4c0,0.1-0.1,0.2-0.1,0.2l0.2-0.3
		c-0.1,0.1-0.1,0.2-0.2,0.3l0.3-0.2c-0.1,0.1-0.2,0.1-0.3,0.2l0.3-0.1c-0.1,0-0.2,0-0.2,0l2,2.1v-0.8c0-0.2-0.1-0.5-0.2-0.7
		c-0.1-0.2-0.2-0.5-0.4-0.6c-0.1-0.2-0.3-0.3-0.5-0.5c-0.2-0.1-0.3-0.2-0.6-0.3h-0.4c-0.2,0-0.5,0.1-0.6,0.3l-0.2,0.3
		C100.3,148.2,100.3,148.5,100.2,148.7L100.2,148.7z"></path><path class="st2" d="M64.3,194.1L64.3,194.1c0.2,0.1,0.3,0.2,0.5,0.3l0,0l0,0c0.2,0.1,0.3,0.1,0.5,0.2h0.1l0.5,0.1H66h0.5h0.1l0,0
		l0.5-0.1l0.2-0.1c0.1-0.1,0.3-0.2,0.4-0.2l0.1-0.1c0.1,0,0.2-0.1,0.3-0.1l0.2-0.2c0,0,0,0,0-0.1l0,0c0.1-0.1,0.1-0.2,0.2-0.4
		c0,0,0-0.1,0-0.1l0,0c0-0.1,0-0.3,0-0.4c0,0,0-0.1,0-0.1l0,0c0-0.1-0.1-0.3-0.1-0.4c0,0,0,0,0-0.1l0,0c-0.1-0.1-0.2-0.3-0.2-0.4
		v-0.1c-0.1-0.1-0.2-0.2-0.3-0.3l0,0h-0.1l-0.4-0.3l0,0h-0.1c-0.2-0.1-0.3-0.1-0.5-0.2l0,0h-0.1c-0.2,0-0.4-0.1-0.6-0.1H66
		c-0.2,0-0.4,0-0.5,0h-0.1l-0.5,0.1h-0.1l0,0c-0.1,0.1-0.3,0.1-0.4,0.2h-0.1l0,0c-0.1,0.1-0.2,0.2-0.3,0.3l0,0.1
		c-0.1,0.1-0.1,0.3-0.2,0.4s0,0,0,0c-0.1,0.2-0.1,0.4,0,0.6c0,0.2,0.1,0.4,0.2,0.6c0.1,0.2,0.3,0.3,0.5,0.4c0.2,0.1,0.4,0.2,0.7,0.3
		l0.5,0.1c0.3,0,0.6,0,0.9-0.2l0.4-0.2c0.2-0.2,0.4-0.4,0.4-0.6l0,0l-0.2,0.4c0,0,0-0.1,0.1-0.1l-0.3,0.3c0,0,0.1-0.1,0.1-0.1
		l-0.4,0.2l0.2-0.1l-0.4,0.1c0.1,0,0.1,0,0.2,0h-0.5h0.2l-0.5-0.1H66l-0.5-0.2l0.1,0.1l-0.4-0.3c0,0,0.1,0,0.1,0.1l-0.3-0.3L65,193
		l-0.2-0.4c0,0,0,0.1,0.1,0.1l-0.1-0.4c0,0,0,0.1,0,0.1v-0.4c0,0.1,0,0.1,0,0.2l0.2-0.4c0,0.1-0.1,0.1-0.1,0.2l0.3-0.3
		c0,0.1-0.1,0.1-0.2,0.1l0.4-0.2l-0.2,0.1l0.4-0.1h-0.2h0.5h-0.1l0.5,0.1h-0.1l0.5,0.2h-0.1l0.4,0.2l-0.1-0.1
		c-0.2-0.2-0.4-0.3-0.6-0.3c-0.2-0.1-0.5-0.2-0.7-0.2c-0.2,0-0.5,0-0.7,0.1c-0.2,0-0.4,0.1-0.6,0.3l-0.3,0.3
		c-0.1,0.2-0.2,0.5-0.2,0.7l0.1,0.4C63.9,193.7,64.1,193.9,64.3,194.1L64.3,194.1z"></path><path class="st2" d="M119.5,190.5v1.1v0.3c0.1,0.2,0.2,0.4,0.3,0.5c0.1,0.1,0.2,0.2,0.3,0.3c0.2,0.2,0.4,0.3,0.6,0.4l0.4,0.2
		l0.4,0.1c0.2,0,0.4,0,0.6,0c0.2,0,0.3-0.1,0.5-0.1c0.1-0.1,0.2-0.2,0.3-0.4c0.1-0.1,0.1-0.2,0.1-0.3c0-0.1,0.1-0.2,0.1-0.4
		c0,0,0-0.1,0-0.1c0-0.1,0-0.3-0.1-0.4c0-0.2-0.1-0.4-0.3-0.5c-0.1-0.2-0.3-0.3-0.5-0.5c-0.2-0.2-0.4-0.3-0.6-0.4
		c-0.2-0.1-0.4-0.2-0.7-0.2h-0.4c-0.2,0-0.5,0-0.7,0.2l-0.2,0.2c-0.1,0.2-0.1,0.4,0,0.6c0,0,0,0.1,0,0.1V191c0,0.1,0,0.2,0,0.4
		l0.1-0.3c0,0.1-0.1,0.2-0.2,0.4l0.2-0.2l0,0l3.1,1.8l-0.1-1.1c0-0.2,0-0.3-0.1-0.5c-0.1-0.2-0.2-0.4-0.3-0.5
		c-0.2-0.2-0.3-0.3-0.6-0.4c-0.2-0.2-0.4-0.3-0.7-0.4l-0.4-0.1c-0.3-0.1-0.5-0.1-0.8,0l-0.3,0.1
		C119.6,190.2,119.5,190.4,119.5,190.5L119.5,190.5z"></path><path class="st0" d="M208.6,174.5c7.6-5.6,8.8-15.6,7.8-24.4c-0.2-1.8-2.1-3.5-3.7-2.1c-7,5.9-12.7,16.6-7,25.3
		C206.2,174.2,207.4,175.1,208.6,174.5c0.9-0.7,1.2-2.1,0.5-3.1c-4.4-6.8,1.4-15.2,6.8-19.7l-3.7-2.1c0.9,7.1,0.3,15.9-6,20.6
		c-1,0.8-1.2,2.1-0.5,3.1C206.1,174.1,207.5,175.2,208.6,174.5z"></path><path class="st0" d="M214.2,147.7c-0.9,0.7-2.6,1.4-2.5,2.7s0.2,2.4,0.3,3.5c0.1,2.3,0,4.6-0.4,6.8c-0.8,4.2-2.6,8.3-6.1,10.9h4.2
		c-2.9-4.4-2-9.6,0.4-14c1.3-2.3,3-4.5,4.9-6.3c0.5-0.4,1-0.8,1.4-1.3c0.5-0.6,0.2-1.3,0.1-2c-0.2-1.4-0.5-2.8-0.9-4.2
		c-2.3-10.1-6.8-19.5-13.3-27.6c-6.3-7.7-14.7-13.9-24.3-16.6c-9.2-2.5-19-2.2-28,1c-9.5,3.3-18,10.1-21.8,19.6
		c-0.7,1.6,4.2,1.6,4.9,0.1c5.2-12.9,19-20.1,32.5-19.9c15.5,0.2,28.7,10.8,36.6,23.5c5,8,8.2,16.9,9.5,26.2l0.3-0.6
		c-6.4,5.4-12.4,15.3-7,23.4c0.7,1.1,3.3,0.7,4.2,0c7.3-5.4,8.5-14.9,7.5-23.4l-0.3,0.6c0.5-0.4,1-0.8,1.5-1.2
		c0.8-0.6,0.8-1.3-0.2-1.7C216.6,146.9,215.3,147,214.2,147.7L214.2,147.7z"></path><path class="st0" d="M222.7,147.2c1.5-0.9,3.1-1.6,4.8-2.2l-0.5,0.2c1-0.3,2.1-0.6,3.2-0.8c1.1-0.3,1.7-1.4,1.4-2.4
		c0-0.1,0-0.1-0.1-0.2c-0.3-1.1-1.4-2.3-2.6-2.1c-3,0.5-5.9,1.6-8.5,3.1c-1,0.7-1.3,2.1-0.6,3.1
		C220.3,146.8,221.6,147.9,222.7,147.2L222.7,147.2z"></path><path class="st0" d="M238.6,142.2h2.9c0.6,0,1.1-0.3,1.4-0.7c0.2-0.2,0.3-0.5,0.3-0.8c0.1-0.3,0.1-0.6,0-0.9
		c-0.1-0.6-0.5-1.2-1-1.7c-0.5-0.4-1-0.6-1.6-0.6h-2.9c-0.5,0-1.1,0.3-1.4,0.7c-0.2,0.2-0.3,0.5-0.3,0.8c-0.1,0.3-0.1,0.6,0,0.9
		c0.1,0.7,0.5,1.2,1,1.7C237.5,141.9,238,142.2,238.6,142.2z"></path></g></svg>